G04 EAGLE Gerber RS-274X export*
G75*
%MOMM*%
%FSLAX34Y34*%
%LPD*%
%INTop Copper*%
%IPPOS*%
%AMOC8*
5,1,8,0,0,1.08239X$1,22.5*%
G01*
G04 Define Apertures*
%ADD10R,1.560000X1.560000*%
%ADD11C,1.560000*%
%ADD12C,4.186000*%
%ADD13R,0.900000X0.700000*%
%ADD14P,1.64956X8X292.5*%
%ADD15R,0.700000X0.900000*%
%ADD16R,2.500000X4.300000*%
%ADD17R,0.800000X0.800000*%
%ADD18R,0.600000X0.700000*%
%ADD19R,1.500000X0.400000*%
%ADD20C,1.450000*%
%ADD21C,1.508000*%
%ADD22R,1.508000X1.508000*%
%ADD23C,0.304800*%
%ADD24C,0.756400*%
G36*
X312760Y10281D02*
X312166Y10160D01*
X11684Y10160D01*
X11135Y10262D01*
X10624Y10589D01*
X10281Y11090D01*
X10160Y11684D01*
X10160Y280320D01*
X10262Y280869D01*
X10589Y281380D01*
X11089Y281723D01*
X11684Y281844D01*
X312166Y281936D01*
X312715Y281834D01*
X313226Y281507D01*
X313569Y281007D01*
X313690Y280412D01*
X313690Y11684D01*
X313588Y11135D01*
X313261Y10624D01*
X312760Y10281D01*
G37*
%LPC*%
G36*
X235783Y267124D02*
X244339Y267124D01*
X244339Y275680D01*
X243857Y275680D01*
X240153Y274145D01*
X237317Y271310D01*
X235783Y267605D01*
X235783Y267124D01*
G37*
G36*
X247387Y267124D02*
X255943Y267124D01*
X255943Y267605D01*
X254408Y271310D01*
X251572Y274145D01*
X247868Y275680D01*
X247387Y275680D01*
X247387Y267124D01*
G37*
G36*
X219060Y256536D02*
X222665Y256536D01*
X225997Y257916D01*
X228547Y260466D01*
X229927Y263797D01*
X229927Y267403D01*
X228547Y270734D01*
X225997Y273284D01*
X222665Y274664D01*
X219060Y274664D01*
X215728Y273284D01*
X213178Y270734D01*
X211799Y267403D01*
X211799Y263797D01*
X213178Y260466D01*
X215728Y257916D01*
X219060Y256536D01*
G37*
G36*
X194060Y256536D02*
X197665Y256536D01*
X200997Y257916D01*
X203547Y260466D01*
X204927Y263797D01*
X204927Y267403D01*
X203547Y270734D01*
X200997Y273284D01*
X197665Y274664D01*
X194060Y274664D01*
X190728Y273284D01*
X188178Y270734D01*
X186799Y267403D01*
X186799Y263797D01*
X188178Y260466D01*
X190728Y257916D01*
X194060Y256536D01*
G37*
G36*
X214881Y205614D02*
X224144Y205614D01*
X225037Y206506D01*
X225037Y215769D01*
X224144Y216662D01*
X214881Y216662D01*
X214828Y216608D01*
X214344Y216282D01*
X213750Y216162D01*
X206156Y216162D01*
X205865Y215870D01*
X205404Y215554D01*
X204812Y215424D01*
X204216Y215535D01*
X203710Y215870D01*
X203419Y216162D01*
X199705Y216162D01*
X199133Y216273D01*
X198628Y216608D01*
X174357Y240879D01*
X174031Y241362D01*
X173911Y241956D01*
X173911Y255012D01*
X174013Y255561D01*
X174340Y256072D01*
X174840Y256415D01*
X175435Y256536D01*
X179034Y256536D01*
X179927Y257429D01*
X179927Y273771D01*
X179034Y274664D01*
X162691Y274664D01*
X161799Y273771D01*
X161799Y257429D01*
X162691Y256536D01*
X166291Y256536D01*
X166840Y256434D01*
X167351Y256107D01*
X167694Y255606D01*
X167815Y255012D01*
X167815Y238800D01*
X194817Y211797D01*
X195143Y211314D01*
X195264Y210720D01*
X195264Y207006D01*
X196156Y206114D01*
X203419Y206114D01*
X203710Y206405D01*
X204171Y206721D01*
X204763Y206851D01*
X205359Y206740D01*
X205865Y206405D01*
X206156Y206114D01*
X213750Y206114D01*
X214322Y206002D01*
X214828Y205667D01*
X214881Y205614D01*
G37*
G36*
X158931Y148812D02*
X166506Y148812D01*
X172156Y154462D01*
X172639Y154788D01*
X173234Y154908D01*
X189381Y154908D01*
X197441Y162968D01*
X197924Y163294D01*
X198519Y163415D01*
X199149Y163415D01*
X199698Y163312D01*
X200209Y162985D01*
X200552Y162485D01*
X200673Y161891D01*
X200673Y161487D01*
X220753Y161487D01*
X220753Y163015D01*
X220183Y163584D01*
X219857Y164067D01*
X219737Y164662D01*
X219737Y174891D01*
X219839Y175440D01*
X220166Y175951D01*
X220666Y176294D01*
X221261Y176415D01*
X223588Y176415D01*
X247961Y200787D01*
X247961Y204090D01*
X248063Y204639D01*
X248390Y205150D01*
X248890Y205493D01*
X249485Y205614D01*
X249544Y205614D01*
X250437Y206506D01*
X250437Y214538D01*
X250548Y215110D01*
X250883Y215616D01*
X251787Y216520D01*
X252226Y216826D01*
X252816Y216966D01*
X253414Y216864D01*
X253925Y216537D01*
X254268Y216037D01*
X254389Y215442D01*
X254389Y206506D01*
X255281Y205614D01*
X264544Y205614D01*
X264597Y205667D01*
X265081Y205993D01*
X265675Y206114D01*
X273269Y206114D01*
X273560Y206405D01*
X274021Y206721D01*
X274613Y206851D01*
X275209Y206740D01*
X275715Y206405D01*
X276006Y206114D01*
X283269Y206114D01*
X284162Y207006D01*
X284162Y210163D01*
X284273Y210735D01*
X284608Y211241D01*
X285896Y212529D01*
X286379Y212855D01*
X286973Y212975D01*
X288393Y212975D01*
X290343Y213783D01*
X291836Y215276D01*
X292644Y217226D01*
X292644Y219337D01*
X291836Y221287D01*
X290343Y222779D01*
X288393Y223587D01*
X286282Y223587D01*
X284332Y222779D01*
X282839Y221287D01*
X282032Y219337D01*
X282032Y217917D01*
X281920Y217345D01*
X281585Y216839D01*
X281354Y216608D01*
X280870Y216282D01*
X280276Y216162D01*
X276006Y216162D01*
X275715Y215870D01*
X275254Y215554D01*
X274662Y215424D01*
X274066Y215535D01*
X273560Y215870D01*
X273269Y216162D01*
X265675Y216162D01*
X265103Y216273D01*
X264597Y216608D01*
X264544Y216662D01*
X255608Y216662D01*
X255081Y216755D01*
X254565Y217074D01*
X254214Y217569D01*
X254084Y218161D01*
X254195Y218757D01*
X254530Y219263D01*
X260496Y225229D01*
X260979Y225555D01*
X261573Y225675D01*
X262993Y225675D01*
X264943Y226483D01*
X266436Y227976D01*
X267244Y229926D01*
X267244Y232037D01*
X266436Y233987D01*
X264943Y235479D01*
X262993Y236287D01*
X260882Y236287D01*
X258932Y235479D01*
X257439Y233987D01*
X256632Y232037D01*
X256632Y230617D01*
X256520Y230045D01*
X256185Y229539D01*
X243754Y217108D01*
X243270Y216782D01*
X242676Y216662D01*
X239085Y216662D01*
X238535Y216764D01*
X238024Y217091D01*
X237681Y217591D01*
X237561Y218186D01*
X237561Y219919D01*
X237672Y220491D01*
X238007Y220996D01*
X256404Y239393D01*
X256887Y239719D01*
X257481Y239840D01*
X287013Y239840D01*
X298911Y251737D01*
X298911Y256033D01*
X299017Y256594D01*
X299348Y257102D01*
X299851Y257441D01*
X300997Y257916D01*
X303547Y260466D01*
X304927Y263797D01*
X304927Y267403D01*
X303547Y270734D01*
X300997Y273284D01*
X297665Y274664D01*
X294060Y274664D01*
X290728Y273284D01*
X288178Y270734D01*
X286799Y267403D01*
X286799Y263797D01*
X288178Y260466D01*
X290728Y257916D01*
X291874Y257441D01*
X292351Y257128D01*
X292694Y256628D01*
X292815Y256033D01*
X292815Y254894D01*
X292703Y254322D01*
X292368Y253816D01*
X284934Y246382D01*
X284451Y246056D01*
X283856Y245936D01*
X254325Y245936D01*
X231465Y223075D01*
X231465Y218186D01*
X231362Y217636D01*
X231035Y217125D01*
X230535Y216782D01*
X229941Y216662D01*
X229881Y216662D01*
X228989Y215769D01*
X228989Y206506D01*
X229881Y205614D01*
X229941Y205614D01*
X230490Y205511D01*
X231001Y205184D01*
X231344Y204684D01*
X231465Y204090D01*
X231465Y203069D01*
X231353Y202497D01*
X231018Y201991D01*
X222338Y193311D01*
X221899Y193005D01*
X221309Y192866D01*
X220711Y192967D01*
X220200Y193294D01*
X219857Y193794D01*
X219737Y194389D01*
X219737Y201594D01*
X218844Y202487D01*
X202581Y202487D01*
X201689Y201594D01*
X201689Y177535D01*
X201586Y176985D01*
X201259Y176474D01*
X200759Y176131D01*
X200165Y176011D01*
X196438Y176011D01*
X195866Y176122D01*
X195360Y176457D01*
X170433Y201384D01*
X170117Y201845D01*
X169987Y202437D01*
X170098Y203033D01*
X170433Y203539D01*
X171863Y204969D01*
X171863Y212544D01*
X166506Y217900D01*
X158931Y217900D01*
X153575Y212544D01*
X153575Y204969D01*
X158931Y199612D01*
X162952Y199612D01*
X163524Y199501D01*
X164030Y199166D01*
X168094Y195102D01*
X168400Y194663D01*
X168539Y194073D01*
X168438Y193475D01*
X168111Y192964D01*
X167611Y192621D01*
X167016Y192500D01*
X158931Y192500D01*
X153575Y187144D01*
X153575Y179569D01*
X158931Y174212D01*
X166506Y174212D01*
X171863Y179569D01*
X171863Y187654D01*
X171957Y188180D01*
X172275Y188696D01*
X172770Y189047D01*
X173362Y189178D01*
X173959Y189066D01*
X174464Y188731D01*
X193446Y169750D01*
X193762Y169289D01*
X193892Y168696D01*
X193781Y168100D01*
X193446Y167594D01*
X187303Y161451D01*
X186819Y161125D01*
X186225Y161004D01*
X173234Y161004D01*
X172662Y161116D01*
X172156Y161451D01*
X166506Y167100D01*
X158931Y167100D01*
X153575Y161744D01*
X153575Y154169D01*
X158931Y148812D01*
G37*
G36*
X269060Y256536D02*
X272665Y256536D01*
X275997Y257916D01*
X278547Y260466D01*
X279927Y263797D01*
X279927Y267403D01*
X278547Y270734D01*
X275997Y273284D01*
X272665Y274664D01*
X269060Y274664D01*
X265728Y273284D01*
X263178Y270734D01*
X261799Y267403D01*
X261799Y263797D01*
X263178Y260466D01*
X265728Y257916D01*
X269060Y256536D01*
G37*
G36*
X247387Y255520D02*
X247868Y255520D01*
X251572Y257055D01*
X254408Y259890D01*
X255943Y263595D01*
X255943Y264076D01*
X247387Y264076D01*
X247387Y255520D01*
G37*
G36*
X243857Y255520D02*
X244339Y255520D01*
X244339Y264076D01*
X235783Y264076D01*
X235783Y263595D01*
X237317Y259890D01*
X240153Y257055D01*
X243857Y255520D01*
G37*
G36*
X56199Y207126D02*
X59689Y207126D01*
X62914Y208462D01*
X62982Y208530D01*
X63465Y208855D01*
X64059Y208976D01*
X71075Y208976D01*
X71968Y209869D01*
X71968Y254131D01*
X71075Y255024D01*
X44812Y255024D01*
X43920Y254131D01*
X43920Y209869D01*
X44812Y208976D01*
X51828Y208976D01*
X52400Y208865D01*
X52906Y208530D01*
X52974Y208462D01*
X56199Y207126D01*
G37*
G36*
X133531Y199612D02*
X141106Y199612D01*
X146463Y204969D01*
X146463Y212544D01*
X141106Y217900D01*
X133531Y217900D01*
X128175Y212544D01*
X128175Y204969D01*
X133531Y199612D01*
G37*
G36*
X282206Y140876D02*
X292469Y140876D01*
X293362Y141769D01*
X293362Y150031D01*
X292070Y151322D01*
X291754Y151783D01*
X291624Y152376D01*
X291735Y152972D01*
X292070Y153478D01*
X293362Y154769D01*
X293362Y163031D01*
X292469Y163924D01*
X283930Y163924D01*
X283358Y164035D01*
X282853Y164370D01*
X279835Y167388D01*
X279529Y167827D01*
X279390Y168417D01*
X279491Y169015D01*
X279818Y169526D01*
X280318Y169869D01*
X280913Y169990D01*
X283838Y169990D01*
X284440Y170592D01*
X284923Y170918D01*
X285518Y171039D01*
X292469Y171039D01*
X293362Y171931D01*
X293362Y180194D01*
X292070Y181485D01*
X291754Y181946D01*
X291624Y182538D01*
X291735Y183134D01*
X292070Y183640D01*
X293362Y184931D01*
X293362Y193194D01*
X292469Y194087D01*
X282206Y194087D01*
X281314Y193194D01*
X281314Y187830D01*
X281202Y187258D01*
X280867Y186753D01*
X280338Y186224D01*
X279899Y185918D01*
X279309Y185778D01*
X278711Y185880D01*
X278200Y186207D01*
X277857Y186707D01*
X277737Y187301D01*
X277737Y201594D01*
X276844Y202487D01*
X260581Y202487D01*
X259689Y201594D01*
X259689Y192063D01*
X259590Y191525D01*
X259268Y191011D01*
X258770Y190664D01*
X258177Y190539D01*
X257581Y190655D01*
X256643Y191044D01*
X254532Y191044D01*
X252582Y190236D01*
X251089Y188743D01*
X250282Y186793D01*
X250282Y184682D01*
X251089Y182732D01*
X252582Y181239D01*
X254532Y180432D01*
X256643Y180432D01*
X257581Y180820D01*
X258116Y180935D01*
X258714Y180834D01*
X259225Y180507D01*
X259568Y180007D01*
X259689Y179412D01*
X259689Y166663D01*
X259590Y166125D01*
X259268Y165611D01*
X258770Y165264D01*
X258177Y165139D01*
X257581Y165255D01*
X256643Y165644D01*
X254532Y165644D01*
X252582Y164836D01*
X251089Y163343D01*
X250282Y161393D01*
X250282Y159282D01*
X251089Y157332D01*
X252582Y155839D01*
X254532Y155032D01*
X256643Y155032D01*
X257581Y155420D01*
X258116Y155535D01*
X258714Y155434D01*
X259225Y155107D01*
X259568Y154607D01*
X259689Y154012D01*
X259689Y150831D01*
X260581Y149939D01*
X273745Y149939D01*
X274317Y149827D01*
X274822Y149492D01*
X280867Y143447D01*
X281193Y142964D01*
X281314Y142370D01*
X281314Y141769D01*
X282206Y140876D01*
G37*
G36*
X302157Y150269D02*
X304268Y150269D01*
X306218Y151077D01*
X307711Y152569D01*
X308519Y154520D01*
X308519Y156630D01*
X307711Y158581D01*
X307379Y158912D01*
X307073Y159351D01*
X306934Y159941D01*
X307036Y160539D01*
X307362Y161050D01*
X307863Y161393D01*
X308315Y161485D01*
X309237Y162406D01*
X309237Y170669D01*
X307945Y171960D01*
X307629Y172421D01*
X307499Y173013D01*
X307610Y173609D01*
X307945Y174115D01*
X309237Y175406D01*
X309237Y183669D01*
X308222Y184683D01*
X307901Y185155D01*
X307776Y185749D01*
X307892Y186344D01*
X308519Y187857D01*
X308519Y189968D01*
X307711Y191918D01*
X306218Y193411D01*
X304268Y194219D01*
X302157Y194219D01*
X300207Y193411D01*
X298714Y191918D01*
X297907Y189968D01*
X297907Y187857D01*
X298533Y186344D01*
X298649Y185785D01*
X298538Y185189D01*
X298203Y184683D01*
X297189Y183669D01*
X297189Y175406D01*
X298480Y174115D01*
X298796Y173654D01*
X298926Y173062D01*
X298815Y172466D01*
X298480Y171960D01*
X297189Y170669D01*
X297189Y162406D01*
X298106Y161489D01*
X298495Y161420D01*
X299011Y161101D01*
X299362Y160606D01*
X299492Y160014D01*
X299381Y159418D01*
X299046Y158912D01*
X298714Y158581D01*
X297907Y156630D01*
X297907Y154520D01*
X298714Y152569D01*
X300207Y151077D01*
X302157Y150269D01*
G37*
G36*
X133531Y174212D02*
X141106Y174212D01*
X146463Y179569D01*
X146463Y187144D01*
X141106Y192500D01*
X133531Y192500D01*
X128175Y187144D01*
X128175Y179569D01*
X133531Y174212D01*
G37*
G36*
X219435Y128691D02*
X222464Y128691D01*
X222464Y142771D01*
X219435Y142771D01*
X217847Y141183D01*
X217386Y140867D01*
X216793Y140736D01*
X216197Y140848D01*
X215691Y141183D01*
X215018Y141856D01*
X215010Y141858D01*
X214499Y142185D01*
X214156Y142685D01*
X214036Y143279D01*
X214036Y148415D01*
X214138Y148964D01*
X214465Y149475D01*
X214965Y149818D01*
X215560Y149939D01*
X218844Y149939D01*
X218873Y149968D01*
X219357Y150294D01*
X219951Y150415D01*
X224575Y150415D01*
X238271Y164110D01*
X238754Y164436D01*
X239348Y164557D01*
X240768Y164557D01*
X242718Y165364D01*
X244211Y166857D01*
X245019Y168807D01*
X245019Y170918D01*
X244211Y172868D01*
X242718Y174361D01*
X240768Y175169D01*
X238657Y175169D01*
X236707Y174361D01*
X235214Y172868D01*
X234407Y170918D01*
X234407Y169498D01*
X234295Y168926D01*
X233960Y168421D01*
X223354Y157815D01*
X222915Y157509D01*
X222325Y157369D01*
X221727Y157471D01*
X221216Y157798D01*
X220873Y158298D01*
X220845Y158439D01*
X200673Y158439D01*
X200673Y156910D01*
X201242Y156341D01*
X201568Y155858D01*
X201689Y155263D01*
X201689Y150831D01*
X202581Y149939D01*
X206416Y149939D01*
X206965Y149836D01*
X207476Y149509D01*
X207819Y149009D01*
X207940Y148415D01*
X207940Y143279D01*
X207837Y142730D01*
X207510Y142219D01*
X207010Y141876D01*
X206969Y141868D01*
X205964Y140863D01*
X205964Y130600D01*
X206856Y129707D01*
X215119Y129707D01*
X215691Y130280D01*
X216152Y130596D01*
X216745Y130726D01*
X217341Y130615D01*
X217847Y130280D01*
X219435Y128691D01*
G37*
G36*
X42904Y150524D02*
X72984Y150524D01*
X72984Y171552D01*
X71496Y173040D01*
X64480Y173040D01*
X63908Y173151D01*
X63608Y173351D01*
X59891Y174890D01*
X59468Y174890D01*
X59468Y163576D01*
X56420Y163576D01*
X56420Y174890D01*
X55996Y174890D01*
X52289Y173354D01*
X52002Y173161D01*
X51407Y173040D01*
X44392Y173040D01*
X42904Y171552D01*
X42904Y150524D01*
G37*
G36*
X133531Y148812D02*
X141106Y148812D01*
X146463Y154169D01*
X146463Y161744D01*
X141106Y167100D01*
X133531Y167100D01*
X128175Y161744D01*
X128175Y154169D01*
X133531Y148812D01*
G37*
G36*
X59468Y124960D02*
X71496Y124960D01*
X72984Y126448D01*
X72984Y147476D01*
X59468Y147476D01*
X59468Y124960D01*
G37*
G36*
X44392Y124960D02*
X56420Y124960D01*
X56420Y147476D01*
X42904Y147476D01*
X42904Y126448D01*
X44392Y124960D01*
G37*
G36*
X225512Y137255D02*
X230028Y137255D01*
X230028Y141283D01*
X228540Y142771D01*
X225512Y142771D01*
X225512Y137255D01*
G37*
G36*
X225512Y128691D02*
X228540Y128691D01*
X230028Y130179D01*
X230028Y134207D01*
X225512Y134207D01*
X225512Y128691D01*
G37*
G36*
X214902Y100214D02*
X218611Y100214D01*
X222038Y101633D01*
X224661Y104256D01*
X226080Y107683D01*
X226080Y111392D01*
X224661Y114819D01*
X222038Y117442D01*
X218611Y118862D01*
X214902Y118862D01*
X211475Y117442D01*
X208852Y114819D01*
X207432Y111392D01*
X207432Y107683D01*
X208852Y104256D01*
X211475Y101633D01*
X214902Y100214D01*
G37*
G36*
X187502Y100214D02*
X191211Y100214D01*
X194638Y101633D01*
X197261Y104256D01*
X198680Y107683D01*
X198680Y111392D01*
X197261Y114819D01*
X194638Y117442D01*
X191211Y118862D01*
X187502Y118862D01*
X184075Y117442D01*
X181452Y114819D01*
X180032Y111392D01*
X180032Y107683D01*
X181452Y104256D01*
X184075Y101633D01*
X187502Y100214D01*
G37*
G36*
X160102Y100214D02*
X163811Y100214D01*
X167238Y101633D01*
X169861Y104256D01*
X171280Y107683D01*
X171280Y111392D01*
X169861Y114819D01*
X167238Y117442D01*
X163811Y118862D01*
X160102Y118862D01*
X156675Y117442D01*
X154052Y114819D01*
X152632Y111392D01*
X152632Y107683D01*
X154052Y104256D01*
X156675Y101633D01*
X160102Y100214D01*
G37*
G36*
X132702Y100214D02*
X136411Y100214D01*
X139838Y101633D01*
X142461Y104256D01*
X143880Y107683D01*
X143880Y111392D01*
X142461Y114819D01*
X139838Y117442D01*
X136411Y118862D01*
X132702Y118862D01*
X129275Y117442D01*
X126652Y114819D01*
X125232Y111392D01*
X125232Y107683D01*
X126652Y104256D01*
X129275Y101633D01*
X132702Y100214D01*
G37*
G36*
X98725Y100214D02*
X115588Y100214D01*
X116480Y101106D01*
X116480Y117969D01*
X115588Y118862D01*
X98725Y118862D01*
X97832Y117969D01*
X97832Y101106D01*
X98725Y100214D01*
G37*
G36*
X13586Y96862D02*
X35532Y96862D01*
X35532Y118808D01*
X32388Y118808D01*
X23762Y115234D01*
X17159Y108632D01*
X13586Y100006D01*
X13586Y96862D01*
G37*
G36*
X263486Y96862D02*
X285432Y96862D01*
X285432Y118808D01*
X282288Y118808D01*
X273662Y115234D01*
X267059Y108632D01*
X263486Y100006D01*
X263486Y96862D01*
G37*
G36*
X288480Y96862D02*
X310426Y96862D01*
X310426Y100006D01*
X306853Y108632D01*
X300251Y115234D01*
X291625Y118808D01*
X288480Y118808D01*
X288480Y96862D01*
G37*
G36*
X38580Y96862D02*
X60526Y96862D01*
X60526Y100006D01*
X56953Y108632D01*
X50351Y115234D01*
X41725Y118808D01*
X38580Y118808D01*
X38580Y96862D01*
G37*
G36*
X288480Y71868D02*
X291625Y71868D01*
X300251Y75441D01*
X306853Y82043D01*
X310426Y90669D01*
X310426Y93814D01*
X288480Y93814D01*
X288480Y71868D01*
G37*
G36*
X282288Y71868D02*
X285432Y71868D01*
X285432Y93814D01*
X263486Y93814D01*
X263486Y90669D01*
X267059Y82043D01*
X273662Y75441D01*
X282288Y71868D01*
G37*
G36*
X38580Y71868D02*
X41725Y71868D01*
X50351Y75441D01*
X56953Y82043D01*
X60526Y90669D01*
X60526Y93814D01*
X38580Y93814D01*
X38580Y71868D01*
G37*
G36*
X32388Y71868D02*
X35532Y71868D01*
X35532Y93814D01*
X13586Y93814D01*
X13586Y90669D01*
X17159Y82043D01*
X23762Y75441D01*
X32388Y71868D01*
G37*
G36*
X201202Y71814D02*
X204911Y71814D01*
X208338Y73233D01*
X210961Y75856D01*
X212380Y79283D01*
X212380Y82992D01*
X210961Y86419D01*
X208338Y89042D01*
X204911Y90462D01*
X201202Y90462D01*
X197775Y89042D01*
X195152Y86419D01*
X193732Y82992D01*
X193732Y79283D01*
X195152Y75856D01*
X197775Y73233D01*
X201202Y71814D01*
G37*
G36*
X173802Y71814D02*
X177511Y71814D01*
X180938Y73233D01*
X183561Y75856D01*
X184980Y79283D01*
X184980Y82992D01*
X183561Y86419D01*
X180938Y89042D01*
X177511Y90462D01*
X173802Y90462D01*
X170375Y89042D01*
X167752Y86419D01*
X166332Y82992D01*
X166332Y79283D01*
X167752Y75856D01*
X170375Y73233D01*
X173802Y71814D01*
G37*
G36*
X146402Y71814D02*
X150111Y71814D01*
X153538Y73233D01*
X156161Y75856D01*
X157580Y79283D01*
X157580Y82992D01*
X156161Y86419D01*
X153538Y89042D01*
X150111Y90462D01*
X146402Y90462D01*
X142975Y89042D01*
X140352Y86419D01*
X138932Y82992D01*
X138932Y79283D01*
X140352Y75856D01*
X142975Y73233D01*
X146402Y71814D01*
G37*
G36*
X119002Y71814D02*
X122711Y71814D01*
X126138Y73233D01*
X128761Y75856D01*
X130180Y79283D01*
X130180Y82992D01*
X128761Y86419D01*
X126138Y89042D01*
X122711Y90462D01*
X119002Y90462D01*
X115575Y89042D01*
X112952Y86419D01*
X111532Y82992D01*
X111532Y79283D01*
X112952Y75856D01*
X115575Y73233D01*
X119002Y71814D01*
G37*
%LPD*%
D10*
X107156Y109538D03*
D11*
X134556Y109538D03*
X161956Y109538D03*
X189356Y109538D03*
X216756Y109538D03*
X120856Y81138D03*
X148256Y81138D03*
X175656Y81138D03*
X203056Y81138D03*
D12*
X286956Y95338D03*
X37056Y95338D03*
D13*
X287338Y145900D03*
X287338Y158900D03*
X287338Y176063D03*
X287338Y189063D03*
X303213Y166538D03*
X303213Y179538D03*
D14*
X137319Y208756D03*
X162719Y208756D03*
X137319Y183356D03*
X162719Y183356D03*
X137319Y157956D03*
X162719Y157956D03*
D15*
X210988Y135731D03*
X223988Y135731D03*
D16*
X57944Y232000D03*
X57944Y149000D03*
D17*
X244913Y211138D03*
X259913Y211138D03*
X234513Y211138D03*
X219513Y211138D03*
D18*
X269638Y211138D03*
X279638Y211138D03*
X209788Y211138D03*
X199788Y211138D03*
D19*
X268713Y198963D03*
X268713Y192463D03*
X268713Y185963D03*
X268713Y179463D03*
X268713Y172963D03*
X268713Y166463D03*
X268713Y159963D03*
X268713Y153463D03*
X210713Y198963D03*
X210713Y192463D03*
X210713Y185963D03*
X210713Y179463D03*
X210713Y172963D03*
X210713Y166463D03*
X210713Y159963D03*
X210713Y153463D03*
D20*
X57944Y215900D03*
X57944Y165100D03*
D21*
X220863Y265600D03*
X245863Y265600D03*
X195863Y265600D03*
D22*
X170863Y265600D03*
D21*
X270863Y265600D03*
X295863Y265600D03*
D23*
X210988Y153188D02*
X210988Y135731D01*
X57944Y215900D02*
X57944Y232000D01*
X170863Y240063D02*
X199788Y211138D01*
X170863Y240063D02*
X170863Y265600D01*
X239713Y169863D02*
X223313Y153463D01*
D24*
X239713Y169863D03*
D23*
X279638Y211138D02*
X280194Y211138D01*
X287338Y218281D01*
D24*
X287338Y218281D03*
D23*
X223313Y153463D02*
X210713Y153463D01*
X210988Y153188D01*
X255963Y159963D02*
X268713Y159963D01*
X255963Y159963D02*
X255588Y160338D01*
D24*
X255588Y160338D03*
X303213Y155575D03*
D23*
X303213Y166538D01*
X282575Y146050D02*
X274638Y153988D01*
X269238Y153988D01*
X268713Y153463D01*
X287188Y146050D02*
X287338Y145900D01*
X287188Y146050D02*
X282575Y146050D01*
X276225Y166688D02*
X268938Y166688D01*
X268713Y166463D01*
X287188Y158750D02*
X287338Y158900D01*
X287188Y158750D02*
X284163Y158750D01*
X276225Y166688D01*
X286469Y176931D02*
X287338Y176063D01*
X282575Y173038D02*
X268788Y173038D01*
X268713Y172963D01*
X282575Y173038D02*
X286469Y176931D01*
X287338Y188913D02*
X287338Y189063D01*
X287338Y188913D02*
X277813Y179388D01*
X268788Y179388D01*
X268713Y179463D01*
X268488Y185738D02*
X268713Y185963D01*
X268488Y185738D02*
X255588Y185738D01*
D24*
X255588Y185738D03*
X303213Y188913D03*
D23*
X303213Y179538D01*
X222325Y179463D02*
X210713Y179463D01*
X222325Y179463D02*
X244913Y202050D01*
X244913Y211138D01*
X244913Y213956D01*
X261938Y230981D01*
D24*
X261938Y230981D03*
D23*
X219300Y185963D02*
X210713Y185963D01*
X219300Y185963D02*
X234513Y201175D01*
X234513Y211138D01*
X234513Y221813D01*
X255588Y242888D01*
X285750Y242888D01*
X295863Y253000D01*
X295863Y265600D01*
X210713Y166463D02*
X196625Y166463D01*
X188119Y157956D01*
X162719Y157956D01*
X194544Y172963D02*
X210713Y172963D01*
X194544Y172963D02*
X162719Y204788D01*
X162719Y208756D01*
X259913Y211138D02*
X269638Y211138D01*
X219513Y211138D02*
X209788Y211138D01*
M02*
