G04 EAGLE Gerber RS-274X export*
G75*
%MOMM*%
%FSLAX34Y34*%
%LPD*%
%INSilkscreen Top*%
%IPPOS*%
%AMOC8*
5,1,8,0,0,1.08239X$1,22.5*%
G01*
G04 Define Apertures*
%ADD10C,0.203200*%
%ADD11C,0.120000*%
%ADD12C,0.500000*%
%ADD13C,0.152400*%
%ADD14R,0.300000X0.150000*%
%ADD15R,0.300000X0.300000*%
%ADD16C,0.127000*%
%ADD17C,0.200000*%
G36*
X93485Y85105D02*
X85595Y85105D01*
X85595Y88818D01*
X85604Y89141D01*
X85632Y89446D01*
X85679Y89732D01*
X85744Y89998D01*
X85828Y90246D01*
X85930Y90475D01*
X86051Y90685D01*
X86191Y90876D01*
X86347Y91046D01*
X86518Y91193D01*
X86704Y91317D01*
X86904Y91419D01*
X87119Y91499D01*
X87349Y91555D01*
X87593Y91589D01*
X87851Y91601D01*
X88067Y91593D01*
X88274Y91569D01*
X88471Y91529D01*
X88661Y91473D01*
X88841Y91401D01*
X89013Y91313D01*
X89176Y91208D01*
X89330Y91088D01*
X89473Y90954D01*
X89602Y90808D01*
X89717Y90649D01*
X89759Y90578D01*
X89818Y90479D01*
X89906Y90296D01*
X89980Y90101D01*
X90040Y89894D01*
X90086Y89674D01*
X91533Y90628D01*
X93485Y91914D01*
X93485Y90682D01*
X90209Y88633D01*
X90209Y86174D01*
X93485Y86174D01*
X93485Y85105D01*
G37*
%LPC*%
G36*
X89363Y86174D02*
X89363Y88756D01*
X89357Y88961D01*
X89339Y89155D01*
X89308Y89336D01*
X89265Y89506D01*
X89209Y89663D01*
X89141Y89809D01*
X89061Y89942D01*
X88969Y90064D01*
X88865Y90172D01*
X88751Y90266D01*
X88628Y90345D01*
X88495Y90410D01*
X88352Y90461D01*
X88198Y90497D01*
X88036Y90518D01*
X87863Y90526D01*
X87696Y90518D01*
X87539Y90496D01*
X87392Y90460D01*
X87256Y90409D01*
X87130Y90343D01*
X87014Y90263D01*
X86908Y90168D01*
X86813Y90058D01*
X86728Y89935D01*
X86655Y89798D01*
X86542Y89487D01*
X86474Y89125D01*
X86451Y88711D01*
X86451Y86174D01*
X89363Y86174D01*
G37*
%LPD*%
G36*
X91592Y92966D02*
X91385Y94002D01*
X91557Y94053D01*
X91717Y94117D01*
X91865Y94193D01*
X92002Y94282D01*
X92126Y94384D01*
X92239Y94498D01*
X92340Y94624D01*
X92429Y94764D01*
X92575Y95081D01*
X92679Y95451D01*
X92742Y95873D01*
X92763Y96348D01*
X92740Y96837D01*
X92674Y97266D01*
X92624Y97459D01*
X92563Y97636D01*
X92490Y97799D01*
X92407Y97947D01*
X92313Y98079D01*
X92208Y98193D01*
X92093Y98290D01*
X91968Y98369D01*
X91832Y98431D01*
X91686Y98475D01*
X91530Y98501D01*
X91363Y98510D01*
X91179Y98499D01*
X91013Y98466D01*
X90865Y98411D01*
X90735Y98334D01*
X90620Y98236D01*
X90516Y98122D01*
X90421Y97989D01*
X90338Y97838D01*
X90194Y97488D01*
X90075Y97076D01*
X89845Y96096D01*
X89638Y95274D01*
X89534Y94947D01*
X89431Y94677D01*
X89324Y94447D01*
X89212Y94244D01*
X89093Y94065D01*
X88969Y93912D01*
X88836Y93781D01*
X88692Y93665D01*
X88538Y93566D01*
X88372Y93484D01*
X88195Y93419D01*
X88005Y93373D01*
X87803Y93345D01*
X87588Y93336D01*
X87342Y93348D01*
X87111Y93384D01*
X86893Y93445D01*
X86691Y93530D01*
X86503Y93639D01*
X86329Y93772D01*
X86170Y93929D01*
X86026Y94111D01*
X85897Y94316D01*
X85786Y94541D01*
X85691Y94787D01*
X85614Y95054D01*
X85554Y95342D01*
X85511Y95651D01*
X85486Y95981D01*
X85477Y96332D01*
X85483Y96658D01*
X85503Y96964D01*
X85535Y97251D01*
X85580Y97517D01*
X85638Y97764D01*
X85709Y97992D01*
X85792Y98199D01*
X85889Y98387D01*
X86001Y98558D01*
X86131Y98716D01*
X86279Y98860D01*
X86445Y98992D01*
X86630Y99110D01*
X86832Y99214D01*
X87053Y99306D01*
X87291Y99384D01*
X87476Y98331D01*
X87184Y98224D01*
X86935Y98079D01*
X86729Y97894D01*
X86566Y97670D01*
X86443Y97403D01*
X86354Y97089D01*
X86301Y96728D01*
X86283Y96320D01*
X86303Y95875D01*
X86362Y95486D01*
X86460Y95153D01*
X86597Y94876D01*
X86680Y94759D01*
X86773Y94658D01*
X86876Y94572D01*
X86988Y94502D01*
X87109Y94447D01*
X87241Y94408D01*
X87382Y94385D01*
X87532Y94377D01*
X87706Y94389D01*
X87865Y94426D01*
X88007Y94486D01*
X88134Y94570D01*
X88249Y94678D01*
X88354Y94806D01*
X88450Y94956D01*
X88537Y95128D01*
X88625Y95355D01*
X88722Y95672D01*
X88943Y96578D01*
X89114Y97303D01*
X89209Y97657D01*
X89321Y97995D01*
X89452Y98315D01*
X89604Y98614D01*
X89785Y98883D01*
X90002Y99115D01*
X90258Y99305D01*
X90556Y99448D01*
X90723Y99501D01*
X90903Y99538D01*
X91098Y99561D01*
X91307Y99568D01*
X91572Y99555D01*
X91822Y99515D01*
X92056Y99448D01*
X92275Y99355D01*
X92479Y99235D01*
X92667Y99088D01*
X92840Y98915D01*
X92998Y98714D01*
X93138Y98490D01*
X93260Y98244D01*
X93363Y97976D01*
X93447Y97686D01*
X93513Y97375D01*
X93560Y97041D01*
X93588Y96686D01*
X93597Y96309D01*
X93589Y95958D01*
X93566Y95626D01*
X93527Y95313D01*
X93472Y95019D01*
X93401Y94744D01*
X93315Y94487D01*
X93213Y94250D01*
X93096Y94031D01*
X92963Y93832D01*
X92814Y93651D01*
X92649Y93490D01*
X92469Y93347D01*
X92274Y93223D01*
X92062Y93119D01*
X91835Y93033D01*
X91592Y92966D01*
G37*
G36*
X91458Y106913D02*
X91363Y107955D01*
X91691Y108026D01*
X91975Y108138D01*
X92216Y108291D01*
X92413Y108485D01*
X92566Y108721D01*
X92675Y108998D01*
X92741Y109315D01*
X92763Y109674D01*
X92739Y110034D01*
X92669Y110354D01*
X92552Y110632D01*
X92387Y110870D01*
X92288Y110971D01*
X92177Y111060D01*
X92055Y111134D01*
X91921Y111195D01*
X91776Y111243D01*
X91620Y111277D01*
X91452Y111297D01*
X91273Y111304D01*
X91116Y111296D01*
X90969Y111273D01*
X90830Y111234D01*
X90700Y111180D01*
X90579Y111110D01*
X90466Y111025D01*
X90363Y110924D01*
X90268Y110808D01*
X90183Y110677D01*
X90110Y110533D01*
X90048Y110375D01*
X89997Y110203D01*
X89929Y109817D01*
X89907Y109377D01*
X89907Y108806D01*
X89033Y108806D01*
X89033Y109355D01*
X89010Y109746D01*
X88943Y110091D01*
X88830Y110389D01*
X88672Y110640D01*
X88474Y110840D01*
X88362Y110918D01*
X88241Y110982D01*
X88112Y111032D01*
X87974Y111068D01*
X87828Y111089D01*
X87672Y111096D01*
X87372Y111073D01*
X87106Y111003D01*
X86873Y110887D01*
X86673Y110724D01*
X86512Y110515D01*
X86398Y110261D01*
X86329Y109962D01*
X86306Y109618D01*
X86327Y109301D01*
X86391Y109015D01*
X86498Y108762D01*
X86647Y108540D01*
X86836Y108356D01*
X87059Y108215D01*
X87317Y108116D01*
X87611Y108061D01*
X87532Y107048D01*
X87297Y107085D01*
X87074Y107140D01*
X86866Y107213D01*
X86670Y107305D01*
X86488Y107414D01*
X86318Y107542D01*
X86163Y107687D01*
X86020Y107851D01*
X85893Y108030D01*
X85783Y108222D01*
X85689Y108426D01*
X85613Y108642D01*
X85553Y108870D01*
X85511Y109111D01*
X85486Y109364D01*
X85477Y109629D01*
X85486Y109918D01*
X85512Y110190D01*
X85555Y110445D01*
X85615Y110684D01*
X85693Y110907D01*
X85787Y111112D01*
X85899Y111302D01*
X86029Y111474D01*
X86173Y111629D01*
X86332Y111762D01*
X86503Y111875D01*
X86689Y111968D01*
X86888Y112040D01*
X87100Y112091D01*
X87326Y112122D01*
X87566Y112132D01*
X87750Y112126D01*
X87926Y112106D01*
X88093Y112073D01*
X88251Y112027D01*
X88400Y111967D01*
X88541Y111895D01*
X88795Y111710D01*
X89013Y111474D01*
X89192Y111191D01*
X89333Y110860D01*
X89436Y110480D01*
X89459Y110480D01*
X89489Y110696D01*
X89531Y110898D01*
X89587Y111089D01*
X89655Y111267D01*
X89735Y111433D01*
X89828Y111587D01*
X89934Y111729D01*
X90052Y111858D01*
X90181Y111974D01*
X90318Y112074D01*
X90462Y112158D01*
X90615Y112228D01*
X90776Y112282D01*
X90945Y112320D01*
X91122Y112343D01*
X91307Y112351D01*
X91572Y112340D01*
X91822Y112307D01*
X92056Y112253D01*
X92275Y112177D01*
X92479Y112080D01*
X92667Y111960D01*
X92840Y111819D01*
X92998Y111656D01*
X93138Y111474D01*
X93260Y111272D01*
X93363Y111052D01*
X93447Y110814D01*
X93513Y110557D01*
X93560Y110281D01*
X93588Y109987D01*
X93597Y109674D01*
X93589Y109382D01*
X93563Y109105D01*
X93521Y108843D01*
X93462Y108597D01*
X93386Y108365D01*
X93293Y108149D01*
X93183Y107948D01*
X93057Y107762D01*
X92913Y107592D01*
X92754Y107441D01*
X92578Y107308D01*
X92387Y107193D01*
X92179Y107096D01*
X91955Y107017D01*
X91714Y106956D01*
X91458Y106913D01*
G37*
G36*
X93485Y100678D02*
X92774Y100678D01*
X92456Y100829D01*
X92157Y100995D01*
X91878Y101178D01*
X91617Y101375D01*
X91140Y101798D01*
X90710Y102241D01*
X90319Y102692D01*
X89957Y103139D01*
X89610Y103563D01*
X89263Y103943D01*
X88907Y104267D01*
X88723Y104404D01*
X88535Y104523D01*
X88338Y104619D01*
X88129Y104689D01*
X87907Y104730D01*
X87672Y104744D01*
X87366Y104720D01*
X87095Y104649D01*
X86862Y104530D01*
X86664Y104363D01*
X86507Y104154D01*
X86395Y103908D01*
X86328Y103625D01*
X86306Y103305D01*
X86328Y102997D01*
X86393Y102717D01*
X86503Y102466D01*
X86656Y102243D01*
X86849Y102056D01*
X87077Y101912D01*
X87340Y101811D01*
X87639Y101753D01*
X87543Y100723D01*
X87313Y100760D01*
X87094Y100815D01*
X86888Y100889D01*
X86694Y100980D01*
X86511Y101090D01*
X86341Y101217D01*
X86183Y101363D01*
X86037Y101527D01*
X85906Y101706D01*
X85792Y101897D01*
X85696Y102101D01*
X85617Y102317D01*
X85556Y102545D01*
X85512Y102786D01*
X85486Y103039D01*
X85477Y103305D01*
X85486Y103594D01*
X85512Y103867D01*
X85556Y104122D01*
X85618Y104360D01*
X85697Y104580D01*
X85794Y104784D01*
X85908Y104970D01*
X86040Y105139D01*
X86188Y105289D01*
X86351Y105419D01*
X86529Y105529D01*
X86721Y105620D01*
X86928Y105690D01*
X87150Y105740D01*
X87387Y105770D01*
X87639Y105780D01*
X87868Y105767D01*
X88096Y105727D01*
X88324Y105662D01*
X88551Y105570D01*
X88778Y105452D01*
X89005Y105309D01*
X89232Y105140D01*
X89459Y104945D01*
X89717Y104691D01*
X90037Y104342D01*
X90864Y103361D01*
X91365Y102782D01*
X91813Y102336D01*
X92023Y102159D01*
X92229Y102008D01*
X92430Y101884D01*
X92628Y101787D01*
X92628Y105903D01*
X93485Y105903D01*
X93485Y100678D01*
G37*
G36*
X93485Y113428D02*
X92774Y113428D01*
X92456Y113579D01*
X92157Y113745D01*
X91878Y113928D01*
X91617Y114125D01*
X91140Y114548D01*
X90710Y114991D01*
X90319Y115442D01*
X89957Y115889D01*
X89610Y116313D01*
X89263Y116693D01*
X88907Y117017D01*
X88723Y117154D01*
X88535Y117273D01*
X88338Y117369D01*
X88129Y117439D01*
X87907Y117480D01*
X87672Y117494D01*
X87366Y117470D01*
X87095Y117399D01*
X86862Y117280D01*
X86664Y117113D01*
X86507Y116904D01*
X86395Y116658D01*
X86328Y116375D01*
X86306Y116055D01*
X86328Y115747D01*
X86393Y115467D01*
X86503Y115216D01*
X86656Y114993D01*
X86849Y114806D01*
X87077Y114662D01*
X87340Y114561D01*
X87639Y114503D01*
X87543Y113473D01*
X87313Y113510D01*
X87094Y113565D01*
X86888Y113639D01*
X86694Y113730D01*
X86511Y113840D01*
X86341Y113967D01*
X86183Y114113D01*
X86037Y114277D01*
X85906Y114456D01*
X85792Y114647D01*
X85696Y114851D01*
X85617Y115067D01*
X85556Y115295D01*
X85512Y115536D01*
X85486Y115789D01*
X85477Y116055D01*
X85486Y116344D01*
X85512Y116617D01*
X85556Y116872D01*
X85618Y117110D01*
X85697Y117330D01*
X85794Y117534D01*
X85908Y117720D01*
X86040Y117889D01*
X86188Y118039D01*
X86351Y118169D01*
X86529Y118279D01*
X86721Y118370D01*
X86928Y118440D01*
X87150Y118490D01*
X87387Y118520D01*
X87639Y118530D01*
X87868Y118517D01*
X88096Y118477D01*
X88324Y118412D01*
X88551Y118320D01*
X88778Y118202D01*
X89005Y118059D01*
X89232Y117890D01*
X89459Y117695D01*
X89717Y117441D01*
X90037Y117092D01*
X90864Y116111D01*
X91365Y115532D01*
X91813Y115086D01*
X92023Y114909D01*
X92229Y114758D01*
X92430Y114634D01*
X92628Y114537D01*
X92628Y118653D01*
X93485Y118653D01*
X93485Y113428D01*
G37*
G36*
X284255Y129873D02*
X283961Y129880D01*
X283678Y129904D01*
X283405Y129942D01*
X283142Y129996D01*
X282889Y130066D01*
X282647Y130151D01*
X282414Y130252D01*
X282191Y130368D01*
X281980Y130499D01*
X281781Y130642D01*
X281596Y130800D01*
X281424Y130970D01*
X281264Y131154D01*
X281118Y131351D01*
X280984Y131561D01*
X280864Y131785D01*
X280757Y132020D01*
X280664Y132267D01*
X280586Y132523D01*
X280521Y132791D01*
X280472Y133069D01*
X280436Y133357D01*
X280415Y133656D01*
X280407Y133966D01*
X280423Y134425D01*
X280471Y134859D01*
X280551Y135267D01*
X280662Y135649D01*
X280806Y136006D01*
X280981Y136337D01*
X281188Y136643D01*
X281427Y136923D01*
X281694Y137174D01*
X281985Y137391D01*
X282301Y137575D01*
X282642Y137725D01*
X283007Y137842D01*
X283396Y137926D01*
X283810Y137976D01*
X284249Y137992D01*
X284558Y137985D01*
X284853Y137962D01*
X285136Y137923D01*
X285405Y137869D01*
X285662Y137800D01*
X285906Y137715D01*
X286137Y137615D01*
X286355Y137500D01*
X286559Y137369D01*
X286749Y137224D01*
X286926Y137063D01*
X287088Y136888D01*
X287237Y136698D01*
X287371Y136493D01*
X287491Y136273D01*
X287598Y136038D01*
X286584Y135702D01*
X286426Y136026D01*
X286226Y136310D01*
X285985Y136553D01*
X285702Y136755D01*
X285384Y136914D01*
X285038Y137028D01*
X284663Y137096D01*
X284260Y137119D01*
X283942Y137106D01*
X283641Y137066D01*
X283359Y137000D01*
X283095Y136908D01*
X282850Y136790D01*
X282622Y136645D01*
X282413Y136474D01*
X282222Y136276D01*
X282051Y136056D01*
X281903Y135816D01*
X281778Y135556D01*
X281676Y135277D01*
X281596Y134979D01*
X281539Y134661D01*
X281505Y134323D01*
X281494Y133966D01*
X281506Y133612D01*
X281541Y133276D01*
X281600Y132958D01*
X281683Y132658D01*
X281790Y132375D01*
X281921Y132110D01*
X282075Y131863D01*
X282253Y131634D01*
X282451Y131427D01*
X282665Y131248D01*
X282897Y131096D01*
X283145Y130972D01*
X283410Y130876D01*
X283692Y130807D01*
X283990Y130765D01*
X284305Y130752D01*
X284509Y130758D01*
X284707Y130777D01*
X284898Y130809D01*
X285082Y130854D01*
X285432Y130982D01*
X285757Y131162D01*
X286055Y131393D01*
X286328Y131675D01*
X286576Y132008D01*
X286797Y132392D01*
X287671Y131956D01*
X287543Y131709D01*
X287402Y131477D01*
X287250Y131260D01*
X287085Y131058D01*
X286907Y130872D01*
X286718Y130701D01*
X286516Y130545D01*
X286301Y130404D01*
X286076Y130280D01*
X285843Y130172D01*
X285600Y130080D01*
X285349Y130005D01*
X285088Y129947D01*
X284819Y129906D01*
X284541Y129881D01*
X284255Y129873D01*
G37*
G36*
X293925Y129985D02*
X288980Y129985D01*
X288980Y130841D01*
X290990Y130841D01*
X290990Y136912D01*
X289209Y135640D01*
X289209Y136592D01*
X291074Y137875D01*
X292004Y137875D01*
X292004Y130841D01*
X293925Y130841D01*
X293925Y129985D01*
G37*
G36*
X283830Y197532D02*
X283536Y197540D01*
X283253Y197563D01*
X282980Y197601D01*
X282717Y197656D01*
X282464Y197725D01*
X282222Y197811D01*
X281989Y197911D01*
X281766Y198027D01*
X281555Y198158D01*
X281356Y198302D01*
X281171Y198459D01*
X280999Y198629D01*
X280839Y198813D01*
X280693Y199010D01*
X280559Y199220D01*
X280439Y199444D01*
X280332Y199680D01*
X280239Y199926D01*
X280161Y200183D01*
X280096Y200450D01*
X280047Y200728D01*
X280011Y201017D01*
X279990Y201316D01*
X279982Y201625D01*
X279998Y202084D01*
X280046Y202518D01*
X280126Y202926D01*
X280237Y203308D01*
X280381Y203665D01*
X280556Y203996D01*
X280763Y204302D01*
X281002Y204582D01*
X281269Y204833D01*
X281560Y205050D01*
X281876Y205234D01*
X282217Y205384D01*
X282582Y205501D01*
X282971Y205585D01*
X283385Y205635D01*
X283824Y205652D01*
X284133Y205644D01*
X284428Y205621D01*
X284711Y205582D01*
X284980Y205529D01*
X285237Y205459D01*
X285481Y205375D01*
X285712Y205274D01*
X285930Y205159D01*
X286134Y205028D01*
X286324Y204883D01*
X286501Y204722D01*
X286663Y204547D01*
X286812Y204357D01*
X286946Y204152D01*
X287066Y203932D01*
X287173Y203697D01*
X286159Y203361D01*
X286001Y203685D01*
X285801Y203969D01*
X285560Y204212D01*
X285277Y204414D01*
X284959Y204573D01*
X284613Y204687D01*
X284238Y204755D01*
X283835Y204778D01*
X283517Y204765D01*
X283216Y204725D01*
X282934Y204660D01*
X282670Y204567D01*
X282425Y204449D01*
X282197Y204304D01*
X281988Y204133D01*
X281797Y203935D01*
X281626Y203715D01*
X281478Y203475D01*
X281353Y203215D01*
X281251Y202936D01*
X281171Y202638D01*
X281114Y202320D01*
X281080Y201982D01*
X281069Y201625D01*
X281081Y201272D01*
X281116Y200936D01*
X281175Y200617D01*
X281258Y200317D01*
X281365Y200034D01*
X281496Y199769D01*
X281650Y199522D01*
X281828Y199293D01*
X282026Y199086D01*
X282240Y198907D01*
X282472Y198755D01*
X282720Y198631D01*
X282985Y198535D01*
X283267Y198466D01*
X283565Y198425D01*
X283880Y198411D01*
X284084Y198417D01*
X284282Y198437D01*
X284473Y198469D01*
X284657Y198513D01*
X285007Y198642D01*
X285332Y198821D01*
X285630Y199052D01*
X285903Y199334D01*
X286151Y199667D01*
X286372Y200052D01*
X287246Y199615D01*
X287118Y199368D01*
X286977Y199136D01*
X286825Y198919D01*
X286660Y198718D01*
X286482Y198531D01*
X286293Y198360D01*
X286091Y198204D01*
X285876Y198064D01*
X285651Y197939D01*
X285418Y197831D01*
X285175Y197740D01*
X284924Y197665D01*
X284663Y197607D01*
X284394Y197565D01*
X284116Y197540D01*
X283830Y197532D01*
G37*
G36*
X293483Y197644D02*
X288258Y197644D01*
X288258Y198355D01*
X288409Y198673D01*
X288575Y198972D01*
X288757Y199251D01*
X288955Y199511D01*
X289377Y199989D01*
X289820Y200419D01*
X290272Y200810D01*
X290719Y201172D01*
X291143Y201519D01*
X291523Y201866D01*
X291847Y202222D01*
X291983Y202406D01*
X292102Y202594D01*
X292199Y202791D01*
X292268Y203000D01*
X292310Y203222D01*
X292324Y203457D01*
X292300Y203763D01*
X292228Y204033D01*
X292109Y204267D01*
X291943Y204465D01*
X291734Y204621D01*
X291488Y204733D01*
X291205Y204801D01*
X290884Y204823D01*
X290577Y204801D01*
X290297Y204735D01*
X290046Y204626D01*
X289823Y204473D01*
X289636Y204280D01*
X289492Y204052D01*
X289391Y203789D01*
X289333Y203490D01*
X288303Y203585D01*
X288340Y203816D01*
X288395Y204034D01*
X288468Y204241D01*
X288560Y204435D01*
X288669Y204617D01*
X288797Y204788D01*
X288943Y204946D01*
X289106Y205092D01*
X289286Y205223D01*
X289477Y205337D01*
X289681Y205433D01*
X289897Y205512D01*
X290125Y205573D01*
X290366Y205617D01*
X290619Y205643D01*
X290884Y205652D01*
X291174Y205643D01*
X291446Y205617D01*
X291701Y205573D01*
X291939Y205511D01*
X292160Y205432D01*
X292363Y205335D01*
X292550Y205221D01*
X292718Y205089D01*
X292869Y204941D01*
X292999Y204778D01*
X293109Y204600D01*
X293199Y204408D01*
X293269Y204201D01*
X293320Y203979D01*
X293350Y203742D01*
X293360Y203490D01*
X293347Y203261D01*
X293307Y203032D01*
X293242Y202804D01*
X293150Y202577D01*
X293032Y202351D01*
X292889Y202124D01*
X292720Y201897D01*
X292525Y201670D01*
X292271Y201412D01*
X291922Y201092D01*
X290940Y200265D01*
X290362Y199764D01*
X289916Y199315D01*
X289739Y199106D01*
X289588Y198900D01*
X289464Y198698D01*
X289367Y198501D01*
X293483Y198501D01*
X293483Y197644D01*
G37*
G36*
X313709Y165314D02*
X313250Y165330D01*
X312816Y165377D01*
X312409Y165457D01*
X312026Y165568D01*
X311669Y165712D01*
X311338Y165887D01*
X311032Y166094D01*
X310752Y166333D01*
X310501Y166600D01*
X310284Y166891D01*
X310100Y167207D01*
X309950Y167548D01*
X309833Y167913D01*
X309749Y168303D01*
X309699Y168717D01*
X309683Y169155D01*
X309690Y169464D01*
X309713Y169759D01*
X309752Y170042D01*
X309806Y170312D01*
X309875Y170568D01*
X309960Y170812D01*
X310060Y171043D01*
X310175Y171261D01*
X310306Y171465D01*
X310452Y171656D01*
X310612Y171832D01*
X310787Y171994D01*
X310977Y172143D01*
X311182Y172277D01*
X311402Y172398D01*
X311637Y172504D01*
X311973Y171490D01*
X311649Y171332D01*
X311365Y171133D01*
X311122Y170891D01*
X310920Y170608D01*
X310761Y170290D01*
X310647Y169944D01*
X310579Y169569D01*
X310556Y169166D01*
X310569Y168848D01*
X310609Y168548D01*
X310675Y168266D01*
X310767Y168002D01*
X310885Y167756D01*
X311030Y167528D01*
X311201Y167319D01*
X311399Y167128D01*
X311619Y166957D01*
X311859Y166810D01*
X312119Y166684D01*
X312398Y166582D01*
X312696Y166502D01*
X313014Y166446D01*
X313352Y166411D01*
X313709Y166400D01*
X314063Y166412D01*
X314399Y166447D01*
X314717Y166507D01*
X315017Y166590D01*
X315300Y166696D01*
X315565Y166827D01*
X315812Y166981D01*
X316041Y167159D01*
X316248Y167357D01*
X316427Y167572D01*
X316579Y167803D01*
X316703Y168051D01*
X316799Y168316D01*
X316868Y168598D01*
X316910Y168896D01*
X316923Y169211D01*
X316917Y169415D01*
X316898Y169613D01*
X316866Y169804D01*
X316821Y169989D01*
X316693Y170339D01*
X316513Y170663D01*
X316282Y170962D01*
X316000Y171235D01*
X315667Y171482D01*
X315283Y171703D01*
X315719Y172577D01*
X315967Y172449D01*
X316198Y172309D01*
X316415Y172156D01*
X316617Y171991D01*
X316803Y171814D01*
X316974Y171624D01*
X317130Y171422D01*
X317271Y171208D01*
X317395Y170983D01*
X317503Y170749D01*
X317595Y170506D01*
X317670Y170255D01*
X317728Y169995D01*
X317769Y169726D01*
X317794Y169448D01*
X317802Y169161D01*
X317795Y168868D01*
X317772Y168585D01*
X317733Y168312D01*
X317679Y168049D01*
X317609Y167796D01*
X317524Y167553D01*
X317423Y167320D01*
X317307Y167097D01*
X317176Y166886D01*
X317033Y166688D01*
X316875Y166502D01*
X316705Y166330D01*
X316521Y166171D01*
X316324Y166024D01*
X316114Y165891D01*
X315890Y165770D01*
X315655Y165663D01*
X315408Y165570D01*
X315152Y165492D01*
X314884Y165428D01*
X314606Y165378D01*
X314318Y165342D01*
X314019Y165321D01*
X313709Y165314D01*
G37*
G36*
X315663Y173449D02*
X315568Y174491D01*
X315896Y174562D01*
X316181Y174674D01*
X316421Y174827D01*
X316618Y175021D01*
X316771Y175257D01*
X316881Y175534D01*
X316946Y175851D01*
X316968Y176210D01*
X316945Y176570D01*
X316874Y176890D01*
X316757Y177168D01*
X316593Y177406D01*
X316493Y177507D01*
X316383Y177596D01*
X316260Y177670D01*
X316127Y177731D01*
X315982Y177779D01*
X315825Y177813D01*
X315658Y177833D01*
X315479Y177840D01*
X315322Y177832D01*
X315174Y177809D01*
X315035Y177770D01*
X314905Y177716D01*
X314784Y177646D01*
X314672Y177561D01*
X314568Y177460D01*
X314473Y177344D01*
X314389Y177213D01*
X314315Y177069D01*
X314253Y176911D01*
X314202Y176739D01*
X314135Y176353D01*
X314112Y175913D01*
X314112Y175342D01*
X313239Y175342D01*
X313239Y175891D01*
X313216Y176282D01*
X313148Y176627D01*
X313035Y176925D01*
X312877Y177176D01*
X312679Y177376D01*
X312567Y177454D01*
X312447Y177518D01*
X312318Y177568D01*
X312180Y177604D01*
X312033Y177625D01*
X311878Y177632D01*
X311578Y177609D01*
X311311Y177539D01*
X311078Y177423D01*
X310878Y177260D01*
X310718Y177051D01*
X310603Y176797D01*
X310534Y176498D01*
X310511Y176154D01*
X310533Y175837D01*
X310597Y175551D01*
X310704Y175298D01*
X310853Y175076D01*
X311041Y174892D01*
X311265Y174751D01*
X311523Y174652D01*
X311816Y174597D01*
X311738Y173584D01*
X311502Y173621D01*
X311280Y173676D01*
X311071Y173749D01*
X310875Y173841D01*
X310693Y173950D01*
X310524Y174078D01*
X310368Y174223D01*
X310226Y174387D01*
X310098Y174566D01*
X309988Y174758D01*
X309895Y174962D01*
X309818Y175178D01*
X309759Y175406D01*
X309717Y175647D01*
X309691Y175900D01*
X309683Y176165D01*
X309691Y176454D01*
X309717Y176726D01*
X309760Y176981D01*
X309820Y177220D01*
X309898Y177443D01*
X309993Y177648D01*
X310105Y177838D01*
X310234Y178010D01*
X310379Y178165D01*
X310537Y178298D01*
X310709Y178411D01*
X310894Y178504D01*
X311093Y178576D01*
X311306Y178627D01*
X311532Y178658D01*
X311771Y178668D01*
X311956Y178662D01*
X312132Y178642D01*
X312299Y178609D01*
X312457Y178563D01*
X312606Y178503D01*
X312746Y178431D01*
X313001Y178246D01*
X313218Y178010D01*
X313397Y177727D01*
X313539Y177396D01*
X313642Y177016D01*
X313664Y177016D01*
X313694Y177232D01*
X313737Y177434D01*
X313792Y177625D01*
X313860Y177803D01*
X313941Y177969D01*
X314034Y178123D01*
X314139Y178265D01*
X314258Y178394D01*
X314386Y178510D01*
X314523Y178610D01*
X314668Y178694D01*
X314821Y178764D01*
X314981Y178818D01*
X315150Y178856D01*
X315327Y178879D01*
X315512Y178887D01*
X315777Y178876D01*
X316027Y178843D01*
X316262Y178789D01*
X316481Y178713D01*
X316685Y178616D01*
X316873Y178496D01*
X317046Y178355D01*
X317203Y178192D01*
X317344Y178010D01*
X317465Y177808D01*
X317568Y177588D01*
X317653Y177350D01*
X317718Y177093D01*
X317765Y176817D01*
X317793Y176523D01*
X317802Y176210D01*
X317794Y175918D01*
X317769Y175641D01*
X317727Y175379D01*
X317667Y175133D01*
X317591Y174901D01*
X317499Y174685D01*
X317389Y174484D01*
X317262Y174298D01*
X317119Y174128D01*
X316960Y173977D01*
X316784Y173844D01*
X316592Y173729D01*
X316384Y173632D01*
X316160Y173553D01*
X315920Y173492D01*
X315663Y173449D01*
G37*
G36*
X153194Y167822D02*
X145303Y167822D01*
X145303Y171143D01*
X145313Y171465D01*
X145342Y171769D01*
X145391Y172054D01*
X145459Y172320D01*
X145546Y172568D01*
X145653Y172797D01*
X145779Y173007D01*
X145925Y173198D01*
X146088Y173369D01*
X146268Y173517D01*
X146463Y173642D01*
X146674Y173744D01*
X146901Y173824D01*
X147144Y173881D01*
X147403Y173915D01*
X147678Y173926D01*
X147951Y173915D01*
X148209Y173880D01*
X148453Y173823D01*
X148683Y173743D01*
X148898Y173641D01*
X149099Y173515D01*
X149286Y173367D01*
X149459Y173195D01*
X149613Y173004D01*
X149748Y172797D01*
X149861Y172573D01*
X149954Y172334D01*
X150026Y172077D01*
X150078Y171805D01*
X150109Y171515D01*
X150119Y171210D01*
X150119Y168892D01*
X153194Y168892D01*
X153194Y167822D01*
G37*
%LPC*%
G36*
X149274Y168892D02*
X149274Y171059D01*
X149268Y171276D01*
X149249Y171479D01*
X149218Y171668D01*
X149175Y171843D01*
X149119Y172004D01*
X149051Y172151D01*
X148970Y172284D01*
X148878Y172403D01*
X148772Y172508D01*
X148655Y172599D01*
X148525Y172676D01*
X148382Y172739D01*
X148228Y172788D01*
X148060Y172823D01*
X147881Y172844D01*
X147689Y172851D01*
X147504Y172844D01*
X147331Y172822D01*
X147169Y172786D01*
X147020Y172736D01*
X146883Y172671D01*
X146757Y172593D01*
X146644Y172499D01*
X146542Y172392D01*
X146453Y172270D01*
X146375Y172133D01*
X146310Y171983D01*
X146256Y171818D01*
X146214Y171638D01*
X146184Y171445D01*
X146166Y171236D01*
X146160Y171014D01*
X146160Y168892D01*
X149274Y168892D01*
G37*
%LPD*%
G36*
X153194Y175411D02*
X152337Y175411D01*
X152337Y177421D01*
X146267Y177421D01*
X147538Y175641D01*
X146586Y175641D01*
X145303Y177505D01*
X145303Y178435D01*
X152337Y178435D01*
X152337Y180356D01*
X153194Y180356D01*
X153194Y175411D01*
G37*
G36*
X151234Y161310D02*
X151060Y162358D01*
X151367Y162424D01*
X151638Y162521D01*
X151874Y162651D01*
X152074Y162811D01*
X152233Y162999D01*
X152347Y163209D01*
X152415Y163441D01*
X152438Y163696D01*
X152432Y163838D01*
X152413Y163972D01*
X152338Y164217D01*
X152213Y164431D01*
X152037Y164614D01*
X151814Y164761D01*
X151544Y164866D01*
X151227Y164929D01*
X150864Y164950D01*
X146177Y164950D01*
X146177Y163433D01*
X145303Y163433D01*
X145303Y166014D01*
X150842Y166014D01*
X151121Y166005D01*
X151385Y165976D01*
X151634Y165927D01*
X151867Y165859D01*
X152085Y165772D01*
X152288Y165665D01*
X152476Y165539D01*
X152648Y165393D01*
X152802Y165230D01*
X152936Y165053D01*
X153049Y164862D01*
X153141Y164656D01*
X153213Y164436D01*
X153265Y164202D01*
X153295Y163953D01*
X153306Y163690D01*
X153298Y163446D01*
X153273Y163215D01*
X153233Y162996D01*
X153176Y162790D01*
X153103Y162597D01*
X153014Y162416D01*
X152909Y162248D01*
X152788Y162093D01*
X152650Y161951D01*
X152496Y161821D01*
X152326Y161704D01*
X152140Y161600D01*
X151938Y161508D01*
X151719Y161430D01*
X151485Y161364D01*
X151234Y161310D01*
G37*
G36*
X239704Y137557D02*
X238920Y137557D01*
X233600Y141169D01*
X233600Y142227D01*
X238909Y142227D01*
X238909Y143336D01*
X239704Y143336D01*
X239704Y142227D01*
X241491Y142227D01*
X241491Y141275D01*
X239704Y141275D01*
X239704Y137557D01*
G37*
%LPC*%
G36*
X238909Y138487D02*
X238909Y141275D01*
X234737Y141275D01*
X235034Y141119D01*
X235403Y140900D01*
X238383Y138879D01*
X238797Y138576D01*
X238909Y138487D01*
G37*
%LPD*%
G36*
X237509Y129595D02*
X237050Y129611D01*
X236616Y129659D01*
X236209Y129738D01*
X235826Y129850D01*
X235469Y129993D01*
X235138Y130168D01*
X234832Y130375D01*
X234552Y130614D01*
X234301Y130881D01*
X234084Y131173D01*
X233900Y131489D01*
X233750Y131829D01*
X233633Y132194D01*
X233549Y132584D01*
X233499Y132998D01*
X233483Y133436D01*
X233490Y133745D01*
X233513Y134041D01*
X233552Y134323D01*
X233606Y134593D01*
X233675Y134850D01*
X233760Y135093D01*
X233860Y135324D01*
X233975Y135542D01*
X234106Y135746D01*
X234252Y135937D01*
X234412Y136113D01*
X234587Y136276D01*
X234777Y136424D01*
X234982Y136558D01*
X235202Y136679D01*
X235437Y136785D01*
X235773Y135772D01*
X235449Y135614D01*
X235165Y135414D01*
X234922Y135173D01*
X234720Y134890D01*
X234561Y134572D01*
X234447Y134225D01*
X234379Y133851D01*
X234356Y133448D01*
X234369Y133129D01*
X234409Y132829D01*
X234475Y132547D01*
X234567Y132283D01*
X234685Y132037D01*
X234830Y131810D01*
X235001Y131600D01*
X235199Y131409D01*
X235419Y131239D01*
X235659Y131091D01*
X235919Y130966D01*
X236198Y130863D01*
X236496Y130784D01*
X236814Y130727D01*
X237152Y130693D01*
X237509Y130681D01*
X237863Y130693D01*
X238199Y130729D01*
X238517Y130788D01*
X238817Y130871D01*
X239100Y130978D01*
X239365Y131108D01*
X239612Y131262D01*
X239841Y131440D01*
X240048Y131638D01*
X240227Y131853D01*
X240379Y132084D01*
X240503Y132333D01*
X240599Y132597D01*
X240668Y132879D01*
X240710Y133177D01*
X240723Y133492D01*
X240717Y133696D01*
X240698Y133894D01*
X240666Y134085D01*
X240621Y134270D01*
X240493Y134620D01*
X240313Y134944D01*
X240082Y135243D01*
X239800Y135516D01*
X239467Y135763D01*
X239083Y135984D01*
X239519Y136858D01*
X239767Y136730D01*
X239998Y136590D01*
X240215Y136437D01*
X240417Y136272D01*
X240603Y136095D01*
X240774Y135905D01*
X240930Y135703D01*
X241071Y135489D01*
X241195Y135264D01*
X241303Y135030D01*
X241395Y134788D01*
X241470Y134536D01*
X241528Y134276D01*
X241569Y134007D01*
X241594Y133729D01*
X241602Y133442D01*
X241595Y133149D01*
X241572Y132866D01*
X241533Y132593D01*
X241479Y132330D01*
X241409Y132077D01*
X241324Y131834D01*
X241223Y131601D01*
X241107Y131378D01*
X240976Y131167D01*
X240833Y130969D01*
X240675Y130784D01*
X240505Y130611D01*
X240321Y130452D01*
X240124Y130305D01*
X239914Y130172D01*
X239690Y130051D01*
X239455Y129944D01*
X239208Y129852D01*
X238952Y129773D01*
X238684Y129709D01*
X238406Y129659D01*
X238118Y129623D01*
X237819Y129602D01*
X237509Y129595D01*
G37*
G36*
X29417Y251757D02*
X29124Y251765D01*
X28841Y251788D01*
X28568Y251826D01*
X28305Y251881D01*
X28052Y251950D01*
X27809Y252036D01*
X27576Y252136D01*
X27353Y252252D01*
X27142Y252383D01*
X26944Y252527D01*
X26759Y252684D01*
X26586Y252854D01*
X26427Y253038D01*
X26280Y253235D01*
X26147Y253445D01*
X26026Y253669D01*
X25919Y253905D01*
X25827Y254151D01*
X25748Y254408D01*
X25684Y254675D01*
X25634Y254953D01*
X25598Y255242D01*
X25577Y255541D01*
X25570Y255850D01*
X25586Y256309D01*
X25634Y256743D01*
X25713Y257151D01*
X25825Y257533D01*
X25968Y257890D01*
X26143Y258221D01*
X26350Y258527D01*
X26589Y258807D01*
X26856Y259058D01*
X27148Y259275D01*
X27464Y259459D01*
X27804Y259609D01*
X28169Y259726D01*
X28559Y259810D01*
X28973Y259860D01*
X29411Y259877D01*
X29720Y259869D01*
X30016Y259846D01*
X30298Y259807D01*
X30568Y259754D01*
X30825Y259684D01*
X31068Y259600D01*
X31299Y259499D01*
X31517Y259384D01*
X31721Y259253D01*
X31912Y259108D01*
X32088Y258947D01*
X32251Y258772D01*
X32399Y258582D01*
X32533Y258377D01*
X32654Y258157D01*
X32760Y257922D01*
X31747Y257586D01*
X31589Y257910D01*
X31389Y258194D01*
X31148Y258437D01*
X30865Y258639D01*
X30547Y258798D01*
X30200Y258912D01*
X29826Y258980D01*
X29423Y259003D01*
X29104Y258990D01*
X28804Y258950D01*
X28522Y258885D01*
X28258Y258792D01*
X28012Y258674D01*
X27785Y258529D01*
X27575Y258358D01*
X27384Y258160D01*
X27214Y257940D01*
X27066Y257700D01*
X26941Y257440D01*
X26838Y257161D01*
X26759Y256863D01*
X26702Y256545D01*
X26668Y256207D01*
X26656Y255850D01*
X26668Y255497D01*
X26704Y255161D01*
X26763Y254842D01*
X26846Y254542D01*
X26953Y254259D01*
X27083Y253994D01*
X27237Y253747D01*
X27415Y253518D01*
X27613Y253311D01*
X27828Y253132D01*
X28059Y252980D01*
X28308Y252856D01*
X28572Y252760D01*
X28854Y252691D01*
X29152Y252650D01*
X29467Y252636D01*
X29671Y252642D01*
X29869Y252662D01*
X30060Y252694D01*
X30245Y252738D01*
X30595Y252867D01*
X30919Y253046D01*
X31218Y253277D01*
X31491Y253559D01*
X31738Y253892D01*
X31959Y254277D01*
X32833Y253840D01*
X32705Y253593D01*
X32565Y253361D01*
X32412Y253144D01*
X32247Y252943D01*
X32070Y252756D01*
X31880Y252585D01*
X31678Y252429D01*
X31464Y252289D01*
X31239Y252164D01*
X31005Y252056D01*
X30763Y251965D01*
X30511Y251890D01*
X30251Y251832D01*
X29982Y251790D01*
X29704Y251765D01*
X29417Y251757D01*
G37*
G36*
X36366Y251757D02*
X36096Y251764D01*
X35841Y251787D01*
X35598Y251825D01*
X35369Y251877D01*
X35153Y251945D01*
X34950Y252028D01*
X34761Y252125D01*
X34585Y252238D01*
X34423Y252365D01*
X34277Y252506D01*
X34147Y252660D01*
X34032Y252828D01*
X33932Y253009D01*
X33849Y253203D01*
X33781Y253411D01*
X33728Y253633D01*
X34747Y253750D01*
X34843Y253476D01*
X34969Y253238D01*
X35128Y253037D01*
X35317Y252873D01*
X35538Y252745D01*
X35790Y252653D01*
X36073Y252598D01*
X36388Y252580D01*
X36585Y252588D01*
X36772Y252611D01*
X36947Y252649D01*
X37112Y252702D01*
X37265Y252771D01*
X37407Y252856D01*
X37539Y252955D01*
X37659Y253070D01*
X37767Y253198D01*
X37860Y253338D01*
X37939Y253489D01*
X38004Y253652D01*
X38054Y253826D01*
X38090Y254011D01*
X38111Y254208D01*
X38118Y254417D01*
X38111Y254598D01*
X38089Y254771D01*
X38053Y254935D01*
X38003Y255090D01*
X37938Y255236D01*
X37858Y255373D01*
X37765Y255501D01*
X37656Y255621D01*
X37536Y255728D01*
X37405Y255822D01*
X37265Y255901D01*
X37114Y255965D01*
X36953Y256015D01*
X36782Y256051D01*
X36601Y256073D01*
X36410Y256080D01*
X36209Y256072D01*
X36016Y256048D01*
X35829Y256007D01*
X35649Y255951D01*
X35472Y255876D01*
X35296Y255778D01*
X35120Y255657D01*
X34943Y255514D01*
X33958Y255514D01*
X34221Y259759D01*
X38706Y259759D01*
X38706Y258902D01*
X35139Y258902D01*
X34988Y256399D01*
X35157Y256517D01*
X35335Y256620D01*
X35524Y256706D01*
X35723Y256777D01*
X35932Y256832D01*
X36150Y256872D01*
X36379Y256895D01*
X36618Y256903D01*
X36901Y256892D01*
X37170Y256860D01*
X37425Y256807D01*
X37664Y256732D01*
X37889Y256636D01*
X38099Y256519D01*
X38294Y256380D01*
X38474Y256220D01*
X38636Y256043D01*
X38777Y255852D01*
X38895Y255649D01*
X38993Y255433D01*
X39068Y255204D01*
X39122Y254962D01*
X39155Y254707D01*
X39166Y254439D01*
X39154Y254135D01*
X39119Y253848D01*
X39061Y253577D01*
X38980Y253323D01*
X38876Y253086D01*
X38748Y252865D01*
X38597Y252661D01*
X38424Y252474D01*
X38229Y252306D01*
X38017Y252160D01*
X37786Y252037D01*
X37538Y251936D01*
X37272Y251858D01*
X36988Y251802D01*
X36686Y251768D01*
X36366Y251757D01*
G37*
G36*
X260336Y216694D02*
X257385Y216694D01*
X257385Y224584D01*
X259994Y224584D01*
X260481Y224568D01*
X260939Y224521D01*
X261369Y224443D01*
X261770Y224333D01*
X262142Y224191D01*
X262486Y224019D01*
X262802Y223815D01*
X263088Y223579D01*
X263343Y223314D01*
X263565Y223023D01*
X263752Y222706D01*
X263905Y222362D01*
X264024Y221991D01*
X264109Y221594D01*
X264160Y221170D01*
X264177Y220720D01*
X264170Y220420D01*
X264148Y220129D01*
X264110Y219847D01*
X264058Y219576D01*
X263991Y219313D01*
X263910Y219061D01*
X263813Y218817D01*
X263701Y218584D01*
X263576Y218362D01*
X263438Y218153D01*
X263288Y217957D01*
X263126Y217775D01*
X262951Y217607D01*
X262764Y217451D01*
X262564Y217309D01*
X262352Y217181D01*
X262129Y217067D01*
X261898Y216968D01*
X261659Y216884D01*
X261411Y216816D01*
X261155Y216762D01*
X260890Y216724D01*
X260617Y216701D01*
X260336Y216694D01*
G37*
%LPC*%
G36*
X260213Y217551D02*
X260633Y217574D01*
X261028Y217646D01*
X261396Y217765D01*
X261739Y217931D01*
X262048Y218143D01*
X262320Y218396D01*
X262554Y218692D01*
X262749Y219029D01*
X262904Y219403D01*
X263014Y219810D01*
X263080Y220249D01*
X263102Y220720D01*
X263090Y221076D01*
X263052Y221410D01*
X262989Y221722D01*
X262901Y222013D01*
X262788Y222282D01*
X262650Y222529D01*
X262487Y222754D01*
X262299Y222957D01*
X262086Y223138D01*
X261852Y223294D01*
X261595Y223427D01*
X261315Y223535D01*
X261013Y223619D01*
X260688Y223679D01*
X260341Y223715D01*
X259972Y223727D01*
X258454Y223727D01*
X258454Y217551D01*
X260213Y217551D01*
G37*
%LPD*%
G36*
X242517Y216694D02*
X241447Y216694D01*
X241447Y224584D01*
X245160Y224584D01*
X245484Y224575D01*
X245788Y224547D01*
X246074Y224500D01*
X246341Y224435D01*
X246588Y224351D01*
X246817Y224249D01*
X247027Y224127D01*
X247218Y223988D01*
X247388Y223831D01*
X247535Y223660D01*
X247660Y223475D01*
X247762Y223274D01*
X247841Y223060D01*
X247898Y222830D01*
X247932Y222586D01*
X247943Y222327D01*
X247935Y222112D01*
X247911Y221905D01*
X247871Y221707D01*
X247815Y221518D01*
X247743Y221338D01*
X247655Y221166D01*
X247551Y221003D01*
X247431Y220849D01*
X247296Y220706D01*
X247150Y220577D01*
X246992Y220462D01*
X246921Y220420D01*
X246821Y220360D01*
X246638Y220273D01*
X246443Y220199D01*
X246236Y220139D01*
X246017Y220093D01*
X246970Y218646D01*
X248257Y216694D01*
X247025Y216694D01*
X244975Y219970D01*
X242517Y219970D01*
X242517Y216694D01*
G37*
%LPC*%
G36*
X245098Y220815D02*
X245304Y220822D01*
X245497Y220840D01*
X245678Y220871D01*
X245848Y220914D01*
X246005Y220970D01*
X246151Y221037D01*
X246284Y221118D01*
X246406Y221210D01*
X246514Y221314D01*
X246608Y221427D01*
X246687Y221551D01*
X246752Y221684D01*
X246803Y221827D01*
X246839Y221980D01*
X246861Y222143D01*
X246868Y222316D01*
X246861Y222483D01*
X246839Y222640D01*
X246802Y222787D01*
X246751Y222923D01*
X246685Y223049D01*
X246605Y223165D01*
X246510Y223271D01*
X246400Y223366D01*
X246277Y223451D01*
X246141Y223524D01*
X245830Y223637D01*
X245467Y223705D01*
X245053Y223727D01*
X242517Y223727D01*
X242517Y220815D01*
X245098Y220815D01*
G37*
%LPD*%
G36*
X250227Y216694D02*
X249045Y216694D01*
X252047Y220793D01*
X249275Y224584D01*
X250456Y224584D01*
X252651Y221487D01*
X254785Y224584D01*
X255967Y224584D01*
X253267Y220832D01*
X256196Y216694D01*
X255015Y216694D01*
X252646Y220143D01*
X250227Y216694D01*
G37*
G36*
X234448Y216694D02*
X231497Y216694D01*
X231497Y224584D01*
X234107Y224584D01*
X234594Y224568D01*
X235052Y224521D01*
X235481Y224443D01*
X235883Y224333D01*
X236255Y224191D01*
X236599Y224019D01*
X236914Y223815D01*
X237201Y223579D01*
X237456Y223314D01*
X237677Y223023D01*
X237864Y222706D01*
X238018Y222362D01*
X238137Y221991D01*
X238222Y221594D01*
X238273Y221170D01*
X238290Y220720D01*
X238282Y220420D01*
X238260Y220129D01*
X238223Y219847D01*
X238171Y219576D01*
X238104Y219313D01*
X238022Y219061D01*
X237925Y218817D01*
X237814Y218584D01*
X237689Y218362D01*
X237551Y218153D01*
X237401Y217957D01*
X237238Y217775D01*
X237064Y217607D01*
X236876Y217451D01*
X236676Y217309D01*
X236464Y217181D01*
X236242Y217067D01*
X236011Y216968D01*
X235771Y216884D01*
X235523Y216816D01*
X235267Y216762D01*
X235003Y216724D01*
X234730Y216701D01*
X234448Y216694D01*
G37*
%LPC*%
G36*
X234325Y217551D02*
X234746Y217574D01*
X235141Y217646D01*
X235509Y217765D01*
X235851Y217931D01*
X236161Y218143D01*
X236433Y218396D01*
X236666Y218692D01*
X236862Y219029D01*
X237016Y219403D01*
X237126Y219810D01*
X237193Y220249D01*
X237215Y220720D01*
X237202Y221076D01*
X237164Y221410D01*
X237102Y221722D01*
X237014Y222013D01*
X236901Y222282D01*
X236763Y222529D01*
X236599Y222754D01*
X236411Y222957D01*
X236199Y223138D01*
X235964Y223294D01*
X235707Y223427D01*
X235428Y223535D01*
X235125Y223619D01*
X234801Y223679D01*
X234454Y223715D01*
X234084Y223727D01*
X232567Y223727D01*
X232567Y217551D01*
X234325Y217551D01*
G37*
%LPD*%
G36*
X224339Y216694D02*
X223158Y216694D01*
X226159Y220793D01*
X223387Y224584D01*
X224569Y224584D01*
X226764Y221487D01*
X228898Y224584D01*
X230079Y224584D01*
X227380Y220832D01*
X230309Y216694D01*
X229127Y216694D01*
X226758Y220143D01*
X224339Y216694D01*
G37*
G36*
X219932Y216694D02*
X218868Y216694D01*
X218868Y223711D01*
X216158Y223711D01*
X216158Y224584D01*
X222642Y224584D01*
X222642Y223711D01*
X219932Y223711D01*
X219932Y216694D01*
G37*
G36*
X268710Y216694D02*
X267641Y216694D01*
X267641Y224584D01*
X271354Y224584D01*
X271677Y224575D01*
X271982Y224547D01*
X272268Y224500D01*
X272534Y224435D01*
X272782Y224351D01*
X273011Y224249D01*
X273221Y224127D01*
X273412Y223988D01*
X273582Y223831D01*
X273729Y223660D01*
X273853Y223475D01*
X273955Y223274D01*
X274035Y223060D01*
X274091Y222830D01*
X274125Y222586D01*
X274137Y222327D01*
X274129Y222112D01*
X274105Y221905D01*
X274065Y221707D01*
X274009Y221518D01*
X273937Y221338D01*
X273849Y221166D01*
X273744Y221003D01*
X273624Y220849D01*
X273490Y220706D01*
X273344Y220577D01*
X273185Y220462D01*
X273114Y220420D01*
X273015Y220360D01*
X272832Y220273D01*
X272637Y220199D01*
X272430Y220139D01*
X272210Y220093D01*
X273164Y218646D01*
X274450Y216694D01*
X273218Y216694D01*
X271169Y219970D01*
X268710Y219970D01*
X268710Y216694D01*
G37*
%LPC*%
G36*
X271292Y220815D02*
X271497Y220822D01*
X271691Y220840D01*
X271872Y220871D01*
X272042Y220914D01*
X272199Y220970D01*
X272345Y221037D01*
X272478Y221118D01*
X272600Y221210D01*
X272708Y221314D01*
X272802Y221427D01*
X272881Y221551D01*
X272946Y221684D01*
X272997Y221827D01*
X273033Y221980D01*
X273054Y222143D01*
X273062Y222316D01*
X273054Y222483D01*
X273032Y222640D01*
X272996Y222787D01*
X272945Y222923D01*
X272879Y223049D01*
X272799Y223165D01*
X272704Y223271D01*
X272594Y223366D01*
X272471Y223451D01*
X272334Y223524D01*
X272023Y223637D01*
X271661Y223705D01*
X271247Y223727D01*
X268710Y223727D01*
X268710Y220815D01*
X271292Y220815D01*
G37*
%LPD*%
G36*
X280800Y216694D02*
X275855Y216694D01*
X275855Y217551D01*
X277865Y217551D01*
X277865Y223621D01*
X276084Y222350D01*
X276084Y223302D01*
X277949Y224584D01*
X278879Y224584D01*
X278879Y217551D01*
X280800Y217551D01*
X280800Y216694D01*
G37*
G36*
X199654Y216694D02*
X198585Y216694D01*
X198585Y224584D01*
X202297Y224584D01*
X202621Y224575D01*
X202926Y224547D01*
X203211Y224500D01*
X203478Y224435D01*
X203726Y224351D01*
X203955Y224249D01*
X204165Y224127D01*
X204355Y223988D01*
X204525Y223831D01*
X204673Y223660D01*
X204797Y223475D01*
X204899Y223274D01*
X204979Y223060D01*
X205035Y222830D01*
X205069Y222586D01*
X205081Y222327D01*
X205073Y222112D01*
X205048Y221905D01*
X205008Y221707D01*
X204952Y221518D01*
X204880Y221338D01*
X204792Y221166D01*
X204688Y221003D01*
X204568Y220849D01*
X204434Y220706D01*
X204288Y220577D01*
X204129Y220462D01*
X204058Y220420D01*
X203958Y220360D01*
X203776Y220273D01*
X203581Y220199D01*
X203373Y220139D01*
X203154Y220093D01*
X204108Y218646D01*
X205394Y216694D01*
X204162Y216694D01*
X202113Y219970D01*
X199654Y219970D01*
X199654Y216694D01*
G37*
%LPC*%
G36*
X202236Y220815D02*
X202441Y220822D01*
X202635Y220840D01*
X202816Y220871D01*
X202985Y220914D01*
X203143Y220970D01*
X203288Y221037D01*
X203422Y221118D01*
X203543Y221210D01*
X203652Y221314D01*
X203745Y221427D01*
X203825Y221551D01*
X203890Y221684D01*
X203940Y221827D01*
X203976Y221980D01*
X203998Y222143D01*
X204005Y222316D01*
X203998Y222483D01*
X203976Y222640D01*
X203940Y222787D01*
X203888Y222923D01*
X203823Y223049D01*
X203742Y223165D01*
X203647Y223271D01*
X203538Y223366D01*
X203414Y223451D01*
X203278Y223524D01*
X202967Y223637D01*
X202605Y223705D01*
X202191Y223727D01*
X199654Y223727D01*
X199654Y220815D01*
X202236Y220815D01*
G37*
%LPD*%
G36*
X211727Y216694D02*
X206502Y216694D01*
X206502Y217405D01*
X206652Y217723D01*
X206819Y218022D01*
X207001Y218301D01*
X207199Y218561D01*
X207621Y219039D01*
X208064Y219469D01*
X208516Y219860D01*
X208963Y220222D01*
X209386Y220569D01*
X209767Y220916D01*
X210091Y221272D01*
X210227Y221456D01*
X210346Y221644D01*
X210443Y221841D01*
X210512Y222050D01*
X210554Y222272D01*
X210567Y222507D01*
X210544Y222813D01*
X210472Y223083D01*
X210353Y223317D01*
X210187Y223515D01*
X209978Y223671D01*
X209732Y223783D01*
X209448Y223851D01*
X209128Y223873D01*
X208820Y223851D01*
X208541Y223785D01*
X208290Y223676D01*
X208067Y223523D01*
X207880Y223330D01*
X207736Y223102D01*
X207635Y222839D01*
X207577Y222540D01*
X206547Y222635D01*
X206584Y222866D01*
X206639Y223084D01*
X206712Y223291D01*
X206803Y223485D01*
X206913Y223667D01*
X207041Y223838D01*
X207186Y223996D01*
X207350Y224142D01*
X207529Y224273D01*
X207721Y224387D01*
X207924Y224483D01*
X208140Y224562D01*
X208369Y224623D01*
X208610Y224667D01*
X208863Y224693D01*
X209128Y224702D01*
X209418Y224693D01*
X209690Y224667D01*
X209945Y224623D01*
X210183Y224561D01*
X210404Y224482D01*
X210607Y224385D01*
X210793Y224271D01*
X210962Y224139D01*
X211112Y223991D01*
X211243Y223828D01*
X211353Y223650D01*
X211443Y223458D01*
X211513Y223251D01*
X211563Y223029D01*
X211593Y222792D01*
X211603Y222540D01*
X211590Y222311D01*
X211551Y222082D01*
X211485Y221854D01*
X211393Y221627D01*
X211276Y221401D01*
X211132Y221174D01*
X210963Y220947D01*
X210769Y220720D01*
X210515Y220462D01*
X210166Y220142D01*
X209184Y219315D01*
X208606Y218814D01*
X208159Y218365D01*
X207982Y218156D01*
X207832Y217950D01*
X207708Y217748D01*
X207611Y217551D01*
X211727Y217551D01*
X211727Y216694D01*
G37*
G36*
X251500Y137285D02*
X251031Y137307D01*
X250593Y137373D01*
X250185Y137483D01*
X249809Y137638D01*
X249468Y137834D01*
X249167Y138070D01*
X248908Y138347D01*
X248689Y138663D01*
X248515Y139015D01*
X248390Y139399D01*
X248347Y139603D01*
X248316Y139815D01*
X248297Y140036D01*
X248291Y140264D01*
X248291Y145287D01*
X249361Y145287D01*
X249361Y140354D01*
X249369Y140092D01*
X249395Y139846D01*
X249438Y139616D01*
X249498Y139403D01*
X249575Y139206D01*
X249669Y139026D01*
X249781Y138861D01*
X249909Y138713D01*
X250054Y138582D01*
X250214Y138468D01*
X250390Y138372D01*
X250580Y138293D01*
X250786Y138232D01*
X251007Y138188D01*
X251243Y138162D01*
X251494Y138153D01*
X251753Y138162D01*
X251997Y138189D01*
X252226Y138235D01*
X252440Y138298D01*
X252639Y138379D01*
X252824Y138479D01*
X252994Y138597D01*
X253149Y138733D01*
X253287Y138886D01*
X253407Y139056D01*
X253509Y139242D01*
X253592Y139446D01*
X253657Y139666D01*
X253703Y139903D01*
X253731Y140156D01*
X253740Y140427D01*
X253740Y145287D01*
X254804Y145287D01*
X254804Y140365D01*
X254797Y140130D01*
X254778Y139903D01*
X254747Y139684D01*
X254702Y139473D01*
X254575Y139077D01*
X254398Y138713D01*
X254174Y138386D01*
X253908Y138100D01*
X253600Y137856D01*
X253250Y137652D01*
X252862Y137491D01*
X252441Y137377D01*
X251987Y137308D01*
X251500Y137285D01*
G37*
G36*
X261506Y137397D02*
X256561Y137397D01*
X256561Y138254D01*
X258571Y138254D01*
X258571Y144324D01*
X256791Y143053D01*
X256791Y144005D01*
X258655Y145287D01*
X259585Y145287D01*
X259585Y138254D01*
X261506Y138254D01*
X261506Y137397D01*
G37*
G36*
X57608Y194498D02*
X56830Y194516D01*
X56098Y194570D01*
X55413Y194660D01*
X54775Y194785D01*
X54183Y194947D01*
X53637Y195144D01*
X53138Y195377D01*
X52686Y195646D01*
X52283Y195948D01*
X51935Y196280D01*
X51640Y196643D01*
X51398Y197036D01*
X51210Y197460D01*
X51137Y197683D01*
X51076Y197914D01*
X51029Y198152D01*
X50996Y198398D01*
X50976Y198652D01*
X50969Y198913D01*
X50979Y199254D01*
X51008Y199579D01*
X51057Y199888D01*
X51126Y200180D01*
X51215Y200457D01*
X51323Y200718D01*
X51450Y200962D01*
X51597Y201190D01*
X51764Y201402D01*
X51951Y201598D01*
X52157Y201777D01*
X52383Y201941D01*
X52628Y202088D01*
X52894Y202220D01*
X53178Y202335D01*
X53483Y202434D01*
X53754Y200927D01*
X53401Y200794D01*
X53095Y200626D01*
X52836Y200424D01*
X52624Y200187D01*
X52460Y199916D01*
X52342Y199610D01*
X52271Y199270D01*
X52248Y198895D01*
X52267Y198567D01*
X52326Y198259D01*
X52425Y197969D01*
X52562Y197699D01*
X52739Y197447D01*
X52955Y197214D01*
X53210Y197001D01*
X53505Y196806D01*
X53836Y196633D01*
X54203Y196482D01*
X54606Y196355D01*
X55043Y196251D01*
X55515Y196170D01*
X56023Y196112D01*
X56566Y196078D01*
X57144Y196066D01*
X56769Y196303D01*
X56442Y196583D01*
X56163Y196907D01*
X55931Y197275D01*
X55749Y197679D01*
X55619Y198111D01*
X55573Y198338D01*
X55541Y198572D01*
X55521Y198813D01*
X55515Y199062D01*
X55531Y199478D01*
X55582Y199871D01*
X55665Y200243D01*
X55782Y200593D01*
X55932Y200921D01*
X56116Y201227D01*
X56333Y201511D01*
X56583Y201772D01*
X56862Y202007D01*
X57164Y202211D01*
X57488Y202383D01*
X57836Y202525D01*
X58206Y202634D01*
X58600Y202713D01*
X59017Y202760D01*
X59456Y202775D01*
X59932Y202759D01*
X60381Y202709D01*
X60805Y202626D01*
X61203Y202510D01*
X61576Y202361D01*
X61923Y202179D01*
X62244Y201964D01*
X62539Y201715D01*
X62804Y201438D01*
X63033Y201135D01*
X63228Y200807D01*
X63386Y200454D01*
X63510Y200076D01*
X63598Y199672D01*
X63651Y199244D01*
X63669Y198790D01*
X63663Y198533D01*
X63645Y198284D01*
X63572Y197809D01*
X63451Y197365D01*
X63281Y196951D01*
X63063Y196568D01*
X62797Y196215D01*
X62482Y195893D01*
X62119Y195602D01*
X61709Y195343D01*
X61255Y195119D01*
X60758Y194929D01*
X60216Y194774D01*
X59630Y194654D01*
X59000Y194567D01*
X58326Y194516D01*
X57608Y194498D01*
G37*
%LPC*%
G36*
X59150Y196224D02*
X59498Y196235D01*
X59831Y196268D01*
X60148Y196323D01*
X60448Y196400D01*
X60732Y196499D01*
X61000Y196620D01*
X61252Y196764D01*
X61488Y196929D01*
X61702Y197111D01*
X61887Y197306D01*
X62043Y197514D01*
X62171Y197734D01*
X62271Y197966D01*
X62342Y198211D01*
X62385Y198468D01*
X62399Y198738D01*
X62387Y199015D01*
X62351Y199276D01*
X62291Y199523D01*
X62207Y199754D01*
X62100Y199969D01*
X61968Y200170D01*
X61812Y200355D01*
X61633Y200524D01*
X61432Y200676D01*
X61214Y200808D01*
X60977Y200919D01*
X60723Y201010D01*
X60451Y201081D01*
X60160Y201132D01*
X59852Y201162D01*
X59526Y201172D01*
X59201Y201162D01*
X58894Y201131D01*
X58607Y201080D01*
X58339Y201008D01*
X58091Y200916D01*
X57861Y200803D01*
X57650Y200669D01*
X57459Y200516D01*
X57289Y200343D01*
X57141Y200155D01*
X57016Y199950D01*
X56914Y199729D01*
X56834Y199493D01*
X56778Y199239D01*
X56744Y198970D01*
X56732Y198685D01*
X56742Y198416D01*
X56772Y198160D01*
X56823Y197917D01*
X56893Y197688D01*
X56984Y197471D01*
X57094Y197269D01*
X57225Y197079D01*
X57376Y196903D01*
X57544Y196744D01*
X57728Y196606D01*
X57927Y196489D01*
X58141Y196394D01*
X58371Y196319D01*
X58615Y196266D01*
X58875Y196234D01*
X59150Y196224D01*
G37*
%LPD*%
G36*
X57266Y181530D02*
X56902Y181536D01*
X56549Y181555D01*
X56205Y181586D01*
X55871Y181629D01*
X55547Y181685D01*
X55233Y181754D01*
X54929Y181835D01*
X54635Y181928D01*
X54350Y182034D01*
X54076Y182152D01*
X53558Y182426D01*
X53080Y182750D01*
X52642Y183124D01*
X52250Y183541D01*
X51910Y183997D01*
X51760Y184240D01*
X51623Y184492D01*
X51498Y184753D01*
X51387Y185024D01*
X51289Y185305D01*
X51204Y185595D01*
X51132Y185895D01*
X51074Y186205D01*
X51028Y186524D01*
X50995Y186852D01*
X50976Y187190D01*
X50969Y187538D01*
X50981Y188021D01*
X51017Y188483D01*
X51077Y188925D01*
X51162Y189347D01*
X51270Y189748D01*
X51403Y190129D01*
X51559Y190490D01*
X51740Y190831D01*
X51944Y191151D01*
X52172Y191449D01*
X52423Y191725D01*
X52697Y191979D01*
X52994Y192211D01*
X53315Y192421D01*
X53659Y192609D01*
X54026Y192776D01*
X54551Y191190D01*
X54290Y191075D01*
X54044Y190943D01*
X53815Y190795D01*
X53601Y190631D01*
X53403Y190450D01*
X53221Y190253D01*
X53055Y190040D01*
X52905Y189811D01*
X52771Y189568D01*
X52656Y189314D01*
X52558Y189048D01*
X52478Y188772D01*
X52415Y188484D01*
X52371Y188186D01*
X52344Y187876D01*
X52335Y187556D01*
X52356Y187057D01*
X52418Y186588D01*
X52521Y186146D01*
X52665Y185734D01*
X52850Y185349D01*
X53077Y184994D01*
X53345Y184666D01*
X53654Y184367D01*
X53998Y184101D01*
X54374Y183869D01*
X54780Y183674D01*
X55216Y183513D01*
X55683Y183389D01*
X56180Y183300D01*
X56708Y183247D01*
X57266Y183229D01*
X57820Y183247D01*
X58345Y183303D01*
X58843Y183396D01*
X59313Y183525D01*
X59755Y183692D01*
X60169Y183896D01*
X60556Y184137D01*
X60914Y184416D01*
X61238Y184725D01*
X61518Y185061D01*
X61755Y185423D01*
X61949Y185811D01*
X62100Y186226D01*
X62208Y186666D01*
X62272Y187133D01*
X62294Y187626D01*
X62284Y187945D01*
X62254Y188254D01*
X62204Y188553D01*
X62133Y188841D01*
X62043Y189120D01*
X61933Y189389D01*
X61803Y189648D01*
X61652Y189896D01*
X61482Y190135D01*
X61291Y190363D01*
X61081Y190582D01*
X60850Y190790D01*
X60600Y190988D01*
X60329Y191177D01*
X60038Y191355D01*
X59728Y191523D01*
X60411Y192889D01*
X60797Y192689D01*
X61160Y192470D01*
X61499Y192231D01*
X61814Y191973D01*
X62106Y191696D01*
X62373Y191399D01*
X62617Y191083D01*
X62837Y190748D01*
X63032Y190396D01*
X63201Y190031D01*
X63344Y189651D01*
X63461Y189258D01*
X63552Y188851D01*
X63617Y188430D01*
X63656Y187995D01*
X63669Y187547D01*
X63657Y187088D01*
X63620Y186645D01*
X63560Y186218D01*
X63475Y185807D01*
X63366Y185412D01*
X63233Y185032D01*
X63075Y184668D01*
X62894Y184319D01*
X62690Y183989D01*
X62465Y183679D01*
X62219Y183389D01*
X61952Y183119D01*
X61665Y182870D01*
X61357Y182641D01*
X61028Y182432D01*
X60678Y182243D01*
X60309Y182076D01*
X59924Y181931D01*
X59523Y181808D01*
X59105Y181708D01*
X58670Y181630D01*
X58219Y181574D01*
X57751Y181541D01*
X57266Y181530D01*
G37*
G36*
X132181Y233144D02*
X130888Y233144D01*
X130888Y242738D01*
X132181Y242738D01*
X132181Y238728D01*
X142563Y238728D01*
X142563Y237154D01*
X132181Y237154D01*
X132181Y233144D01*
G37*
G36*
X132181Y243519D02*
X130888Y243519D01*
X130888Y253113D01*
X132181Y253113D01*
X132181Y249103D01*
X142563Y249103D01*
X142563Y247529D01*
X132181Y247529D01*
X132181Y243519D01*
G37*
G36*
X142563Y254904D02*
X130888Y254904D01*
X130888Y256487D01*
X141270Y256487D01*
X141270Y262386D01*
X142563Y262386D01*
X142563Y254904D01*
G37*
D10*
X122809Y169291D02*
X112141Y169291D01*
X112141Y172254D01*
X112143Y172361D01*
X112149Y172468D01*
X112158Y172574D01*
X112172Y172680D01*
X112189Y172786D01*
X112210Y172891D01*
X112235Y172995D01*
X112264Y173098D01*
X112296Y173200D01*
X112332Y173301D01*
X112372Y173400D01*
X112415Y173498D01*
X112462Y173594D01*
X112512Y173689D01*
X112565Y173782D01*
X112622Y173872D01*
X112682Y173961D01*
X112745Y174047D01*
X112811Y174131D01*
X112881Y174213D01*
X112953Y174292D01*
X113028Y174368D01*
X113106Y174442D01*
X113186Y174512D01*
X113269Y174580D01*
X113354Y174645D01*
X113441Y174706D01*
X113531Y174765D01*
X113623Y174820D01*
X113716Y174872D01*
X113812Y174920D01*
X113909Y174965D01*
X114007Y175007D01*
X114107Y175044D01*
X114209Y175079D01*
X114311Y175109D01*
X114415Y175136D01*
X114519Y175159D01*
X114625Y175178D01*
X114731Y175193D01*
X114837Y175205D01*
X114944Y175213D01*
X115051Y175217D01*
X115157Y175217D01*
X115264Y175213D01*
X115371Y175205D01*
X115477Y175193D01*
X115583Y175178D01*
X115689Y175159D01*
X115793Y175136D01*
X115897Y175109D01*
X115999Y175079D01*
X116101Y175044D01*
X116201Y175007D01*
X116299Y174965D01*
X116396Y174920D01*
X116492Y174872D01*
X116586Y174820D01*
X116677Y174765D01*
X116767Y174706D01*
X116854Y174645D01*
X116939Y174580D01*
X117022Y174512D01*
X117102Y174442D01*
X117180Y174368D01*
X117255Y174292D01*
X117327Y174213D01*
X117397Y174131D01*
X117463Y174047D01*
X117526Y173961D01*
X117586Y173872D01*
X117643Y173782D01*
X117696Y173689D01*
X117746Y173594D01*
X117793Y173498D01*
X117836Y173400D01*
X117876Y173301D01*
X117912Y173200D01*
X117944Y173098D01*
X117973Y172995D01*
X117998Y172891D01*
X118019Y172786D01*
X118036Y172680D01*
X118050Y172574D01*
X118059Y172468D01*
X118065Y172361D01*
X118067Y172254D01*
X118068Y172254D02*
X118068Y169291D01*
X118068Y172847D02*
X122809Y175218D01*
X122809Y180018D02*
X112141Y187130D01*
X112141Y180018D02*
X122809Y187130D01*
X122809Y192422D02*
X112141Y192422D01*
X112141Y195385D01*
X112143Y195491D01*
X112149Y195596D01*
X112158Y195702D01*
X112171Y195807D01*
X112188Y195911D01*
X112209Y196015D01*
X112233Y196118D01*
X112261Y196220D01*
X112293Y196321D01*
X112328Y196420D01*
X112367Y196519D01*
X112409Y196616D01*
X112454Y196711D01*
X112503Y196805D01*
X112556Y196897D01*
X112611Y196987D01*
X112670Y197075D01*
X112732Y197161D01*
X112797Y197244D01*
X112865Y197325D01*
X112935Y197404D01*
X113009Y197480D01*
X113085Y197554D01*
X113164Y197624D01*
X113245Y197692D01*
X113328Y197757D01*
X113414Y197819D01*
X113502Y197878D01*
X113592Y197933D01*
X113684Y197986D01*
X113778Y198035D01*
X113873Y198080D01*
X113970Y198122D01*
X114069Y198161D01*
X114168Y198196D01*
X114269Y198228D01*
X114371Y198256D01*
X114474Y198280D01*
X114578Y198301D01*
X114682Y198318D01*
X114787Y198331D01*
X114893Y198340D01*
X114998Y198346D01*
X115104Y198348D01*
X119846Y198348D01*
X119952Y198346D01*
X120057Y198340D01*
X120163Y198331D01*
X120268Y198318D01*
X120372Y198301D01*
X120476Y198280D01*
X120579Y198256D01*
X120681Y198228D01*
X120782Y198196D01*
X120881Y198161D01*
X120980Y198122D01*
X121077Y198080D01*
X121172Y198035D01*
X121266Y197986D01*
X121358Y197933D01*
X121448Y197878D01*
X121536Y197819D01*
X121622Y197757D01*
X121705Y197692D01*
X121786Y197624D01*
X121865Y197554D01*
X121941Y197480D01*
X122015Y197404D01*
X122085Y197325D01*
X122153Y197244D01*
X122218Y197161D01*
X122280Y197075D01*
X122339Y196987D01*
X122394Y196897D01*
X122447Y196805D01*
X122496Y196711D01*
X122541Y196616D01*
X122583Y196519D01*
X122622Y196420D01*
X122657Y196321D01*
X122689Y196220D01*
X122717Y196118D01*
X122741Y196015D01*
X122762Y195911D01*
X122779Y195807D01*
X122792Y195702D01*
X122801Y195596D01*
X122807Y195491D01*
X122809Y195385D01*
X122809Y192422D01*
X177229Y172254D02*
X187897Y172254D01*
X177229Y169291D02*
X177229Y175218D01*
X177229Y186478D02*
X187897Y179366D01*
X187897Y186478D02*
X177229Y179366D01*
X177229Y191770D02*
X187897Y191770D01*
X177229Y191770D02*
X177229Y194733D01*
X177231Y194839D01*
X177237Y194944D01*
X177246Y195050D01*
X177259Y195155D01*
X177276Y195259D01*
X177297Y195363D01*
X177321Y195466D01*
X177349Y195568D01*
X177381Y195669D01*
X177416Y195768D01*
X177455Y195867D01*
X177497Y195964D01*
X177542Y196059D01*
X177591Y196153D01*
X177644Y196245D01*
X177699Y196335D01*
X177758Y196423D01*
X177820Y196509D01*
X177885Y196592D01*
X177953Y196673D01*
X178023Y196752D01*
X178097Y196828D01*
X178173Y196902D01*
X178252Y196972D01*
X178333Y197040D01*
X178416Y197105D01*
X178502Y197167D01*
X178590Y197226D01*
X178680Y197281D01*
X178772Y197334D01*
X178866Y197383D01*
X178961Y197428D01*
X179058Y197470D01*
X179157Y197509D01*
X179256Y197544D01*
X179357Y197576D01*
X179459Y197604D01*
X179562Y197628D01*
X179666Y197649D01*
X179770Y197666D01*
X179875Y197679D01*
X179981Y197688D01*
X180086Y197694D01*
X180192Y197696D01*
X180192Y197697D02*
X184933Y197697D01*
X184933Y197696D02*
X185039Y197694D01*
X185144Y197688D01*
X185250Y197679D01*
X185355Y197666D01*
X185459Y197649D01*
X185563Y197628D01*
X185666Y197604D01*
X185768Y197576D01*
X185869Y197544D01*
X185968Y197509D01*
X186067Y197470D01*
X186164Y197428D01*
X186259Y197383D01*
X186353Y197334D01*
X186445Y197281D01*
X186535Y197226D01*
X186623Y197167D01*
X186709Y197105D01*
X186792Y197040D01*
X186873Y196972D01*
X186952Y196902D01*
X187028Y196828D01*
X187102Y196752D01*
X187172Y196673D01*
X187240Y196592D01*
X187305Y196509D01*
X187367Y196423D01*
X187426Y196335D01*
X187481Y196245D01*
X187534Y196153D01*
X187583Y196059D01*
X187628Y195964D01*
X187670Y195867D01*
X187709Y195768D01*
X187744Y195669D01*
X187776Y195568D01*
X187804Y195466D01*
X187828Y195363D01*
X187849Y195259D01*
X187866Y195155D01*
X187879Y195050D01*
X187888Y194944D01*
X187894Y194839D01*
X187896Y194733D01*
X187897Y194733D02*
X187897Y191770D01*
X126429Y141859D02*
X126429Y131191D01*
X126429Y141859D02*
X129392Y141859D01*
X129499Y141857D01*
X129606Y141851D01*
X129712Y141842D01*
X129818Y141828D01*
X129924Y141811D01*
X130029Y141790D01*
X130133Y141765D01*
X130236Y141736D01*
X130338Y141704D01*
X130439Y141668D01*
X130538Y141628D01*
X130636Y141585D01*
X130732Y141538D01*
X130827Y141488D01*
X130920Y141435D01*
X131010Y141378D01*
X131099Y141318D01*
X131185Y141255D01*
X131269Y141189D01*
X131351Y141119D01*
X131430Y141047D01*
X131506Y140972D01*
X131580Y140894D01*
X131650Y140814D01*
X131718Y140731D01*
X131783Y140646D01*
X131844Y140559D01*
X131903Y140469D01*
X131958Y140377D01*
X132010Y140284D01*
X132058Y140188D01*
X132103Y140091D01*
X132145Y139993D01*
X132182Y139893D01*
X132217Y139791D01*
X132247Y139689D01*
X132274Y139585D01*
X132297Y139481D01*
X132316Y139375D01*
X132331Y139269D01*
X132343Y139163D01*
X132351Y139056D01*
X132355Y138949D01*
X132355Y138843D01*
X132351Y138736D01*
X132343Y138629D01*
X132331Y138523D01*
X132316Y138417D01*
X132297Y138311D01*
X132274Y138207D01*
X132247Y138103D01*
X132217Y138001D01*
X132182Y137899D01*
X132145Y137799D01*
X132103Y137701D01*
X132058Y137604D01*
X132010Y137508D01*
X131958Y137415D01*
X131903Y137323D01*
X131844Y137233D01*
X131783Y137146D01*
X131718Y137061D01*
X131650Y136978D01*
X131580Y136898D01*
X131506Y136820D01*
X131430Y136745D01*
X131351Y136673D01*
X131269Y136603D01*
X131185Y136537D01*
X131099Y136474D01*
X131010Y136414D01*
X130920Y136357D01*
X130827Y136304D01*
X130732Y136254D01*
X130636Y136207D01*
X130538Y136164D01*
X130439Y136124D01*
X130338Y136088D01*
X130236Y136056D01*
X130133Y136027D01*
X130029Y136002D01*
X129924Y135981D01*
X129818Y135964D01*
X129712Y135950D01*
X129606Y135941D01*
X129499Y135935D01*
X129392Y135933D01*
X129392Y135932D02*
X126429Y135932D01*
X129985Y135932D02*
X132355Y131191D01*
X140923Y131191D02*
X141019Y131193D01*
X141114Y131199D01*
X141209Y131208D01*
X141303Y131222D01*
X141397Y131239D01*
X141490Y131260D01*
X141583Y131285D01*
X141674Y131313D01*
X141764Y131345D01*
X141852Y131381D01*
X141939Y131420D01*
X142025Y131463D01*
X142109Y131509D01*
X142190Y131558D01*
X142270Y131611D01*
X142347Y131667D01*
X142423Y131725D01*
X142495Y131787D01*
X142565Y131852D01*
X142633Y131920D01*
X142698Y131990D01*
X142760Y132062D01*
X142818Y132138D01*
X142874Y132215D01*
X142927Y132295D01*
X142976Y132377D01*
X143022Y132460D01*
X143065Y132546D01*
X143104Y132633D01*
X143140Y132721D01*
X143172Y132811D01*
X143200Y132902D01*
X143225Y132995D01*
X143246Y133088D01*
X143263Y133182D01*
X143277Y133276D01*
X143286Y133371D01*
X143292Y133467D01*
X143294Y133562D01*
X140923Y131191D02*
X140787Y131193D01*
X140650Y131198D01*
X140514Y131208D01*
X140379Y131221D01*
X140243Y131237D01*
X140109Y131258D01*
X139974Y131282D01*
X139841Y131309D01*
X139708Y131341D01*
X139576Y131375D01*
X139445Y131414D01*
X139316Y131456D01*
X139187Y131501D01*
X139060Y131550D01*
X138934Y131603D01*
X138810Y131659D01*
X138687Y131718D01*
X138566Y131780D01*
X138446Y131846D01*
X138329Y131915D01*
X138213Y131988D01*
X138099Y132063D01*
X137988Y132141D01*
X137878Y132223D01*
X137771Y132307D01*
X137667Y132394D01*
X137564Y132484D01*
X137464Y132577D01*
X137367Y132673D01*
X137663Y139488D02*
X137665Y139583D01*
X137671Y139679D01*
X137680Y139774D01*
X137694Y139868D01*
X137711Y139962D01*
X137732Y140055D01*
X137757Y140148D01*
X137785Y140239D01*
X137817Y140329D01*
X137853Y140417D01*
X137892Y140504D01*
X137935Y140590D01*
X137981Y140674D01*
X138030Y140755D01*
X138083Y140835D01*
X138139Y140912D01*
X138197Y140988D01*
X138259Y141060D01*
X138324Y141130D01*
X138392Y141198D01*
X138462Y141263D01*
X138534Y141325D01*
X138610Y141383D01*
X138687Y141439D01*
X138767Y141492D01*
X138849Y141541D01*
X138932Y141587D01*
X139018Y141630D01*
X139105Y141669D01*
X139193Y141705D01*
X139283Y141737D01*
X139374Y141765D01*
X139467Y141790D01*
X139560Y141811D01*
X139654Y141828D01*
X139748Y141842D01*
X139843Y141851D01*
X139939Y141857D01*
X140034Y141859D01*
X140164Y141857D01*
X140294Y141851D01*
X140424Y141842D01*
X140553Y141829D01*
X140682Y141812D01*
X140810Y141791D01*
X140938Y141766D01*
X141065Y141738D01*
X141191Y141706D01*
X141316Y141670D01*
X141440Y141631D01*
X141562Y141588D01*
X141684Y141542D01*
X141804Y141491D01*
X141922Y141438D01*
X142039Y141381D01*
X142154Y141321D01*
X142268Y141257D01*
X142379Y141190D01*
X142489Y141120D01*
X142596Y141046D01*
X142701Y140970D01*
X138849Y137413D02*
X138767Y137464D01*
X138687Y137518D01*
X138609Y137574D01*
X138534Y137634D01*
X138461Y137697D01*
X138391Y137763D01*
X138324Y137831D01*
X138259Y137902D01*
X138197Y137976D01*
X138138Y138052D01*
X138082Y138130D01*
X138030Y138211D01*
X137980Y138293D01*
X137934Y138378D01*
X137892Y138464D01*
X137852Y138552D01*
X137817Y138641D01*
X137785Y138732D01*
X137756Y138824D01*
X137732Y138917D01*
X137711Y139010D01*
X137694Y139105D01*
X137680Y139200D01*
X137671Y139296D01*
X137665Y139392D01*
X137663Y139488D01*
X142109Y135637D02*
X142190Y135586D01*
X142270Y135532D01*
X142348Y135476D01*
X142423Y135416D01*
X142496Y135353D01*
X142566Y135287D01*
X142633Y135219D01*
X142698Y135148D01*
X142760Y135074D01*
X142819Y134998D01*
X142875Y134920D01*
X142927Y134839D01*
X142977Y134757D01*
X143023Y134672D01*
X143065Y134586D01*
X143105Y134498D01*
X143140Y134409D01*
X143172Y134318D01*
X143201Y134226D01*
X143225Y134133D01*
X143246Y134040D01*
X143263Y133945D01*
X143277Y133850D01*
X143286Y133754D01*
X143292Y133658D01*
X143294Y133562D01*
X142108Y135636D02*
X138849Y137414D01*
X151676Y141859D02*
X151778Y141857D01*
X151880Y141851D01*
X151982Y141841D01*
X152083Y141828D01*
X152184Y141810D01*
X152284Y141789D01*
X152383Y141764D01*
X152481Y141735D01*
X152577Y141702D01*
X152673Y141666D01*
X152767Y141626D01*
X152859Y141582D01*
X152950Y141535D01*
X153039Y141484D01*
X153126Y141431D01*
X153210Y141373D01*
X153293Y141313D01*
X153373Y141250D01*
X153450Y141183D01*
X153525Y141114D01*
X153598Y141041D01*
X153667Y140966D01*
X153734Y140889D01*
X153797Y140809D01*
X153857Y140726D01*
X153915Y140642D01*
X153968Y140555D01*
X154019Y140466D01*
X154066Y140375D01*
X154110Y140283D01*
X154150Y140189D01*
X154186Y140093D01*
X154219Y139997D01*
X154248Y139899D01*
X154273Y139800D01*
X154294Y139700D01*
X154312Y139599D01*
X154325Y139498D01*
X154335Y139396D01*
X154341Y139294D01*
X154343Y139192D01*
X151676Y141859D02*
X151560Y141857D01*
X151443Y141851D01*
X151327Y141841D01*
X151212Y141827D01*
X151097Y141810D01*
X150982Y141788D01*
X150869Y141762D01*
X150756Y141733D01*
X150644Y141700D01*
X150534Y141663D01*
X150425Y141622D01*
X150317Y141578D01*
X150211Y141530D01*
X150107Y141478D01*
X150004Y141423D01*
X149903Y141365D01*
X149805Y141303D01*
X149708Y141238D01*
X149614Y141169D01*
X149522Y141097D01*
X149433Y141023D01*
X149346Y140945D01*
X149262Y140864D01*
X149181Y140781D01*
X149103Y140695D01*
X149027Y140606D01*
X148955Y140515D01*
X148886Y140421D01*
X148820Y140325D01*
X148757Y140227D01*
X148698Y140127D01*
X148642Y140025D01*
X148590Y139921D01*
X148541Y139815D01*
X148496Y139708D01*
X148454Y139599D01*
X148417Y139489D01*
X153454Y137117D02*
X153529Y137191D01*
X153601Y137268D01*
X153670Y137348D01*
X153737Y137430D01*
X153800Y137514D01*
X153860Y137601D01*
X153917Y137689D01*
X153971Y137780D01*
X154021Y137873D01*
X154068Y137967D01*
X154111Y138063D01*
X154151Y138161D01*
X154187Y138260D01*
X154220Y138360D01*
X154248Y138462D01*
X154273Y138564D01*
X154295Y138668D01*
X154312Y138772D01*
X154326Y138876D01*
X154335Y138981D01*
X154341Y139087D01*
X154343Y139192D01*
X153454Y137118D02*
X148416Y131191D01*
X154343Y131191D01*
X159846Y131191D02*
X162809Y131191D01*
X162916Y131193D01*
X163023Y131199D01*
X163129Y131208D01*
X163235Y131222D01*
X163341Y131239D01*
X163446Y131260D01*
X163550Y131285D01*
X163653Y131314D01*
X163755Y131346D01*
X163856Y131382D01*
X163955Y131422D01*
X164053Y131465D01*
X164149Y131512D01*
X164244Y131562D01*
X164337Y131615D01*
X164427Y131672D01*
X164516Y131732D01*
X164602Y131795D01*
X164686Y131861D01*
X164768Y131931D01*
X164847Y132003D01*
X164923Y132078D01*
X164997Y132156D01*
X165067Y132236D01*
X165135Y132319D01*
X165200Y132404D01*
X165261Y132491D01*
X165320Y132581D01*
X165375Y132673D01*
X165427Y132766D01*
X165475Y132862D01*
X165520Y132959D01*
X165562Y133057D01*
X165599Y133157D01*
X165634Y133259D01*
X165664Y133361D01*
X165691Y133465D01*
X165714Y133569D01*
X165733Y133675D01*
X165748Y133781D01*
X165760Y133887D01*
X165768Y133994D01*
X165772Y134101D01*
X165772Y134207D01*
X165768Y134314D01*
X165760Y134421D01*
X165748Y134527D01*
X165733Y134633D01*
X165714Y134739D01*
X165691Y134843D01*
X165664Y134947D01*
X165634Y135049D01*
X165599Y135151D01*
X165562Y135251D01*
X165520Y135349D01*
X165475Y135446D01*
X165427Y135542D01*
X165375Y135635D01*
X165320Y135727D01*
X165261Y135817D01*
X165200Y135904D01*
X165135Y135989D01*
X165067Y136072D01*
X164997Y136152D01*
X164923Y136230D01*
X164847Y136305D01*
X164768Y136377D01*
X164686Y136447D01*
X164602Y136513D01*
X164516Y136576D01*
X164427Y136636D01*
X164337Y136693D01*
X164244Y136746D01*
X164149Y136796D01*
X164053Y136843D01*
X163955Y136886D01*
X163856Y136926D01*
X163755Y136962D01*
X163653Y136994D01*
X163550Y137023D01*
X163446Y137048D01*
X163341Y137069D01*
X163235Y137086D01*
X163129Y137100D01*
X163023Y137109D01*
X162916Y137115D01*
X162809Y137117D01*
X163402Y141859D02*
X159846Y141859D01*
X163402Y141859D02*
X163499Y141857D01*
X163595Y141851D01*
X163691Y141841D01*
X163787Y141827D01*
X163882Y141810D01*
X163977Y141788D01*
X164070Y141763D01*
X164162Y141734D01*
X164253Y141701D01*
X164343Y141664D01*
X164431Y141624D01*
X164517Y141580D01*
X164601Y141533D01*
X164684Y141483D01*
X164764Y141429D01*
X164842Y141371D01*
X164918Y141311D01*
X164991Y141248D01*
X165061Y141182D01*
X165129Y141112D01*
X165194Y141041D01*
X165256Y140966D01*
X165314Y140889D01*
X165370Y140810D01*
X165422Y140729D01*
X165471Y140645D01*
X165517Y140560D01*
X165559Y140473D01*
X165597Y140384D01*
X165632Y140294D01*
X165663Y140202D01*
X165690Y140109D01*
X165714Y140016D01*
X165733Y139921D01*
X165749Y139825D01*
X165761Y139729D01*
X165769Y139633D01*
X165773Y139536D01*
X165773Y139440D01*
X165769Y139343D01*
X165761Y139247D01*
X165749Y139151D01*
X165733Y139055D01*
X165714Y138960D01*
X165690Y138867D01*
X165663Y138774D01*
X165632Y138682D01*
X165597Y138592D01*
X165559Y138503D01*
X165517Y138416D01*
X165471Y138331D01*
X165422Y138247D01*
X165370Y138166D01*
X165314Y138087D01*
X165256Y138010D01*
X165194Y137935D01*
X165129Y137864D01*
X165061Y137794D01*
X164991Y137728D01*
X164918Y137665D01*
X164842Y137605D01*
X164764Y137547D01*
X164684Y137493D01*
X164601Y137443D01*
X164517Y137396D01*
X164431Y137352D01*
X164343Y137312D01*
X164253Y137275D01*
X164162Y137242D01*
X164070Y137213D01*
X163977Y137188D01*
X163882Y137166D01*
X163787Y137149D01*
X163691Y137135D01*
X163595Y137125D01*
X163499Y137119D01*
X163402Y137117D01*
X163402Y137118D02*
X161031Y137118D01*
X174536Y141859D02*
X174638Y141857D01*
X174740Y141851D01*
X174842Y141841D01*
X174943Y141828D01*
X175044Y141810D01*
X175144Y141789D01*
X175243Y141764D01*
X175341Y141735D01*
X175437Y141702D01*
X175533Y141666D01*
X175627Y141626D01*
X175719Y141582D01*
X175810Y141535D01*
X175899Y141484D01*
X175986Y141431D01*
X176070Y141373D01*
X176153Y141313D01*
X176233Y141250D01*
X176310Y141183D01*
X176385Y141114D01*
X176458Y141041D01*
X176527Y140966D01*
X176594Y140889D01*
X176657Y140809D01*
X176717Y140726D01*
X176775Y140642D01*
X176828Y140555D01*
X176879Y140466D01*
X176926Y140375D01*
X176970Y140283D01*
X177010Y140189D01*
X177046Y140093D01*
X177079Y139997D01*
X177108Y139899D01*
X177133Y139800D01*
X177154Y139700D01*
X177172Y139599D01*
X177185Y139498D01*
X177195Y139396D01*
X177201Y139294D01*
X177203Y139192D01*
X174536Y141859D02*
X174420Y141857D01*
X174303Y141851D01*
X174187Y141841D01*
X174072Y141827D01*
X173957Y141810D01*
X173842Y141788D01*
X173729Y141762D01*
X173616Y141733D01*
X173504Y141700D01*
X173394Y141663D01*
X173285Y141622D01*
X173177Y141578D01*
X173071Y141530D01*
X172967Y141478D01*
X172864Y141423D01*
X172763Y141365D01*
X172665Y141303D01*
X172568Y141238D01*
X172474Y141169D01*
X172382Y141097D01*
X172293Y141023D01*
X172206Y140945D01*
X172122Y140864D01*
X172041Y140781D01*
X171963Y140695D01*
X171887Y140606D01*
X171815Y140515D01*
X171746Y140421D01*
X171680Y140325D01*
X171617Y140227D01*
X171558Y140127D01*
X171502Y140025D01*
X171450Y139921D01*
X171401Y139815D01*
X171356Y139708D01*
X171314Y139599D01*
X171277Y139489D01*
X176314Y137117D02*
X176389Y137191D01*
X176461Y137268D01*
X176530Y137348D01*
X176597Y137430D01*
X176660Y137514D01*
X176720Y137601D01*
X176777Y137689D01*
X176831Y137780D01*
X176881Y137873D01*
X176928Y137967D01*
X176971Y138063D01*
X177011Y138161D01*
X177047Y138260D01*
X177080Y138360D01*
X177108Y138462D01*
X177133Y138564D01*
X177155Y138668D01*
X177172Y138772D01*
X177186Y138876D01*
X177195Y138981D01*
X177201Y139087D01*
X177203Y139192D01*
X176314Y137118D02*
X171276Y131191D01*
X177203Y131191D01*
D11*
X317956Y128738D02*
X6056Y128738D01*
X6056Y338D01*
X317956Y338D02*
X317956Y128738D01*
X317956Y338D02*
X6056Y338D01*
X77356Y-61663D02*
X246556Y-61663D01*
X246556Y-63D01*
X77356Y-63D02*
X77356Y-61663D01*
D12*
X107156Y133990D03*
D13*
X124619Y215106D02*
X130969Y221456D01*
X124619Y202406D02*
X130969Y196056D01*
X124619Y189706D01*
X124619Y177006D02*
X130969Y170656D01*
X130969Y221456D02*
X169069Y221456D01*
X175419Y215106D01*
X175419Y202406D01*
X169069Y196056D01*
X175419Y189706D01*
X175419Y177006D01*
X169069Y170656D01*
X169069Y196056D02*
X130969Y196056D01*
X130969Y170656D02*
X169069Y170656D01*
X124619Y177006D02*
X124619Y189706D01*
X124619Y202406D02*
X124619Y215106D01*
X130969Y170656D02*
X124619Y164306D01*
X124619Y151606D02*
X130969Y145256D01*
X169069Y170656D02*
X175419Y164306D01*
X175419Y151606D01*
X169069Y145256D01*
X130969Y145256D01*
X124619Y151606D02*
X124619Y164306D01*
D10*
X6444Y132500D02*
X6444Y234000D01*
X20944Y248500D02*
X43444Y248500D01*
X72444Y248500D02*
X94944Y248500D01*
X109444Y234000D02*
X109444Y132500D01*
X72444Y132500D01*
X43444Y132500D02*
X6444Y132500D01*
X6444Y234000D02*
X20944Y248500D01*
X94944Y248500D02*
X109444Y234000D01*
X71944Y237500D02*
X73087Y237145D01*
X74221Y236761D01*
X75345Y236350D01*
X76458Y235912D01*
X77561Y235447D01*
X78652Y234954D01*
X79731Y234436D01*
X80796Y233891D01*
X81848Y233321D01*
X82886Y232724D01*
X83909Y232103D01*
X84917Y231457D01*
X85908Y230787D01*
X86883Y230092D01*
X87841Y229374D01*
X88780Y228633D01*
X89702Y227869D01*
X90604Y227083D01*
X91487Y226275D01*
X92350Y225446D01*
X93193Y224596D01*
X94014Y223726D01*
X94814Y222836D01*
X95593Y221926D01*
X96348Y220998D01*
X97081Y220052D01*
X97791Y219088D01*
X98476Y218107D01*
X99138Y217110D01*
X99775Y216097D01*
X100387Y215068D01*
X100974Y214025D01*
X101535Y212968D01*
X102071Y211897D01*
X102580Y210814D01*
X103062Y209719D01*
X103518Y208612D01*
X103946Y207495D01*
X104347Y206367D01*
X104721Y205230D01*
X105066Y204084D01*
X105384Y202930D01*
X105673Y201769D01*
X105934Y200601D01*
X106166Y199427D01*
X106369Y198247D01*
X106544Y197063D01*
X106690Y195875D01*
X106806Y194684D01*
X106894Y193490D01*
X106952Y192295D01*
X106981Y191098D01*
X106981Y189902D01*
X106952Y188705D01*
X106894Y187510D01*
X106806Y186316D01*
X106690Y185125D01*
X106544Y183937D01*
X106369Y182753D01*
X106166Y181573D01*
X105934Y180399D01*
X105673Y179231D01*
X105384Y178070D01*
X105066Y176916D01*
X104721Y175770D01*
X104347Y174633D01*
X103946Y173505D01*
X103518Y172388D01*
X103062Y171281D01*
X102580Y170186D01*
X102071Y169103D01*
X101535Y168032D01*
X100974Y166975D01*
X100387Y165932D01*
X99775Y164903D01*
X99138Y163890D01*
X98476Y162893D01*
X97791Y161912D01*
X97081Y160948D01*
X96348Y160002D01*
X95593Y159074D01*
X94814Y158164D01*
X94014Y157274D01*
X93193Y156404D01*
X92350Y155554D01*
X91487Y154725D01*
X90604Y153917D01*
X89702Y153131D01*
X88780Y152367D01*
X87841Y151626D01*
X86883Y150908D01*
X85908Y150213D01*
X84917Y149543D01*
X83909Y148897D01*
X82886Y148276D01*
X81848Y147679D01*
X80796Y147109D01*
X79731Y146564D01*
X78652Y146046D01*
X77561Y145553D01*
X76458Y145088D01*
X75345Y144650D01*
X74221Y144239D01*
X73087Y143855D01*
X71944Y143500D01*
X43944Y143500D02*
X42801Y143855D01*
X41667Y144239D01*
X40543Y144650D01*
X39430Y145088D01*
X38327Y145553D01*
X37236Y146046D01*
X36157Y146564D01*
X35092Y147109D01*
X34040Y147679D01*
X33002Y148276D01*
X31979Y148897D01*
X30971Y149543D01*
X29980Y150213D01*
X29005Y150908D01*
X28047Y151626D01*
X27108Y152367D01*
X26186Y153131D01*
X25284Y153917D01*
X24401Y154725D01*
X23538Y155554D01*
X22695Y156404D01*
X21874Y157274D01*
X21074Y158164D01*
X20295Y159074D01*
X19540Y160002D01*
X18807Y160948D01*
X18097Y161912D01*
X17412Y162893D01*
X16750Y163890D01*
X16113Y164903D01*
X15501Y165932D01*
X14914Y166975D01*
X14353Y168032D01*
X13817Y169103D01*
X13308Y170186D01*
X12826Y171281D01*
X12370Y172388D01*
X11942Y173505D01*
X11541Y174633D01*
X11167Y175770D01*
X10822Y176916D01*
X10504Y178070D01*
X10215Y179231D01*
X9954Y180399D01*
X9722Y181573D01*
X9519Y182753D01*
X9344Y183937D01*
X9198Y185125D01*
X9082Y186316D01*
X8994Y187510D01*
X8936Y188705D01*
X8907Y189902D01*
X8907Y191098D01*
X8936Y192295D01*
X8994Y193490D01*
X9082Y194684D01*
X9198Y195875D01*
X9344Y197063D01*
X9519Y198247D01*
X9722Y199427D01*
X9954Y200601D01*
X10215Y201769D01*
X10504Y202930D01*
X10822Y204084D01*
X11167Y205230D01*
X11541Y206367D01*
X11942Y207495D01*
X12370Y208612D01*
X12826Y209719D01*
X13308Y210814D01*
X13817Y211897D01*
X14353Y212968D01*
X14914Y214025D01*
X15501Y215068D01*
X16113Y216097D01*
X16750Y217110D01*
X17412Y218107D01*
X18097Y219088D01*
X18807Y220052D01*
X19540Y220998D01*
X20295Y221926D01*
X21074Y222836D01*
X21874Y223726D01*
X22695Y224596D01*
X23538Y225446D01*
X24401Y226275D01*
X25284Y227083D01*
X26186Y227869D01*
X27108Y228633D01*
X28047Y229374D01*
X29005Y230092D01*
X29980Y230787D01*
X30971Y231457D01*
X31979Y232103D01*
X33002Y232724D01*
X34040Y233321D01*
X35092Y233891D01*
X36157Y234436D01*
X37236Y234954D01*
X38327Y235447D01*
X39430Y235912D01*
X40543Y236350D01*
X41667Y236761D01*
X42801Y237145D01*
X43944Y237500D01*
D14*
X250913Y207388D03*
X250913Y214888D03*
D15*
X250913Y211138D03*
D14*
X228513Y214888D03*
X228513Y207388D03*
D15*
X228513Y211138D03*
D10*
X254677Y153513D02*
X254679Y153607D01*
X254685Y153701D01*
X254695Y153795D01*
X254709Y153888D01*
X254727Y153981D01*
X254748Y154073D01*
X254774Y154163D01*
X254803Y154253D01*
X254836Y154341D01*
X254873Y154428D01*
X254913Y154513D01*
X254957Y154597D01*
X255005Y154678D01*
X255055Y154758D01*
X255110Y154835D01*
X255167Y154910D01*
X255227Y154982D01*
X255291Y155052D01*
X255357Y155119D01*
X255426Y155183D01*
X255498Y155244D01*
X255572Y155302D01*
X255649Y155357D01*
X255728Y155409D01*
X255809Y155457D01*
X255892Y155502D01*
X255976Y155543D01*
X256063Y155581D01*
X256151Y155615D01*
X256240Y155645D01*
X256330Y155672D01*
X256422Y155694D01*
X256514Y155713D01*
X256608Y155728D01*
X256701Y155739D01*
X256795Y155746D01*
X256889Y155749D01*
X256984Y155748D01*
X257078Y155743D01*
X257172Y155734D01*
X257265Y155721D01*
X257358Y155704D01*
X257450Y155684D01*
X257541Y155659D01*
X257631Y155631D01*
X257719Y155599D01*
X257807Y155563D01*
X257892Y155523D01*
X257976Y155480D01*
X258058Y155434D01*
X258138Y155384D01*
X258216Y155330D01*
X258291Y155274D01*
X258364Y155214D01*
X258435Y155151D01*
X258502Y155086D01*
X258567Y155017D01*
X258629Y154946D01*
X258688Y154873D01*
X258744Y154797D01*
X258796Y154718D01*
X258845Y154638D01*
X258891Y154555D01*
X258933Y154471D01*
X258972Y154385D01*
X259007Y154297D01*
X259038Y154208D01*
X259066Y154118D01*
X259089Y154027D01*
X259109Y153935D01*
X259125Y153842D01*
X259137Y153748D01*
X259145Y153654D01*
X259149Y153560D01*
X259149Y153466D01*
X259145Y153372D01*
X259137Y153278D01*
X259125Y153184D01*
X259109Y153091D01*
X259089Y152999D01*
X259066Y152908D01*
X259038Y152818D01*
X259007Y152729D01*
X258972Y152641D01*
X258933Y152555D01*
X258891Y152471D01*
X258845Y152388D01*
X258796Y152308D01*
X258744Y152229D01*
X258688Y152153D01*
X258629Y152080D01*
X258567Y152009D01*
X258502Y151940D01*
X258435Y151875D01*
X258364Y151812D01*
X258291Y151752D01*
X258216Y151696D01*
X258138Y151642D01*
X258058Y151592D01*
X257976Y151546D01*
X257892Y151503D01*
X257807Y151463D01*
X257719Y151427D01*
X257631Y151395D01*
X257541Y151367D01*
X257450Y151342D01*
X257358Y151322D01*
X257265Y151305D01*
X257172Y151292D01*
X257078Y151283D01*
X256984Y151278D01*
X256889Y151277D01*
X256795Y151280D01*
X256701Y151287D01*
X256608Y151298D01*
X256514Y151313D01*
X256422Y151332D01*
X256330Y151354D01*
X256240Y151381D01*
X256151Y151411D01*
X256063Y151445D01*
X255976Y151483D01*
X255892Y151524D01*
X255809Y151569D01*
X255728Y151617D01*
X255649Y151669D01*
X255572Y151724D01*
X255498Y151782D01*
X255426Y151843D01*
X255357Y151907D01*
X255291Y151974D01*
X255227Y152044D01*
X255167Y152116D01*
X255110Y152191D01*
X255055Y152268D01*
X255005Y152348D01*
X254957Y152429D01*
X254913Y152513D01*
X254873Y152598D01*
X254836Y152685D01*
X254803Y152773D01*
X254774Y152863D01*
X254748Y152953D01*
X254727Y153045D01*
X254709Y153138D01*
X254695Y153231D01*
X254685Y153325D01*
X254679Y153419D01*
X254677Y153513D01*
X261713Y148713D02*
X261713Y203713D01*
X217713Y203713D01*
X217713Y148713D01*
X261713Y148713D01*
D11*
X7944Y190500D02*
X7959Y191727D01*
X8004Y192953D01*
X8079Y194178D01*
X8185Y195401D01*
X8320Y196621D01*
X8485Y197837D01*
X8680Y199048D01*
X8905Y200255D01*
X9159Y201455D01*
X9442Y202649D01*
X9755Y203836D01*
X10097Y205014D01*
X10468Y206184D01*
X10867Y207344D01*
X11294Y208495D01*
X11750Y209634D01*
X12234Y210762D01*
X12745Y211878D01*
X13283Y212981D01*
X13848Y214070D01*
X14440Y215145D01*
X15058Y216205D01*
X15701Y217250D01*
X16371Y218279D01*
X17065Y219290D01*
X17784Y220285D01*
X18527Y221262D01*
X19293Y222220D01*
X20084Y223159D01*
X20896Y224078D01*
X21732Y224977D01*
X22589Y225855D01*
X23467Y226712D01*
X24366Y227548D01*
X25285Y228360D01*
X26224Y229151D01*
X27182Y229917D01*
X28159Y230660D01*
X29154Y231379D01*
X30165Y232073D01*
X31194Y232743D01*
X32239Y233386D01*
X33299Y234004D01*
X34374Y234596D01*
X35463Y235161D01*
X36566Y235699D01*
X37682Y236210D01*
X38810Y236694D01*
X39949Y237150D01*
X41100Y237577D01*
X42260Y237976D01*
X43430Y238347D01*
X44608Y238689D01*
X45795Y239002D01*
X46989Y239285D01*
X48189Y239539D01*
X49396Y239764D01*
X50607Y239959D01*
X51823Y240124D01*
X53043Y240259D01*
X54266Y240365D01*
X55491Y240440D01*
X56717Y240485D01*
X57944Y240500D01*
X59171Y240485D01*
X60397Y240440D01*
X61622Y240365D01*
X62845Y240259D01*
X64065Y240124D01*
X65281Y239959D01*
X66492Y239764D01*
X67699Y239539D01*
X68899Y239285D01*
X70093Y239002D01*
X71280Y238689D01*
X72458Y238347D01*
X73628Y237976D01*
X74788Y237577D01*
X75939Y237150D01*
X77078Y236694D01*
X78206Y236210D01*
X79322Y235699D01*
X80425Y235161D01*
X81514Y234596D01*
X82589Y234004D01*
X83649Y233386D01*
X84694Y232743D01*
X85723Y232073D01*
X86734Y231379D01*
X87729Y230660D01*
X88706Y229917D01*
X89664Y229151D01*
X90603Y228360D01*
X91522Y227548D01*
X92421Y226712D01*
X93299Y225855D01*
X94156Y224977D01*
X94992Y224078D01*
X95804Y223159D01*
X96595Y222220D01*
X97361Y221262D01*
X98104Y220285D01*
X98823Y219290D01*
X99517Y218279D01*
X100187Y217250D01*
X100830Y216205D01*
X101448Y215145D01*
X102040Y214070D01*
X102605Y212981D01*
X103143Y211878D01*
X103654Y210762D01*
X104138Y209634D01*
X104594Y208495D01*
X105021Y207344D01*
X105420Y206184D01*
X105791Y205014D01*
X106133Y203836D01*
X106446Y202649D01*
X106729Y201455D01*
X106983Y200255D01*
X107208Y199048D01*
X107403Y197837D01*
X107568Y196621D01*
X107703Y195401D01*
X107809Y194178D01*
X107884Y192953D01*
X107929Y191727D01*
X107944Y190500D01*
X107929Y189273D01*
X107884Y188047D01*
X107809Y186822D01*
X107703Y185599D01*
X107568Y184379D01*
X107403Y183163D01*
X107208Y181952D01*
X106983Y180745D01*
X106729Y179545D01*
X106446Y178351D01*
X106133Y177164D01*
X105791Y175986D01*
X105420Y174816D01*
X105021Y173656D01*
X104594Y172505D01*
X104138Y171366D01*
X103654Y170238D01*
X103143Y169122D01*
X102605Y168019D01*
X102040Y166930D01*
X101448Y165855D01*
X100830Y164795D01*
X100187Y163750D01*
X99517Y162721D01*
X98823Y161710D01*
X98104Y160715D01*
X97361Y159738D01*
X96595Y158780D01*
X95804Y157841D01*
X94992Y156922D01*
X94156Y156023D01*
X93299Y155145D01*
X92421Y154288D01*
X91522Y153452D01*
X90603Y152640D01*
X89664Y151849D01*
X88706Y151083D01*
X87729Y150340D01*
X86734Y149621D01*
X85723Y148927D01*
X84694Y148257D01*
X83649Y147614D01*
X82589Y146996D01*
X81514Y146404D01*
X80425Y145839D01*
X79322Y145301D01*
X78206Y144790D01*
X77078Y144306D01*
X75939Y143850D01*
X74788Y143423D01*
X73628Y143024D01*
X72458Y142653D01*
X71280Y142311D01*
X70093Y141998D01*
X68899Y141715D01*
X67699Y141461D01*
X66492Y141236D01*
X65281Y141041D01*
X64065Y140876D01*
X62845Y140741D01*
X61622Y140635D01*
X60397Y140560D01*
X59171Y140515D01*
X57944Y140500D01*
X56717Y140515D01*
X55491Y140560D01*
X54266Y140635D01*
X53043Y140741D01*
X51823Y140876D01*
X50607Y141041D01*
X49396Y141236D01*
X48189Y141461D01*
X46989Y141715D01*
X45795Y141998D01*
X44608Y142311D01*
X43430Y142653D01*
X42260Y143024D01*
X41100Y143423D01*
X39949Y143850D01*
X38810Y144306D01*
X37682Y144790D01*
X36566Y145301D01*
X35463Y145839D01*
X34374Y146404D01*
X33299Y146996D01*
X32239Y147614D01*
X31194Y148257D01*
X30165Y148927D01*
X29154Y149621D01*
X28159Y150340D01*
X27182Y151083D01*
X26224Y151849D01*
X25285Y152640D01*
X24366Y153452D01*
X23467Y154288D01*
X22589Y155145D01*
X21732Y156023D01*
X20896Y156922D01*
X20084Y157841D01*
X19293Y158780D01*
X18527Y159738D01*
X17784Y160715D01*
X17065Y161710D01*
X16371Y162721D01*
X15701Y163750D01*
X15058Y164795D01*
X14440Y165855D01*
X13848Y166930D01*
X13283Y168019D01*
X12745Y169122D01*
X12234Y170238D01*
X11750Y171366D01*
X11294Y172505D01*
X10867Y173656D01*
X10468Y174816D01*
X10097Y175986D01*
X9755Y177164D01*
X9442Y178351D01*
X9159Y179545D01*
X8905Y180745D01*
X8680Y181952D01*
X8485Y183163D01*
X8320Y184379D01*
X8185Y185599D01*
X8079Y186822D01*
X8004Y188047D01*
X7959Y189273D01*
X7944Y190500D01*
X99270Y224325D02*
X99270Y231825D01*
X103020Y228075D02*
X95520Y228075D01*
D16*
X146363Y231600D02*
X320363Y231600D01*
X146363Y231600D02*
X146363Y289100D01*
X320363Y289100D01*
X320363Y231600D01*
D17*
X137363Y265600D02*
X137365Y265663D01*
X137371Y265725D01*
X137381Y265787D01*
X137394Y265849D01*
X137412Y265909D01*
X137433Y265968D01*
X137458Y266026D01*
X137487Y266082D01*
X137519Y266136D01*
X137554Y266188D01*
X137592Y266237D01*
X137634Y266285D01*
X137678Y266329D01*
X137726Y266371D01*
X137775Y266409D01*
X137827Y266444D01*
X137881Y266476D01*
X137937Y266505D01*
X137995Y266530D01*
X138054Y266551D01*
X138114Y266569D01*
X138176Y266582D01*
X138238Y266592D01*
X138300Y266598D01*
X138363Y266600D01*
X138426Y266598D01*
X138488Y266592D01*
X138550Y266582D01*
X138612Y266569D01*
X138672Y266551D01*
X138731Y266530D01*
X138789Y266505D01*
X138845Y266476D01*
X138899Y266444D01*
X138951Y266409D01*
X139000Y266371D01*
X139048Y266329D01*
X139092Y266285D01*
X139134Y266237D01*
X139172Y266188D01*
X139207Y266136D01*
X139239Y266082D01*
X139268Y266026D01*
X139293Y265968D01*
X139314Y265909D01*
X139332Y265849D01*
X139345Y265787D01*
X139355Y265725D01*
X139361Y265663D01*
X139363Y265600D01*
X139361Y265537D01*
X139355Y265475D01*
X139345Y265413D01*
X139332Y265351D01*
X139314Y265291D01*
X139293Y265232D01*
X139268Y265174D01*
X139239Y265118D01*
X139207Y265064D01*
X139172Y265012D01*
X139134Y264963D01*
X139092Y264915D01*
X139048Y264871D01*
X139000Y264829D01*
X138951Y264791D01*
X138899Y264756D01*
X138845Y264724D01*
X138789Y264695D01*
X138731Y264670D01*
X138672Y264649D01*
X138612Y264631D01*
X138550Y264618D01*
X138488Y264608D01*
X138426Y264602D01*
X138363Y264600D01*
X138300Y264602D01*
X138238Y264608D01*
X138176Y264618D01*
X138114Y264631D01*
X138054Y264649D01*
X137995Y264670D01*
X137937Y264695D01*
X137881Y264724D01*
X137827Y264756D01*
X137775Y264791D01*
X137726Y264829D01*
X137678Y264871D01*
X137634Y264915D01*
X137592Y264963D01*
X137554Y265012D01*
X137519Y265064D01*
X137487Y265118D01*
X137458Y265174D01*
X137433Y265232D01*
X137412Y265291D01*
X137394Y265351D01*
X137381Y265413D01*
X137371Y265475D01*
X137365Y265537D01*
X137363Y265600D01*
M02*
