G04 EAGLE Gerber RS-274X export*
G75*
%MOMM*%
%FSLAX34Y34*%
%LPD*%
%INSilkscreen Bottom*%
%IPPOS*%
%AMOC8*
5,1,8,0,0,1.08239X$1,22.5*%
G01*
G04 Define Apertures*
%ADD10C,0.203200*%
%ADD11C,0.127000*%
%ADD12C,0.152400*%
D10*
X301614Y276447D02*
X301614Y287115D01*
X298651Y287115D02*
X304578Y287115D01*
X294502Y276447D02*
X287390Y287115D01*
X294502Y287115D02*
X287390Y276447D01*
X253566Y282374D02*
X251788Y282374D01*
X251788Y276447D01*
X255344Y276447D01*
X255439Y276449D01*
X255535Y276455D01*
X255630Y276464D01*
X255724Y276478D01*
X255818Y276495D01*
X255911Y276516D01*
X256004Y276541D01*
X256095Y276569D01*
X256185Y276601D01*
X256273Y276637D01*
X256360Y276676D01*
X256446Y276719D01*
X256530Y276765D01*
X256611Y276814D01*
X256691Y276867D01*
X256768Y276923D01*
X256844Y276981D01*
X256916Y277043D01*
X256986Y277108D01*
X257054Y277176D01*
X257119Y277246D01*
X257181Y277318D01*
X257239Y277394D01*
X257295Y277471D01*
X257348Y277551D01*
X257397Y277633D01*
X257443Y277716D01*
X257486Y277802D01*
X257525Y277889D01*
X257561Y277977D01*
X257593Y278067D01*
X257621Y278158D01*
X257646Y278251D01*
X257667Y278344D01*
X257684Y278438D01*
X257698Y278532D01*
X257707Y278627D01*
X257713Y278723D01*
X257715Y278818D01*
X257715Y284745D01*
X257713Y284840D01*
X257707Y284936D01*
X257698Y285031D01*
X257684Y285125D01*
X257667Y285219D01*
X257646Y285312D01*
X257621Y285405D01*
X257593Y285496D01*
X257561Y285586D01*
X257525Y285674D01*
X257486Y285761D01*
X257443Y285847D01*
X257397Y285930D01*
X257348Y286012D01*
X257295Y286092D01*
X257239Y286169D01*
X257181Y286245D01*
X257119Y286317D01*
X257054Y286387D01*
X256986Y286455D01*
X256916Y286520D01*
X256844Y286582D01*
X256768Y286640D01*
X256691Y286696D01*
X256611Y286749D01*
X256530Y286798D01*
X256446Y286844D01*
X256360Y286887D01*
X256273Y286926D01*
X256185Y286962D01*
X256095Y286994D01*
X256004Y287022D01*
X255911Y287047D01*
X255818Y287068D01*
X255724Y287085D01*
X255630Y287099D01*
X255535Y287108D01*
X255440Y287114D01*
X255344Y287116D01*
X255344Y287115D02*
X251788Y287115D01*
X245523Y287115D02*
X245523Y276447D01*
X239596Y276447D02*
X245523Y287115D01*
X239596Y287115D02*
X239596Y276447D01*
X227124Y276447D02*
X227124Y287115D01*
X224161Y287115D01*
X224054Y287113D01*
X223947Y287107D01*
X223841Y287098D01*
X223735Y287084D01*
X223629Y287067D01*
X223524Y287046D01*
X223420Y287021D01*
X223317Y286992D01*
X223215Y286960D01*
X223114Y286924D01*
X223015Y286884D01*
X222917Y286841D01*
X222821Y286794D01*
X222726Y286744D01*
X222633Y286691D01*
X222543Y286634D01*
X222454Y286574D01*
X222368Y286511D01*
X222284Y286445D01*
X222202Y286375D01*
X222123Y286303D01*
X222047Y286228D01*
X221973Y286150D01*
X221903Y286070D01*
X221835Y285987D01*
X221770Y285902D01*
X221709Y285815D01*
X221650Y285725D01*
X221595Y285634D01*
X221543Y285540D01*
X221495Y285444D01*
X221450Y285347D01*
X221408Y285249D01*
X221371Y285149D01*
X221336Y285047D01*
X221306Y284945D01*
X221279Y284841D01*
X221256Y284737D01*
X221237Y284631D01*
X221222Y284525D01*
X221210Y284419D01*
X221202Y284312D01*
X221198Y284205D01*
X221198Y284099D01*
X221202Y283992D01*
X221210Y283885D01*
X221222Y283779D01*
X221237Y283673D01*
X221256Y283567D01*
X221279Y283463D01*
X221306Y283359D01*
X221336Y283257D01*
X221371Y283155D01*
X221408Y283055D01*
X221450Y282957D01*
X221495Y282860D01*
X221543Y282764D01*
X221595Y282671D01*
X221650Y282579D01*
X221709Y282489D01*
X221770Y282402D01*
X221835Y282317D01*
X221903Y282234D01*
X221973Y282154D01*
X222047Y282076D01*
X222123Y282001D01*
X222202Y281929D01*
X222284Y281859D01*
X222368Y281793D01*
X222454Y281730D01*
X222543Y281670D01*
X222633Y281613D01*
X222726Y281560D01*
X222821Y281510D01*
X222917Y281463D01*
X223015Y281420D01*
X223114Y281380D01*
X223215Y281344D01*
X223317Y281312D01*
X223420Y281283D01*
X223524Y281258D01*
X223629Y281237D01*
X223735Y281220D01*
X223841Y281206D01*
X223947Y281197D01*
X224054Y281191D01*
X224161Y281189D01*
X227124Y281189D01*
X223568Y281189D02*
X221198Y276447D01*
X216398Y276447D02*
X209286Y287115D01*
X216398Y287115D02*
X209286Y276447D01*
X179991Y276447D02*
X177028Y276447D01*
X177028Y276448D02*
X176921Y276450D01*
X176814Y276456D01*
X176708Y276465D01*
X176602Y276479D01*
X176496Y276496D01*
X176391Y276517D01*
X176287Y276542D01*
X176184Y276571D01*
X176082Y276603D01*
X175981Y276639D01*
X175882Y276679D01*
X175784Y276722D01*
X175688Y276769D01*
X175593Y276819D01*
X175500Y276872D01*
X175410Y276929D01*
X175321Y276989D01*
X175235Y277052D01*
X175151Y277118D01*
X175069Y277188D01*
X174990Y277260D01*
X174914Y277335D01*
X174840Y277413D01*
X174770Y277493D01*
X174702Y277576D01*
X174637Y277661D01*
X174576Y277748D01*
X174517Y277838D01*
X174462Y277930D01*
X174410Y278023D01*
X174362Y278119D01*
X174317Y278216D01*
X174275Y278314D01*
X174238Y278414D01*
X174203Y278516D01*
X174173Y278618D01*
X174146Y278722D01*
X174123Y278826D01*
X174104Y278932D01*
X174089Y279038D01*
X174077Y279144D01*
X174069Y279251D01*
X174065Y279358D01*
X174065Y279464D01*
X174069Y279571D01*
X174077Y279678D01*
X174089Y279784D01*
X174104Y279890D01*
X174123Y279996D01*
X174146Y280100D01*
X174173Y280204D01*
X174203Y280306D01*
X174238Y280408D01*
X174275Y280508D01*
X174317Y280606D01*
X174362Y280703D01*
X174410Y280799D01*
X174462Y280893D01*
X174517Y280984D01*
X174576Y281074D01*
X174637Y281161D01*
X174702Y281246D01*
X174770Y281329D01*
X174840Y281409D01*
X174914Y281487D01*
X174990Y281562D01*
X175069Y281634D01*
X175151Y281704D01*
X175235Y281770D01*
X175321Y281833D01*
X175410Y281893D01*
X175500Y281950D01*
X175593Y282003D01*
X175688Y282053D01*
X175784Y282100D01*
X175882Y282143D01*
X175981Y282183D01*
X176082Y282219D01*
X176184Y282251D01*
X176287Y282280D01*
X176391Y282305D01*
X176496Y282326D01*
X176602Y282343D01*
X176708Y282357D01*
X176814Y282366D01*
X176921Y282372D01*
X177028Y282374D01*
X176435Y287115D02*
X179991Y287115D01*
X176435Y287116D02*
X176338Y287114D01*
X176242Y287108D01*
X176146Y287098D01*
X176050Y287084D01*
X175955Y287067D01*
X175860Y287045D01*
X175767Y287020D01*
X175675Y286991D01*
X175584Y286958D01*
X175494Y286921D01*
X175406Y286881D01*
X175320Y286837D01*
X175236Y286790D01*
X175153Y286740D01*
X175073Y286686D01*
X174995Y286628D01*
X174919Y286568D01*
X174846Y286505D01*
X174776Y286439D01*
X174708Y286369D01*
X174643Y286298D01*
X174581Y286223D01*
X174523Y286146D01*
X174467Y286067D01*
X174415Y285986D01*
X174366Y285902D01*
X174320Y285817D01*
X174278Y285730D01*
X174240Y285641D01*
X174205Y285551D01*
X174174Y285459D01*
X174147Y285366D01*
X174123Y285273D01*
X174104Y285178D01*
X174088Y285082D01*
X174076Y284986D01*
X174068Y284890D01*
X174064Y284793D01*
X174064Y284697D01*
X174068Y284600D01*
X174076Y284504D01*
X174088Y284408D01*
X174104Y284312D01*
X174123Y284217D01*
X174147Y284124D01*
X174174Y284031D01*
X174205Y283939D01*
X174240Y283849D01*
X174278Y283760D01*
X174320Y283673D01*
X174366Y283588D01*
X174415Y283504D01*
X174467Y283423D01*
X174523Y283344D01*
X174581Y283267D01*
X174643Y283192D01*
X174708Y283121D01*
X174776Y283051D01*
X174846Y282985D01*
X174919Y282922D01*
X174995Y282862D01*
X175073Y282804D01*
X175153Y282750D01*
X175236Y282700D01*
X175320Y282653D01*
X175406Y282609D01*
X175494Y282569D01*
X175584Y282532D01*
X175675Y282499D01*
X175767Y282470D01*
X175860Y282445D01*
X175955Y282423D01*
X176050Y282406D01*
X176146Y282392D01*
X176242Y282382D01*
X176338Y282376D01*
X176435Y282374D01*
X178806Y282374D01*
X169154Y287115D02*
X165598Y276447D01*
X162042Y287115D01*
X138748Y138589D02*
X138748Y123349D01*
X123000Y118777D02*
X122867Y118779D01*
X122734Y118785D01*
X122602Y118794D01*
X122469Y118808D01*
X122337Y118825D01*
X122206Y118846D01*
X122075Y118871D01*
X121946Y118900D01*
X121817Y118933D01*
X121689Y118969D01*
X121562Y119009D01*
X121436Y119053D01*
X121312Y119100D01*
X121189Y119151D01*
X121068Y119205D01*
X120948Y119263D01*
X120830Y119325D01*
X120714Y119390D01*
X120600Y119458D01*
X120488Y119529D01*
X120378Y119604D01*
X120270Y119682D01*
X120164Y119763D01*
X120061Y119847D01*
X119961Y119934D01*
X119863Y120023D01*
X119767Y120116D01*
X119674Y120212D01*
X119585Y120310D01*
X119498Y120410D01*
X119414Y120513D01*
X119333Y120619D01*
X119255Y120727D01*
X119180Y120837D01*
X119109Y120949D01*
X119041Y121063D01*
X118976Y121179D01*
X118914Y121297D01*
X118856Y121417D01*
X118802Y121538D01*
X118751Y121661D01*
X118704Y121785D01*
X118660Y121911D01*
X118620Y122038D01*
X118584Y122166D01*
X118551Y122295D01*
X118522Y122424D01*
X118497Y122555D01*
X118476Y122686D01*
X118459Y122818D01*
X118445Y122951D01*
X118436Y123083D01*
X118430Y123216D01*
X118428Y123349D01*
X118428Y138589D02*
X118430Y138722D01*
X118436Y138855D01*
X118445Y138987D01*
X118459Y139120D01*
X118476Y139252D01*
X118497Y139383D01*
X118522Y139514D01*
X118551Y139643D01*
X118584Y139772D01*
X118620Y139900D01*
X118660Y140027D01*
X118704Y140153D01*
X118751Y140277D01*
X118802Y140400D01*
X118856Y140521D01*
X118914Y140641D01*
X118976Y140759D01*
X119041Y140875D01*
X119109Y140989D01*
X119180Y141101D01*
X119255Y141211D01*
X119333Y141319D01*
X119414Y141425D01*
X119498Y141528D01*
X119585Y141628D01*
X119674Y141726D01*
X119767Y141822D01*
X119863Y141915D01*
X119961Y142004D01*
X120061Y142091D01*
X120164Y142175D01*
X120270Y142256D01*
X120378Y142334D01*
X120488Y142409D01*
X120600Y142480D01*
X120714Y142548D01*
X120830Y142613D01*
X120948Y142675D01*
X121068Y142733D01*
X121189Y142787D01*
X121312Y142838D01*
X121436Y142885D01*
X121562Y142929D01*
X121689Y142969D01*
X121817Y143005D01*
X121946Y143038D01*
X122075Y143067D01*
X122206Y143092D01*
X122337Y143113D01*
X122469Y143130D01*
X122602Y143144D01*
X122734Y143153D01*
X122867Y143159D01*
X123000Y143161D01*
X134176Y143161D02*
X134309Y143159D01*
X134442Y143153D01*
X134574Y143144D01*
X134707Y143130D01*
X134839Y143113D01*
X134970Y143092D01*
X135101Y143067D01*
X135230Y143038D01*
X135359Y143005D01*
X135487Y142969D01*
X135614Y142929D01*
X135740Y142885D01*
X135864Y142838D01*
X135987Y142787D01*
X136108Y142733D01*
X136228Y142675D01*
X136346Y142613D01*
X136462Y142548D01*
X136576Y142480D01*
X136688Y142409D01*
X136798Y142334D01*
X136906Y142256D01*
X137012Y142175D01*
X137115Y142091D01*
X137215Y142004D01*
X137313Y141915D01*
X137409Y141822D01*
X137502Y141726D01*
X137591Y141628D01*
X137678Y141528D01*
X137762Y141425D01*
X137843Y141319D01*
X137921Y141211D01*
X137996Y141101D01*
X138067Y140989D01*
X138135Y140875D01*
X138200Y140759D01*
X138262Y140641D01*
X138320Y140521D01*
X138374Y140400D01*
X138425Y140277D01*
X138472Y140153D01*
X138516Y140027D01*
X138556Y139900D01*
X138592Y139772D01*
X138625Y139643D01*
X138654Y139514D01*
X138679Y139383D01*
X138700Y139252D01*
X138717Y139120D01*
X138731Y138987D01*
X138740Y138855D01*
X138746Y138722D01*
X138748Y138589D01*
X138748Y123349D02*
X138746Y123216D01*
X138740Y123083D01*
X138731Y122951D01*
X138717Y122818D01*
X138700Y122686D01*
X138679Y122555D01*
X138654Y122424D01*
X138625Y122295D01*
X138592Y122166D01*
X138556Y122038D01*
X138516Y121911D01*
X138472Y121785D01*
X138425Y121661D01*
X138374Y121538D01*
X138320Y121417D01*
X138262Y121297D01*
X138200Y121179D01*
X138135Y121063D01*
X138067Y120949D01*
X137996Y120837D01*
X137921Y120727D01*
X137843Y120619D01*
X137762Y120513D01*
X137678Y120410D01*
X137591Y120310D01*
X137502Y120212D01*
X137409Y120116D01*
X137313Y120023D01*
X137215Y119934D01*
X137115Y119847D01*
X137012Y119763D01*
X136906Y119682D01*
X136798Y119604D01*
X136688Y119529D01*
X136576Y119458D01*
X136462Y119390D01*
X136346Y119325D01*
X136228Y119263D01*
X136108Y119205D01*
X135987Y119151D01*
X135864Y119100D01*
X135740Y119053D01*
X135614Y119009D01*
X135487Y118969D01*
X135359Y118933D01*
X135230Y118900D01*
X135101Y118871D01*
X134970Y118846D01*
X134839Y118825D01*
X134707Y118808D01*
X134574Y118794D01*
X134442Y118785D01*
X134309Y118779D01*
X134176Y118777D01*
X123000Y118777D01*
X123000Y143161D02*
X134176Y143161D01*
X118428Y138589D02*
X118428Y123349D01*
D11*
X135200Y143828D02*
X135200Y148654D01*
X133859Y148654D01*
X133788Y148652D01*
X133716Y148646D01*
X133646Y148637D01*
X133576Y148624D01*
X133506Y148607D01*
X133438Y148586D01*
X133371Y148562D01*
X133305Y148534D01*
X133241Y148503D01*
X133178Y148468D01*
X133118Y148430D01*
X133059Y148389D01*
X133003Y148345D01*
X132949Y148298D01*
X132898Y148249D01*
X132850Y148196D01*
X132804Y148141D01*
X132762Y148084D01*
X132722Y148024D01*
X132686Y147963D01*
X132653Y147899D01*
X132624Y147834D01*
X132598Y147768D01*
X132575Y147700D01*
X132556Y147631D01*
X132541Y147561D01*
X132530Y147491D01*
X132522Y147420D01*
X132518Y147349D01*
X132518Y147277D01*
X132522Y147206D01*
X132530Y147135D01*
X132541Y147065D01*
X132556Y146995D01*
X132575Y146926D01*
X132598Y146858D01*
X132624Y146792D01*
X132653Y146727D01*
X132686Y146663D01*
X132722Y146602D01*
X132762Y146542D01*
X132804Y146485D01*
X132850Y146430D01*
X132898Y146377D01*
X132949Y146328D01*
X133003Y146281D01*
X133059Y146237D01*
X133118Y146196D01*
X133178Y146158D01*
X133241Y146123D01*
X133305Y146092D01*
X133371Y146064D01*
X133438Y146040D01*
X133506Y146019D01*
X133576Y146002D01*
X133646Y145989D01*
X133716Y145980D01*
X133788Y145974D01*
X133859Y145972D01*
X135200Y145972D01*
X133591Y145972D02*
X132519Y143828D01*
X128351Y143828D02*
X128286Y143830D01*
X128222Y143836D01*
X128158Y143846D01*
X128094Y143859D01*
X128032Y143877D01*
X127971Y143898D01*
X127911Y143922D01*
X127853Y143951D01*
X127796Y143983D01*
X127742Y144018D01*
X127690Y144056D01*
X127640Y144098D01*
X127593Y144142D01*
X127549Y144189D01*
X127507Y144239D01*
X127469Y144291D01*
X127434Y144345D01*
X127402Y144402D01*
X127373Y144460D01*
X127349Y144520D01*
X127328Y144581D01*
X127310Y144643D01*
X127297Y144707D01*
X127287Y144771D01*
X127281Y144835D01*
X127279Y144900D01*
X128351Y143827D02*
X128445Y143829D01*
X128539Y143835D01*
X128633Y143845D01*
X128726Y143858D01*
X128818Y143876D01*
X128910Y143897D01*
X129001Y143922D01*
X129091Y143951D01*
X129179Y143984D01*
X129266Y144020D01*
X129351Y144060D01*
X129435Y144103D01*
X129516Y144150D01*
X129596Y144200D01*
X129674Y144253D01*
X129749Y144310D01*
X129822Y144369D01*
X129892Y144432D01*
X129960Y144497D01*
X129825Y147581D02*
X129823Y147646D01*
X129817Y147710D01*
X129807Y147774D01*
X129794Y147838D01*
X129776Y147900D01*
X129755Y147961D01*
X129731Y148021D01*
X129702Y148079D01*
X129670Y148136D01*
X129635Y148190D01*
X129597Y148242D01*
X129555Y148292D01*
X129511Y148339D01*
X129464Y148383D01*
X129414Y148425D01*
X129362Y148463D01*
X129308Y148498D01*
X129251Y148530D01*
X129193Y148559D01*
X129133Y148583D01*
X129072Y148604D01*
X129010Y148622D01*
X128946Y148635D01*
X128882Y148645D01*
X128818Y148651D01*
X128753Y148653D01*
X128753Y148654D02*
X128667Y148652D01*
X128581Y148647D01*
X128495Y148637D01*
X128410Y148624D01*
X128325Y148608D01*
X128241Y148588D01*
X128158Y148564D01*
X128076Y148537D01*
X127996Y148506D01*
X127916Y148472D01*
X127839Y148434D01*
X127763Y148393D01*
X127689Y148349D01*
X127616Y148302D01*
X127546Y148252D01*
X129290Y146643D02*
X129343Y146676D01*
X129394Y146713D01*
X129443Y146752D01*
X129490Y146794D01*
X129534Y146839D01*
X129575Y146886D01*
X129614Y146935D01*
X129650Y146987D01*
X129683Y147041D01*
X129712Y147096D01*
X129738Y147153D01*
X129761Y147212D01*
X129781Y147271D01*
X129797Y147332D01*
X129810Y147393D01*
X129819Y147456D01*
X129824Y147518D01*
X129826Y147581D01*
X127815Y145838D02*
X127762Y145805D01*
X127711Y145768D01*
X127662Y145729D01*
X127615Y145687D01*
X127571Y145642D01*
X127530Y145595D01*
X127491Y145546D01*
X127455Y145494D01*
X127422Y145440D01*
X127393Y145385D01*
X127367Y145328D01*
X127344Y145269D01*
X127324Y145210D01*
X127308Y145149D01*
X127295Y145088D01*
X127286Y145025D01*
X127281Y144963D01*
X127279Y144900D01*
X127815Y145838D02*
X129290Y146643D01*
X123182Y148654D02*
X123114Y148652D01*
X123047Y148646D01*
X122980Y148637D01*
X122913Y148624D01*
X122848Y148607D01*
X122783Y148586D01*
X122720Y148562D01*
X122658Y148534D01*
X122598Y148503D01*
X122540Y148469D01*
X122484Y148431D01*
X122429Y148391D01*
X122378Y148347D01*
X122329Y148300D01*
X122282Y148251D01*
X122238Y148200D01*
X122198Y148145D01*
X122160Y148089D01*
X122126Y148031D01*
X122095Y147971D01*
X122067Y147909D01*
X122043Y147846D01*
X122022Y147781D01*
X122005Y147716D01*
X121992Y147649D01*
X121983Y147582D01*
X121977Y147515D01*
X121975Y147447D01*
X123182Y148654D02*
X123260Y148652D01*
X123338Y148646D01*
X123415Y148636D01*
X123492Y148623D01*
X123568Y148605D01*
X123643Y148584D01*
X123717Y148559D01*
X123789Y148530D01*
X123860Y148498D01*
X123929Y148462D01*
X123997Y148423D01*
X124062Y148380D01*
X124125Y148334D01*
X124186Y148285D01*
X124244Y148233D01*
X124299Y148178D01*
X124352Y148121D01*
X124401Y148061D01*
X124448Y147998D01*
X124491Y147933D01*
X124531Y147867D01*
X124568Y147798D01*
X124601Y147727D01*
X124631Y147655D01*
X124657Y147581D01*
X122377Y146509D02*
X122328Y146558D01*
X122281Y146610D01*
X122238Y146665D01*
X122197Y146722D01*
X122159Y146781D01*
X122125Y146842D01*
X122094Y146905D01*
X122066Y146969D01*
X122042Y147035D01*
X122022Y147101D01*
X122005Y147169D01*
X121992Y147238D01*
X121983Y147307D01*
X121977Y147377D01*
X121975Y147447D01*
X122377Y146509D02*
X124656Y143828D01*
X121975Y143828D01*
D10*
X183198Y138589D02*
X183198Y123349D01*
X167450Y118777D02*
X167317Y118779D01*
X167184Y118785D01*
X167052Y118794D01*
X166919Y118808D01*
X166787Y118825D01*
X166656Y118846D01*
X166525Y118871D01*
X166396Y118900D01*
X166267Y118933D01*
X166139Y118969D01*
X166012Y119009D01*
X165886Y119053D01*
X165762Y119100D01*
X165639Y119151D01*
X165518Y119205D01*
X165398Y119263D01*
X165280Y119325D01*
X165164Y119390D01*
X165050Y119458D01*
X164938Y119529D01*
X164828Y119604D01*
X164720Y119682D01*
X164614Y119763D01*
X164511Y119847D01*
X164411Y119934D01*
X164313Y120023D01*
X164217Y120116D01*
X164124Y120212D01*
X164035Y120310D01*
X163948Y120410D01*
X163864Y120513D01*
X163783Y120619D01*
X163705Y120727D01*
X163630Y120837D01*
X163559Y120949D01*
X163491Y121063D01*
X163426Y121179D01*
X163364Y121297D01*
X163306Y121417D01*
X163252Y121538D01*
X163201Y121661D01*
X163154Y121785D01*
X163110Y121911D01*
X163070Y122038D01*
X163034Y122166D01*
X163001Y122295D01*
X162972Y122424D01*
X162947Y122555D01*
X162926Y122686D01*
X162909Y122818D01*
X162895Y122951D01*
X162886Y123083D01*
X162880Y123216D01*
X162878Y123349D01*
X162878Y138589D02*
X162880Y138722D01*
X162886Y138855D01*
X162895Y138987D01*
X162909Y139120D01*
X162926Y139252D01*
X162947Y139383D01*
X162972Y139514D01*
X163001Y139643D01*
X163034Y139772D01*
X163070Y139900D01*
X163110Y140027D01*
X163154Y140153D01*
X163201Y140277D01*
X163252Y140400D01*
X163306Y140521D01*
X163364Y140641D01*
X163426Y140759D01*
X163491Y140875D01*
X163559Y140989D01*
X163630Y141101D01*
X163705Y141211D01*
X163783Y141319D01*
X163864Y141425D01*
X163948Y141528D01*
X164035Y141628D01*
X164124Y141726D01*
X164217Y141822D01*
X164313Y141915D01*
X164411Y142004D01*
X164511Y142091D01*
X164614Y142175D01*
X164720Y142256D01*
X164828Y142334D01*
X164938Y142409D01*
X165050Y142480D01*
X165164Y142548D01*
X165280Y142613D01*
X165398Y142675D01*
X165518Y142733D01*
X165639Y142787D01*
X165762Y142838D01*
X165886Y142885D01*
X166012Y142929D01*
X166139Y142969D01*
X166267Y143005D01*
X166396Y143038D01*
X166525Y143067D01*
X166656Y143092D01*
X166787Y143113D01*
X166919Y143130D01*
X167052Y143144D01*
X167184Y143153D01*
X167317Y143159D01*
X167450Y143161D01*
X178626Y143161D02*
X178759Y143159D01*
X178892Y143153D01*
X179024Y143144D01*
X179157Y143130D01*
X179289Y143113D01*
X179420Y143092D01*
X179551Y143067D01*
X179680Y143038D01*
X179809Y143005D01*
X179937Y142969D01*
X180064Y142929D01*
X180190Y142885D01*
X180314Y142838D01*
X180437Y142787D01*
X180558Y142733D01*
X180678Y142675D01*
X180796Y142613D01*
X180912Y142548D01*
X181026Y142480D01*
X181138Y142409D01*
X181248Y142334D01*
X181356Y142256D01*
X181462Y142175D01*
X181565Y142091D01*
X181665Y142004D01*
X181763Y141915D01*
X181859Y141822D01*
X181952Y141726D01*
X182041Y141628D01*
X182128Y141528D01*
X182212Y141425D01*
X182293Y141319D01*
X182371Y141211D01*
X182446Y141101D01*
X182517Y140989D01*
X182585Y140875D01*
X182650Y140759D01*
X182712Y140641D01*
X182770Y140521D01*
X182824Y140400D01*
X182875Y140277D01*
X182922Y140153D01*
X182966Y140027D01*
X183006Y139900D01*
X183042Y139772D01*
X183075Y139643D01*
X183104Y139514D01*
X183129Y139383D01*
X183150Y139252D01*
X183167Y139120D01*
X183181Y138987D01*
X183190Y138855D01*
X183196Y138722D01*
X183198Y138589D01*
X183198Y123349D02*
X183196Y123216D01*
X183190Y123083D01*
X183181Y122951D01*
X183167Y122818D01*
X183150Y122686D01*
X183129Y122555D01*
X183104Y122424D01*
X183075Y122295D01*
X183042Y122166D01*
X183006Y122038D01*
X182966Y121911D01*
X182922Y121785D01*
X182875Y121661D01*
X182824Y121538D01*
X182770Y121417D01*
X182712Y121297D01*
X182650Y121179D01*
X182585Y121063D01*
X182517Y120949D01*
X182446Y120837D01*
X182371Y120727D01*
X182293Y120619D01*
X182212Y120513D01*
X182128Y120410D01*
X182041Y120310D01*
X181952Y120212D01*
X181859Y120116D01*
X181763Y120023D01*
X181665Y119934D01*
X181565Y119847D01*
X181462Y119763D01*
X181356Y119682D01*
X181248Y119604D01*
X181138Y119529D01*
X181026Y119458D01*
X180912Y119390D01*
X180796Y119325D01*
X180678Y119263D01*
X180558Y119205D01*
X180437Y119151D01*
X180314Y119100D01*
X180190Y119053D01*
X180064Y119009D01*
X179937Y118969D01*
X179809Y118933D01*
X179680Y118900D01*
X179551Y118871D01*
X179420Y118846D01*
X179289Y118825D01*
X179157Y118808D01*
X179024Y118794D01*
X178892Y118785D01*
X178759Y118779D01*
X178626Y118777D01*
X167450Y118777D01*
X167450Y143161D02*
X178626Y143161D01*
X162878Y138589D02*
X162878Y123349D01*
D11*
X182226Y143828D02*
X182226Y148654D01*
X180885Y148654D01*
X180814Y148652D01*
X180742Y148646D01*
X180672Y148637D01*
X180602Y148624D01*
X180532Y148607D01*
X180464Y148586D01*
X180397Y148562D01*
X180331Y148534D01*
X180267Y148503D01*
X180204Y148468D01*
X180144Y148430D01*
X180085Y148389D01*
X180029Y148345D01*
X179975Y148298D01*
X179924Y148249D01*
X179876Y148196D01*
X179830Y148141D01*
X179788Y148084D01*
X179748Y148024D01*
X179712Y147963D01*
X179679Y147899D01*
X179650Y147834D01*
X179624Y147768D01*
X179601Y147700D01*
X179582Y147631D01*
X179567Y147561D01*
X179556Y147491D01*
X179548Y147420D01*
X179544Y147349D01*
X179544Y147277D01*
X179548Y147206D01*
X179556Y147135D01*
X179567Y147065D01*
X179582Y146995D01*
X179601Y146926D01*
X179624Y146858D01*
X179650Y146792D01*
X179679Y146727D01*
X179712Y146663D01*
X179748Y146602D01*
X179788Y146542D01*
X179830Y146485D01*
X179876Y146430D01*
X179924Y146377D01*
X179975Y146328D01*
X180029Y146281D01*
X180085Y146237D01*
X180144Y146196D01*
X180204Y146158D01*
X180267Y146123D01*
X180331Y146092D01*
X180397Y146064D01*
X180464Y146040D01*
X180532Y146019D01*
X180602Y146002D01*
X180672Y145989D01*
X180742Y145980D01*
X180814Y145974D01*
X180885Y145972D01*
X182226Y145972D01*
X180617Y145972D02*
X179545Y143828D01*
X175378Y143828D02*
X175313Y143830D01*
X175249Y143836D01*
X175185Y143846D01*
X175121Y143859D01*
X175059Y143877D01*
X174998Y143898D01*
X174938Y143922D01*
X174880Y143951D01*
X174823Y143983D01*
X174769Y144018D01*
X174717Y144056D01*
X174667Y144098D01*
X174620Y144142D01*
X174576Y144189D01*
X174534Y144239D01*
X174496Y144291D01*
X174461Y144345D01*
X174429Y144402D01*
X174400Y144460D01*
X174376Y144520D01*
X174355Y144581D01*
X174337Y144643D01*
X174324Y144707D01*
X174314Y144771D01*
X174308Y144835D01*
X174306Y144900D01*
X175378Y143827D02*
X175472Y143829D01*
X175566Y143835D01*
X175660Y143845D01*
X175753Y143858D01*
X175845Y143876D01*
X175937Y143897D01*
X176028Y143922D01*
X176118Y143951D01*
X176206Y143984D01*
X176293Y144020D01*
X176378Y144060D01*
X176462Y144103D01*
X176543Y144150D01*
X176623Y144200D01*
X176701Y144253D01*
X176776Y144310D01*
X176849Y144369D01*
X176919Y144432D01*
X176987Y144497D01*
X176852Y147581D02*
X176850Y147646D01*
X176844Y147710D01*
X176834Y147774D01*
X176821Y147838D01*
X176803Y147900D01*
X176782Y147961D01*
X176758Y148021D01*
X176729Y148079D01*
X176697Y148136D01*
X176662Y148190D01*
X176624Y148242D01*
X176582Y148292D01*
X176538Y148339D01*
X176491Y148383D01*
X176441Y148425D01*
X176389Y148463D01*
X176335Y148498D01*
X176278Y148530D01*
X176220Y148559D01*
X176160Y148583D01*
X176099Y148604D01*
X176037Y148622D01*
X175973Y148635D01*
X175909Y148645D01*
X175845Y148651D01*
X175780Y148653D01*
X175780Y148654D02*
X175694Y148652D01*
X175608Y148647D01*
X175522Y148637D01*
X175437Y148624D01*
X175352Y148608D01*
X175268Y148588D01*
X175185Y148564D01*
X175103Y148537D01*
X175023Y148506D01*
X174943Y148472D01*
X174866Y148434D01*
X174790Y148393D01*
X174716Y148349D01*
X174643Y148302D01*
X174573Y148252D01*
X176316Y146643D02*
X176369Y146676D01*
X176420Y146713D01*
X176469Y146752D01*
X176516Y146794D01*
X176560Y146839D01*
X176601Y146886D01*
X176640Y146935D01*
X176676Y146987D01*
X176709Y147041D01*
X176738Y147096D01*
X176764Y147153D01*
X176787Y147212D01*
X176807Y147271D01*
X176823Y147332D01*
X176836Y147393D01*
X176845Y147456D01*
X176850Y147518D01*
X176852Y147581D01*
X174841Y145838D02*
X174788Y145805D01*
X174737Y145768D01*
X174688Y145729D01*
X174641Y145687D01*
X174597Y145642D01*
X174556Y145595D01*
X174517Y145546D01*
X174481Y145494D01*
X174448Y145440D01*
X174419Y145385D01*
X174393Y145328D01*
X174370Y145269D01*
X174350Y145210D01*
X174334Y145149D01*
X174321Y145088D01*
X174312Y145025D01*
X174307Y144963D01*
X174305Y144900D01*
X174841Y145838D02*
X176316Y146643D01*
X171683Y143828D02*
X170342Y143828D01*
X170342Y143827D02*
X170271Y143829D01*
X170199Y143835D01*
X170129Y143844D01*
X170059Y143857D01*
X169989Y143874D01*
X169921Y143895D01*
X169854Y143919D01*
X169788Y143947D01*
X169724Y143978D01*
X169661Y144013D01*
X169601Y144051D01*
X169542Y144092D01*
X169486Y144136D01*
X169432Y144183D01*
X169381Y144232D01*
X169333Y144285D01*
X169287Y144340D01*
X169245Y144397D01*
X169205Y144457D01*
X169169Y144518D01*
X169136Y144582D01*
X169107Y144647D01*
X169081Y144713D01*
X169058Y144781D01*
X169039Y144850D01*
X169024Y144920D01*
X169013Y144990D01*
X169005Y145061D01*
X169001Y145132D01*
X169001Y145204D01*
X169005Y145275D01*
X169013Y145346D01*
X169024Y145416D01*
X169039Y145486D01*
X169058Y145555D01*
X169081Y145623D01*
X169107Y145689D01*
X169136Y145754D01*
X169169Y145818D01*
X169205Y145879D01*
X169245Y145939D01*
X169287Y145996D01*
X169333Y146051D01*
X169381Y146104D01*
X169432Y146153D01*
X169486Y146200D01*
X169542Y146244D01*
X169601Y146285D01*
X169661Y146323D01*
X169724Y146358D01*
X169788Y146389D01*
X169854Y146417D01*
X169921Y146441D01*
X169989Y146462D01*
X170059Y146479D01*
X170129Y146492D01*
X170199Y146501D01*
X170271Y146507D01*
X170342Y146509D01*
X170074Y148654D02*
X171683Y148654D01*
X170074Y148653D02*
X170009Y148651D01*
X169945Y148645D01*
X169881Y148635D01*
X169817Y148622D01*
X169755Y148604D01*
X169694Y148583D01*
X169634Y148559D01*
X169576Y148530D01*
X169519Y148498D01*
X169465Y148463D01*
X169413Y148425D01*
X169363Y148383D01*
X169316Y148339D01*
X169272Y148292D01*
X169230Y148242D01*
X169192Y148190D01*
X169157Y148136D01*
X169125Y148079D01*
X169096Y148021D01*
X169072Y147961D01*
X169051Y147900D01*
X169033Y147838D01*
X169020Y147774D01*
X169010Y147710D01*
X169004Y147646D01*
X169002Y147581D01*
X169004Y147516D01*
X169010Y147452D01*
X169020Y147388D01*
X169033Y147324D01*
X169051Y147262D01*
X169072Y147201D01*
X169096Y147141D01*
X169125Y147083D01*
X169157Y147026D01*
X169192Y146972D01*
X169230Y146920D01*
X169272Y146870D01*
X169316Y146823D01*
X169363Y146779D01*
X169413Y146737D01*
X169465Y146699D01*
X169519Y146664D01*
X169576Y146632D01*
X169634Y146603D01*
X169694Y146579D01*
X169755Y146558D01*
X169817Y146540D01*
X169881Y146527D01*
X169945Y146517D01*
X170009Y146511D01*
X170074Y146509D01*
X171146Y146509D01*
X165994Y148654D02*
X165994Y143828D01*
X163849Y143828D01*
D12*
X160973Y139605D02*
X160973Y122333D01*
X143193Y119793D02*
X143093Y119795D01*
X142994Y119801D01*
X142894Y119811D01*
X142796Y119824D01*
X142697Y119842D01*
X142600Y119863D01*
X142504Y119888D01*
X142408Y119917D01*
X142314Y119950D01*
X142221Y119986D01*
X142130Y120026D01*
X142040Y120070D01*
X141952Y120117D01*
X141866Y120167D01*
X141782Y120221D01*
X141700Y120278D01*
X141621Y120338D01*
X141543Y120402D01*
X141469Y120468D01*
X141397Y120537D01*
X141328Y120609D01*
X141262Y120683D01*
X141198Y120761D01*
X141138Y120840D01*
X141081Y120922D01*
X141027Y121006D01*
X140977Y121092D01*
X140930Y121180D01*
X140886Y121270D01*
X140846Y121361D01*
X140810Y121454D01*
X140777Y121548D01*
X140748Y121644D01*
X140723Y121740D01*
X140702Y121837D01*
X140684Y121936D01*
X140671Y122034D01*
X140661Y122134D01*
X140655Y122233D01*
X140653Y122333D01*
X140653Y139605D02*
X140655Y139705D01*
X140661Y139804D01*
X140671Y139904D01*
X140684Y140002D01*
X140702Y140101D01*
X140723Y140198D01*
X140748Y140294D01*
X140777Y140390D01*
X140810Y140484D01*
X140846Y140577D01*
X140886Y140668D01*
X140930Y140758D01*
X140977Y140846D01*
X141027Y140932D01*
X141081Y141016D01*
X141138Y141098D01*
X141198Y141177D01*
X141262Y141255D01*
X141328Y141329D01*
X141397Y141401D01*
X141469Y141470D01*
X141543Y141536D01*
X141621Y141600D01*
X141700Y141660D01*
X141782Y141717D01*
X141866Y141771D01*
X141952Y141821D01*
X142040Y141868D01*
X142130Y141912D01*
X142221Y141952D01*
X142314Y141988D01*
X142408Y142021D01*
X142504Y142050D01*
X142600Y142075D01*
X142697Y142096D01*
X142796Y142114D01*
X142894Y142127D01*
X142994Y142137D01*
X143093Y142143D01*
X143193Y142145D01*
X158433Y142145D02*
X158533Y142143D01*
X158632Y142137D01*
X158732Y142127D01*
X158830Y142114D01*
X158929Y142096D01*
X159026Y142075D01*
X159122Y142050D01*
X159218Y142021D01*
X159312Y141988D01*
X159405Y141952D01*
X159496Y141912D01*
X159586Y141868D01*
X159674Y141821D01*
X159760Y141771D01*
X159844Y141717D01*
X159926Y141660D01*
X160005Y141600D01*
X160083Y141536D01*
X160157Y141470D01*
X160229Y141401D01*
X160298Y141329D01*
X160364Y141255D01*
X160428Y141177D01*
X160488Y141098D01*
X160545Y141016D01*
X160599Y140932D01*
X160649Y140846D01*
X160696Y140758D01*
X160740Y140668D01*
X160780Y140577D01*
X160816Y140484D01*
X160849Y140390D01*
X160878Y140294D01*
X160903Y140198D01*
X160924Y140101D01*
X160942Y140002D01*
X160955Y139904D01*
X160965Y139804D01*
X160971Y139705D01*
X160973Y139605D01*
X160973Y122333D02*
X160971Y122233D01*
X160965Y122134D01*
X160955Y122034D01*
X160942Y121936D01*
X160924Y121837D01*
X160903Y121740D01*
X160878Y121644D01*
X160849Y121548D01*
X160816Y121454D01*
X160780Y121361D01*
X160740Y121270D01*
X160696Y121180D01*
X160649Y121092D01*
X160599Y121006D01*
X160545Y120922D01*
X160488Y120840D01*
X160428Y120761D01*
X160364Y120683D01*
X160298Y120609D01*
X160229Y120537D01*
X160157Y120468D01*
X160083Y120402D01*
X160005Y120338D01*
X159926Y120278D01*
X159844Y120221D01*
X159760Y120167D01*
X159674Y120117D01*
X159586Y120070D01*
X159496Y120026D01*
X159405Y119986D01*
X159312Y119950D01*
X159218Y119917D01*
X159122Y119888D01*
X159026Y119863D01*
X158929Y119842D01*
X158830Y119824D01*
X158732Y119811D01*
X158632Y119801D01*
X158533Y119795D01*
X158433Y119793D01*
X143193Y119793D01*
X143193Y142145D02*
X158433Y142145D01*
X140653Y139605D02*
X140653Y122333D01*
D11*
X160291Y143828D02*
X160291Y148654D01*
X158951Y148654D01*
X158880Y148652D01*
X158808Y148646D01*
X158738Y148637D01*
X158668Y148624D01*
X158598Y148607D01*
X158530Y148586D01*
X158463Y148562D01*
X158397Y148534D01*
X158333Y148503D01*
X158270Y148468D01*
X158210Y148430D01*
X158151Y148389D01*
X158095Y148345D01*
X158041Y148298D01*
X157990Y148249D01*
X157942Y148196D01*
X157896Y148141D01*
X157854Y148084D01*
X157814Y148024D01*
X157778Y147963D01*
X157745Y147899D01*
X157716Y147834D01*
X157690Y147768D01*
X157667Y147700D01*
X157648Y147631D01*
X157633Y147561D01*
X157622Y147491D01*
X157614Y147420D01*
X157610Y147349D01*
X157610Y147277D01*
X157614Y147206D01*
X157622Y147135D01*
X157633Y147065D01*
X157648Y146995D01*
X157667Y146926D01*
X157690Y146858D01*
X157716Y146792D01*
X157745Y146727D01*
X157778Y146663D01*
X157814Y146602D01*
X157854Y146542D01*
X157896Y146485D01*
X157942Y146430D01*
X157990Y146377D01*
X158041Y146328D01*
X158095Y146281D01*
X158151Y146237D01*
X158210Y146196D01*
X158270Y146158D01*
X158333Y146123D01*
X158397Y146092D01*
X158463Y146064D01*
X158530Y146040D01*
X158598Y146019D01*
X158668Y146002D01*
X158738Y145989D01*
X158808Y145980D01*
X158880Y145974D01*
X158951Y145972D01*
X160291Y145972D01*
X158682Y145972D02*
X157610Y143828D01*
X153443Y143828D02*
X153378Y143830D01*
X153314Y143836D01*
X153250Y143846D01*
X153186Y143859D01*
X153124Y143877D01*
X153063Y143898D01*
X153003Y143922D01*
X152945Y143951D01*
X152888Y143983D01*
X152834Y144018D01*
X152782Y144056D01*
X152732Y144098D01*
X152685Y144142D01*
X152641Y144189D01*
X152599Y144239D01*
X152561Y144291D01*
X152526Y144345D01*
X152494Y144402D01*
X152465Y144460D01*
X152441Y144520D01*
X152420Y144581D01*
X152402Y144643D01*
X152389Y144707D01*
X152379Y144771D01*
X152373Y144835D01*
X152371Y144900D01*
X153443Y143827D02*
X153537Y143829D01*
X153631Y143835D01*
X153725Y143845D01*
X153818Y143858D01*
X153910Y143876D01*
X154002Y143897D01*
X154093Y143922D01*
X154183Y143951D01*
X154271Y143984D01*
X154358Y144020D01*
X154443Y144060D01*
X154527Y144103D01*
X154608Y144150D01*
X154688Y144200D01*
X154766Y144253D01*
X154841Y144310D01*
X154914Y144369D01*
X154984Y144432D01*
X155052Y144497D01*
X154917Y147581D02*
X154915Y147646D01*
X154909Y147710D01*
X154899Y147774D01*
X154886Y147838D01*
X154868Y147900D01*
X154847Y147961D01*
X154823Y148021D01*
X154794Y148079D01*
X154762Y148136D01*
X154727Y148190D01*
X154689Y148242D01*
X154647Y148292D01*
X154603Y148339D01*
X154556Y148383D01*
X154506Y148425D01*
X154454Y148463D01*
X154400Y148498D01*
X154343Y148530D01*
X154285Y148559D01*
X154225Y148583D01*
X154164Y148604D01*
X154102Y148622D01*
X154038Y148635D01*
X153974Y148645D01*
X153910Y148651D01*
X153845Y148653D01*
X153845Y148654D02*
X153759Y148652D01*
X153673Y148647D01*
X153587Y148637D01*
X153502Y148624D01*
X153417Y148608D01*
X153333Y148588D01*
X153250Y148564D01*
X153168Y148537D01*
X153088Y148506D01*
X153008Y148472D01*
X152931Y148434D01*
X152855Y148393D01*
X152781Y148349D01*
X152708Y148302D01*
X152638Y148252D01*
X154381Y146643D02*
X154434Y146676D01*
X154485Y146713D01*
X154534Y146752D01*
X154581Y146794D01*
X154625Y146839D01*
X154666Y146886D01*
X154705Y146935D01*
X154741Y146987D01*
X154774Y147041D01*
X154803Y147096D01*
X154829Y147153D01*
X154852Y147212D01*
X154872Y147271D01*
X154888Y147332D01*
X154901Y147393D01*
X154910Y147456D01*
X154915Y147518D01*
X154917Y147581D01*
X152906Y145838D02*
X152853Y145805D01*
X152802Y145768D01*
X152753Y145729D01*
X152706Y145687D01*
X152662Y145642D01*
X152621Y145595D01*
X152582Y145546D01*
X152546Y145494D01*
X152513Y145440D01*
X152484Y145385D01*
X152458Y145328D01*
X152435Y145269D01*
X152415Y145210D01*
X152399Y145149D01*
X152386Y145088D01*
X152377Y145025D01*
X152372Y144963D01*
X152370Y144900D01*
X152906Y145838D02*
X154381Y146643D01*
X149748Y143828D02*
X148407Y143828D01*
X148407Y143827D02*
X148336Y143829D01*
X148264Y143835D01*
X148194Y143844D01*
X148124Y143857D01*
X148054Y143874D01*
X147986Y143895D01*
X147919Y143919D01*
X147853Y143947D01*
X147789Y143978D01*
X147726Y144013D01*
X147666Y144051D01*
X147607Y144092D01*
X147551Y144136D01*
X147497Y144183D01*
X147446Y144232D01*
X147398Y144285D01*
X147352Y144340D01*
X147310Y144397D01*
X147270Y144457D01*
X147234Y144518D01*
X147201Y144582D01*
X147172Y144647D01*
X147146Y144713D01*
X147123Y144781D01*
X147104Y144850D01*
X147089Y144920D01*
X147078Y144990D01*
X147070Y145061D01*
X147066Y145132D01*
X147066Y145204D01*
X147070Y145275D01*
X147078Y145346D01*
X147089Y145416D01*
X147104Y145486D01*
X147123Y145555D01*
X147146Y145623D01*
X147172Y145689D01*
X147201Y145754D01*
X147234Y145818D01*
X147270Y145879D01*
X147310Y145939D01*
X147352Y145996D01*
X147398Y146051D01*
X147446Y146104D01*
X147497Y146153D01*
X147551Y146200D01*
X147607Y146244D01*
X147666Y146285D01*
X147726Y146323D01*
X147789Y146358D01*
X147853Y146389D01*
X147919Y146417D01*
X147986Y146441D01*
X148054Y146462D01*
X148124Y146479D01*
X148194Y146492D01*
X148264Y146501D01*
X148336Y146507D01*
X148407Y146509D01*
X148139Y148654D02*
X149748Y148654D01*
X148139Y148653D02*
X148074Y148651D01*
X148010Y148645D01*
X147946Y148635D01*
X147882Y148622D01*
X147820Y148604D01*
X147759Y148583D01*
X147699Y148559D01*
X147641Y148530D01*
X147584Y148498D01*
X147530Y148463D01*
X147478Y148425D01*
X147428Y148383D01*
X147381Y148339D01*
X147337Y148292D01*
X147295Y148242D01*
X147257Y148190D01*
X147222Y148136D01*
X147190Y148079D01*
X147161Y148021D01*
X147137Y147961D01*
X147116Y147900D01*
X147098Y147838D01*
X147085Y147774D01*
X147075Y147710D01*
X147069Y147646D01*
X147067Y147581D01*
X147069Y147516D01*
X147075Y147452D01*
X147085Y147388D01*
X147098Y147324D01*
X147116Y147262D01*
X147137Y147201D01*
X147161Y147141D01*
X147190Y147083D01*
X147222Y147026D01*
X147257Y146972D01*
X147295Y146920D01*
X147337Y146870D01*
X147381Y146823D01*
X147428Y146779D01*
X147478Y146737D01*
X147530Y146699D01*
X147584Y146664D01*
X147641Y146632D01*
X147699Y146603D01*
X147759Y146579D01*
X147820Y146558D01*
X147882Y146540D01*
X147946Y146527D01*
X148010Y146517D01*
X148074Y146511D01*
X148139Y146509D01*
X149212Y146509D01*
X144015Y148654D02*
X144015Y143828D01*
X144015Y148654D02*
X142674Y148654D01*
X142603Y148652D01*
X142531Y148646D01*
X142461Y148637D01*
X142391Y148624D01*
X142321Y148607D01*
X142253Y148586D01*
X142186Y148562D01*
X142120Y148534D01*
X142056Y148503D01*
X141993Y148468D01*
X141933Y148430D01*
X141874Y148389D01*
X141818Y148345D01*
X141764Y148298D01*
X141713Y148249D01*
X141665Y148196D01*
X141619Y148141D01*
X141577Y148084D01*
X141537Y148024D01*
X141501Y147963D01*
X141468Y147899D01*
X141439Y147834D01*
X141413Y147768D01*
X141390Y147700D01*
X141371Y147631D01*
X141356Y147561D01*
X141345Y147491D01*
X141337Y147420D01*
X141333Y147349D01*
X141333Y147277D01*
X141337Y147206D01*
X141345Y147135D01*
X141356Y147065D01*
X141371Y146995D01*
X141390Y146926D01*
X141413Y146858D01*
X141439Y146792D01*
X141468Y146727D01*
X141501Y146663D01*
X141537Y146602D01*
X141577Y146542D01*
X141619Y146485D01*
X141665Y146430D01*
X141713Y146377D01*
X141764Y146328D01*
X141818Y146281D01*
X141874Y146237D01*
X141933Y146196D01*
X141993Y146158D01*
X142056Y146123D01*
X142120Y146092D01*
X142186Y146064D01*
X142253Y146040D01*
X142321Y146019D01*
X142391Y146002D01*
X142461Y145989D01*
X142531Y145980D01*
X142603Y145974D01*
X142674Y145972D01*
X144015Y145972D01*
X142406Y145972D02*
X141334Y143828D01*
D12*
X205423Y139605D02*
X205423Y122333D01*
X187643Y119793D02*
X187543Y119795D01*
X187444Y119801D01*
X187344Y119811D01*
X187246Y119824D01*
X187147Y119842D01*
X187050Y119863D01*
X186954Y119888D01*
X186858Y119917D01*
X186764Y119950D01*
X186671Y119986D01*
X186580Y120026D01*
X186490Y120070D01*
X186402Y120117D01*
X186316Y120167D01*
X186232Y120221D01*
X186150Y120278D01*
X186071Y120338D01*
X185993Y120402D01*
X185919Y120468D01*
X185847Y120537D01*
X185778Y120609D01*
X185712Y120683D01*
X185648Y120761D01*
X185588Y120840D01*
X185531Y120922D01*
X185477Y121006D01*
X185427Y121092D01*
X185380Y121180D01*
X185336Y121270D01*
X185296Y121361D01*
X185260Y121454D01*
X185227Y121548D01*
X185198Y121644D01*
X185173Y121740D01*
X185152Y121837D01*
X185134Y121936D01*
X185121Y122034D01*
X185111Y122134D01*
X185105Y122233D01*
X185103Y122333D01*
X185103Y139605D02*
X185105Y139705D01*
X185111Y139804D01*
X185121Y139904D01*
X185134Y140002D01*
X185152Y140101D01*
X185173Y140198D01*
X185198Y140294D01*
X185227Y140390D01*
X185260Y140484D01*
X185296Y140577D01*
X185336Y140668D01*
X185380Y140758D01*
X185427Y140846D01*
X185477Y140932D01*
X185531Y141016D01*
X185588Y141098D01*
X185648Y141177D01*
X185712Y141255D01*
X185778Y141329D01*
X185847Y141401D01*
X185919Y141470D01*
X185993Y141536D01*
X186071Y141600D01*
X186150Y141660D01*
X186232Y141717D01*
X186316Y141771D01*
X186402Y141821D01*
X186490Y141868D01*
X186580Y141912D01*
X186671Y141952D01*
X186764Y141988D01*
X186858Y142021D01*
X186954Y142050D01*
X187050Y142075D01*
X187147Y142096D01*
X187246Y142114D01*
X187344Y142127D01*
X187444Y142137D01*
X187543Y142143D01*
X187643Y142145D01*
X202883Y142145D02*
X202983Y142143D01*
X203082Y142137D01*
X203182Y142127D01*
X203280Y142114D01*
X203379Y142096D01*
X203476Y142075D01*
X203572Y142050D01*
X203668Y142021D01*
X203762Y141988D01*
X203855Y141952D01*
X203946Y141912D01*
X204036Y141868D01*
X204124Y141821D01*
X204210Y141771D01*
X204294Y141717D01*
X204376Y141660D01*
X204455Y141600D01*
X204533Y141536D01*
X204607Y141470D01*
X204679Y141401D01*
X204748Y141329D01*
X204814Y141255D01*
X204878Y141177D01*
X204938Y141098D01*
X204995Y141016D01*
X205049Y140932D01*
X205099Y140846D01*
X205146Y140758D01*
X205190Y140668D01*
X205230Y140577D01*
X205266Y140484D01*
X205299Y140390D01*
X205328Y140294D01*
X205353Y140198D01*
X205374Y140101D01*
X205392Y140002D01*
X205405Y139904D01*
X205415Y139804D01*
X205421Y139705D01*
X205423Y139605D01*
X205423Y122333D02*
X205421Y122233D01*
X205415Y122134D01*
X205405Y122034D01*
X205392Y121936D01*
X205374Y121837D01*
X205353Y121740D01*
X205328Y121644D01*
X205299Y121548D01*
X205266Y121454D01*
X205230Y121361D01*
X205190Y121270D01*
X205146Y121180D01*
X205099Y121092D01*
X205049Y121006D01*
X204995Y120922D01*
X204938Y120840D01*
X204878Y120761D01*
X204814Y120683D01*
X204748Y120609D01*
X204679Y120537D01*
X204607Y120468D01*
X204533Y120402D01*
X204455Y120338D01*
X204376Y120278D01*
X204294Y120221D01*
X204210Y120167D01*
X204124Y120117D01*
X204036Y120070D01*
X203946Y120026D01*
X203855Y119986D01*
X203762Y119950D01*
X203668Y119917D01*
X203572Y119888D01*
X203476Y119863D01*
X203379Y119842D01*
X203280Y119824D01*
X203182Y119811D01*
X203082Y119801D01*
X202983Y119795D01*
X202883Y119793D01*
X187643Y119793D01*
X187643Y142145D02*
X202883Y142145D01*
X185103Y139605D02*
X185103Y122333D01*
D11*
X201875Y143828D02*
X201875Y148654D01*
X200534Y148654D01*
X200463Y148652D01*
X200391Y148646D01*
X200321Y148637D01*
X200251Y148624D01*
X200181Y148607D01*
X200113Y148586D01*
X200046Y148562D01*
X199980Y148534D01*
X199916Y148503D01*
X199853Y148468D01*
X199793Y148430D01*
X199734Y148389D01*
X199678Y148345D01*
X199624Y148298D01*
X199573Y148249D01*
X199525Y148196D01*
X199479Y148141D01*
X199437Y148084D01*
X199397Y148024D01*
X199361Y147963D01*
X199328Y147899D01*
X199299Y147834D01*
X199273Y147768D01*
X199250Y147700D01*
X199231Y147631D01*
X199216Y147561D01*
X199205Y147491D01*
X199197Y147420D01*
X199193Y147349D01*
X199193Y147277D01*
X199197Y147206D01*
X199205Y147135D01*
X199216Y147065D01*
X199231Y146995D01*
X199250Y146926D01*
X199273Y146858D01*
X199299Y146792D01*
X199328Y146727D01*
X199361Y146663D01*
X199397Y146602D01*
X199437Y146542D01*
X199479Y146485D01*
X199525Y146430D01*
X199573Y146377D01*
X199624Y146328D01*
X199678Y146281D01*
X199734Y146237D01*
X199793Y146196D01*
X199853Y146158D01*
X199916Y146123D01*
X199980Y146092D01*
X200046Y146064D01*
X200113Y146040D01*
X200181Y146019D01*
X200251Y146002D01*
X200321Y145989D01*
X200391Y145980D01*
X200463Y145974D01*
X200534Y145972D01*
X201875Y145972D01*
X200266Y145972D02*
X199194Y143828D01*
X195026Y143828D02*
X194961Y143830D01*
X194897Y143836D01*
X194833Y143846D01*
X194769Y143859D01*
X194707Y143877D01*
X194646Y143898D01*
X194586Y143922D01*
X194528Y143951D01*
X194471Y143983D01*
X194417Y144018D01*
X194365Y144056D01*
X194315Y144098D01*
X194268Y144142D01*
X194224Y144189D01*
X194182Y144239D01*
X194144Y144291D01*
X194109Y144345D01*
X194077Y144402D01*
X194048Y144460D01*
X194024Y144520D01*
X194003Y144581D01*
X193985Y144643D01*
X193972Y144707D01*
X193962Y144771D01*
X193956Y144835D01*
X193954Y144900D01*
X195026Y143827D02*
X195120Y143829D01*
X195214Y143835D01*
X195308Y143845D01*
X195401Y143858D01*
X195493Y143876D01*
X195585Y143897D01*
X195676Y143922D01*
X195766Y143951D01*
X195854Y143984D01*
X195941Y144020D01*
X196026Y144060D01*
X196110Y144103D01*
X196191Y144150D01*
X196271Y144200D01*
X196349Y144253D01*
X196424Y144310D01*
X196497Y144369D01*
X196567Y144432D01*
X196635Y144497D01*
X196500Y147581D02*
X196498Y147646D01*
X196492Y147710D01*
X196482Y147774D01*
X196469Y147838D01*
X196451Y147900D01*
X196430Y147961D01*
X196406Y148021D01*
X196377Y148079D01*
X196345Y148136D01*
X196310Y148190D01*
X196272Y148242D01*
X196230Y148292D01*
X196186Y148339D01*
X196139Y148383D01*
X196089Y148425D01*
X196037Y148463D01*
X195983Y148498D01*
X195926Y148530D01*
X195868Y148559D01*
X195808Y148583D01*
X195747Y148604D01*
X195685Y148622D01*
X195621Y148635D01*
X195557Y148645D01*
X195493Y148651D01*
X195428Y148653D01*
X195428Y148654D02*
X195342Y148652D01*
X195256Y148647D01*
X195170Y148637D01*
X195085Y148624D01*
X195000Y148608D01*
X194916Y148588D01*
X194833Y148564D01*
X194751Y148537D01*
X194671Y148506D01*
X194591Y148472D01*
X194514Y148434D01*
X194438Y148393D01*
X194364Y148349D01*
X194291Y148302D01*
X194221Y148252D01*
X195965Y146643D02*
X196018Y146676D01*
X196069Y146713D01*
X196118Y146752D01*
X196165Y146794D01*
X196209Y146839D01*
X196250Y146886D01*
X196289Y146935D01*
X196325Y146987D01*
X196358Y147041D01*
X196387Y147096D01*
X196413Y147153D01*
X196436Y147212D01*
X196456Y147271D01*
X196472Y147332D01*
X196485Y147393D01*
X196494Y147456D01*
X196499Y147518D01*
X196501Y147581D01*
X194490Y145838D02*
X194437Y145805D01*
X194386Y145768D01*
X194337Y145729D01*
X194290Y145687D01*
X194246Y145642D01*
X194205Y145595D01*
X194166Y145546D01*
X194130Y145494D01*
X194097Y145440D01*
X194068Y145385D01*
X194042Y145328D01*
X194019Y145269D01*
X193999Y145210D01*
X193983Y145149D01*
X193970Y145088D01*
X193961Y145025D01*
X193956Y144963D01*
X193954Y144900D01*
X194490Y145838D02*
X195965Y146643D01*
X191331Y144900D02*
X190259Y148654D01*
X191331Y144900D02*
X188650Y144900D01*
X189455Y145972D02*
X189455Y143828D01*
D10*
X227648Y138589D02*
X227648Y123349D01*
X211900Y118777D02*
X211767Y118779D01*
X211634Y118785D01*
X211502Y118794D01*
X211369Y118808D01*
X211237Y118825D01*
X211106Y118846D01*
X210975Y118871D01*
X210846Y118900D01*
X210717Y118933D01*
X210589Y118969D01*
X210462Y119009D01*
X210336Y119053D01*
X210212Y119100D01*
X210089Y119151D01*
X209968Y119205D01*
X209848Y119263D01*
X209730Y119325D01*
X209614Y119390D01*
X209500Y119458D01*
X209388Y119529D01*
X209278Y119604D01*
X209170Y119682D01*
X209064Y119763D01*
X208961Y119847D01*
X208861Y119934D01*
X208763Y120023D01*
X208667Y120116D01*
X208574Y120212D01*
X208485Y120310D01*
X208398Y120410D01*
X208314Y120513D01*
X208233Y120619D01*
X208155Y120727D01*
X208080Y120837D01*
X208009Y120949D01*
X207941Y121063D01*
X207876Y121179D01*
X207814Y121297D01*
X207756Y121417D01*
X207702Y121538D01*
X207651Y121661D01*
X207604Y121785D01*
X207560Y121911D01*
X207520Y122038D01*
X207484Y122166D01*
X207451Y122295D01*
X207422Y122424D01*
X207397Y122555D01*
X207376Y122686D01*
X207359Y122818D01*
X207345Y122951D01*
X207336Y123083D01*
X207330Y123216D01*
X207328Y123349D01*
X207328Y138589D02*
X207330Y138722D01*
X207336Y138855D01*
X207345Y138987D01*
X207359Y139120D01*
X207376Y139252D01*
X207397Y139383D01*
X207422Y139514D01*
X207451Y139643D01*
X207484Y139772D01*
X207520Y139900D01*
X207560Y140027D01*
X207604Y140153D01*
X207651Y140277D01*
X207702Y140400D01*
X207756Y140521D01*
X207814Y140641D01*
X207876Y140759D01*
X207941Y140875D01*
X208009Y140989D01*
X208080Y141101D01*
X208155Y141211D01*
X208233Y141319D01*
X208314Y141425D01*
X208398Y141528D01*
X208485Y141628D01*
X208574Y141726D01*
X208667Y141822D01*
X208763Y141915D01*
X208861Y142004D01*
X208961Y142091D01*
X209064Y142175D01*
X209170Y142256D01*
X209278Y142334D01*
X209388Y142409D01*
X209500Y142480D01*
X209614Y142548D01*
X209730Y142613D01*
X209848Y142675D01*
X209968Y142733D01*
X210089Y142787D01*
X210212Y142838D01*
X210336Y142885D01*
X210462Y142929D01*
X210589Y142969D01*
X210717Y143005D01*
X210846Y143038D01*
X210975Y143067D01*
X211106Y143092D01*
X211237Y143113D01*
X211369Y143130D01*
X211502Y143144D01*
X211634Y143153D01*
X211767Y143159D01*
X211900Y143161D01*
X223076Y143161D02*
X223209Y143159D01*
X223342Y143153D01*
X223474Y143144D01*
X223607Y143130D01*
X223739Y143113D01*
X223870Y143092D01*
X224001Y143067D01*
X224130Y143038D01*
X224259Y143005D01*
X224387Y142969D01*
X224514Y142929D01*
X224640Y142885D01*
X224764Y142838D01*
X224887Y142787D01*
X225008Y142733D01*
X225128Y142675D01*
X225246Y142613D01*
X225362Y142548D01*
X225476Y142480D01*
X225588Y142409D01*
X225698Y142334D01*
X225806Y142256D01*
X225912Y142175D01*
X226015Y142091D01*
X226115Y142004D01*
X226213Y141915D01*
X226309Y141822D01*
X226402Y141726D01*
X226491Y141628D01*
X226578Y141528D01*
X226662Y141425D01*
X226743Y141319D01*
X226821Y141211D01*
X226896Y141101D01*
X226967Y140989D01*
X227035Y140875D01*
X227100Y140759D01*
X227162Y140641D01*
X227220Y140521D01*
X227274Y140400D01*
X227325Y140277D01*
X227372Y140153D01*
X227416Y140027D01*
X227456Y139900D01*
X227492Y139772D01*
X227525Y139643D01*
X227554Y139514D01*
X227579Y139383D01*
X227600Y139252D01*
X227617Y139120D01*
X227631Y138987D01*
X227640Y138855D01*
X227646Y138722D01*
X227648Y138589D01*
X227648Y123349D02*
X227646Y123216D01*
X227640Y123083D01*
X227631Y122951D01*
X227617Y122818D01*
X227600Y122686D01*
X227579Y122555D01*
X227554Y122424D01*
X227525Y122295D01*
X227492Y122166D01*
X227456Y122038D01*
X227416Y121911D01*
X227372Y121785D01*
X227325Y121661D01*
X227274Y121538D01*
X227220Y121417D01*
X227162Y121297D01*
X227100Y121179D01*
X227035Y121063D01*
X226967Y120949D01*
X226896Y120837D01*
X226821Y120727D01*
X226743Y120619D01*
X226662Y120513D01*
X226578Y120410D01*
X226491Y120310D01*
X226402Y120212D01*
X226309Y120116D01*
X226213Y120023D01*
X226115Y119934D01*
X226015Y119847D01*
X225912Y119763D01*
X225806Y119682D01*
X225698Y119604D01*
X225588Y119529D01*
X225476Y119458D01*
X225362Y119390D01*
X225246Y119325D01*
X225128Y119263D01*
X225008Y119205D01*
X224887Y119151D01*
X224764Y119100D01*
X224640Y119053D01*
X224514Y119009D01*
X224387Y118969D01*
X224259Y118933D01*
X224130Y118900D01*
X224001Y118871D01*
X223870Y118846D01*
X223739Y118825D01*
X223607Y118808D01*
X223474Y118794D01*
X223342Y118785D01*
X223209Y118779D01*
X223076Y118777D01*
X211900Y118777D01*
X211900Y143161D02*
X223076Y143161D01*
X207328Y138589D02*
X207328Y123349D01*
D11*
X224100Y143828D02*
X224100Y148654D01*
X222759Y148654D01*
X222688Y148652D01*
X222616Y148646D01*
X222546Y148637D01*
X222476Y148624D01*
X222406Y148607D01*
X222338Y148586D01*
X222271Y148562D01*
X222205Y148534D01*
X222141Y148503D01*
X222078Y148468D01*
X222018Y148430D01*
X221959Y148389D01*
X221903Y148345D01*
X221849Y148298D01*
X221798Y148249D01*
X221750Y148196D01*
X221704Y148141D01*
X221662Y148084D01*
X221622Y148024D01*
X221586Y147963D01*
X221553Y147899D01*
X221524Y147834D01*
X221498Y147768D01*
X221475Y147700D01*
X221456Y147631D01*
X221441Y147561D01*
X221430Y147491D01*
X221422Y147420D01*
X221418Y147349D01*
X221418Y147277D01*
X221422Y147206D01*
X221430Y147135D01*
X221441Y147065D01*
X221456Y146995D01*
X221475Y146926D01*
X221498Y146858D01*
X221524Y146792D01*
X221553Y146727D01*
X221586Y146663D01*
X221622Y146602D01*
X221662Y146542D01*
X221704Y146485D01*
X221750Y146430D01*
X221798Y146377D01*
X221849Y146328D01*
X221903Y146281D01*
X221959Y146237D01*
X222018Y146196D01*
X222078Y146158D01*
X222141Y146123D01*
X222205Y146092D01*
X222271Y146064D01*
X222338Y146040D01*
X222406Y146019D01*
X222476Y146002D01*
X222546Y145989D01*
X222616Y145980D01*
X222688Y145974D01*
X222759Y145972D01*
X224100Y145972D01*
X222491Y145972D02*
X221419Y143828D01*
X217251Y143828D02*
X217186Y143830D01*
X217122Y143836D01*
X217058Y143846D01*
X216994Y143859D01*
X216932Y143877D01*
X216871Y143898D01*
X216811Y143922D01*
X216753Y143951D01*
X216696Y143983D01*
X216642Y144018D01*
X216590Y144056D01*
X216540Y144098D01*
X216493Y144142D01*
X216449Y144189D01*
X216407Y144239D01*
X216369Y144291D01*
X216334Y144345D01*
X216302Y144402D01*
X216273Y144460D01*
X216249Y144520D01*
X216228Y144581D01*
X216210Y144643D01*
X216197Y144707D01*
X216187Y144771D01*
X216181Y144835D01*
X216179Y144900D01*
X217251Y143827D02*
X217345Y143829D01*
X217439Y143835D01*
X217533Y143845D01*
X217626Y143858D01*
X217718Y143876D01*
X217810Y143897D01*
X217901Y143922D01*
X217991Y143951D01*
X218079Y143984D01*
X218166Y144020D01*
X218251Y144060D01*
X218335Y144103D01*
X218416Y144150D01*
X218496Y144200D01*
X218574Y144253D01*
X218649Y144310D01*
X218722Y144369D01*
X218792Y144432D01*
X218860Y144497D01*
X218725Y147581D02*
X218723Y147646D01*
X218717Y147710D01*
X218707Y147774D01*
X218694Y147838D01*
X218676Y147900D01*
X218655Y147961D01*
X218631Y148021D01*
X218602Y148079D01*
X218570Y148136D01*
X218535Y148190D01*
X218497Y148242D01*
X218455Y148292D01*
X218411Y148339D01*
X218364Y148383D01*
X218314Y148425D01*
X218262Y148463D01*
X218208Y148498D01*
X218151Y148530D01*
X218093Y148559D01*
X218033Y148583D01*
X217972Y148604D01*
X217910Y148622D01*
X217846Y148635D01*
X217782Y148645D01*
X217718Y148651D01*
X217653Y148653D01*
X217653Y148654D02*
X217567Y148652D01*
X217481Y148647D01*
X217395Y148637D01*
X217310Y148624D01*
X217225Y148608D01*
X217141Y148588D01*
X217058Y148564D01*
X216976Y148537D01*
X216896Y148506D01*
X216816Y148472D01*
X216739Y148434D01*
X216663Y148393D01*
X216589Y148349D01*
X216516Y148302D01*
X216446Y148252D01*
X218190Y146643D02*
X218243Y146676D01*
X218294Y146713D01*
X218343Y146752D01*
X218390Y146794D01*
X218434Y146839D01*
X218475Y146886D01*
X218514Y146935D01*
X218550Y146987D01*
X218583Y147041D01*
X218612Y147096D01*
X218638Y147153D01*
X218661Y147212D01*
X218681Y147271D01*
X218697Y147332D01*
X218710Y147393D01*
X218719Y147456D01*
X218724Y147518D01*
X218726Y147581D01*
X216715Y145838D02*
X216662Y145805D01*
X216611Y145768D01*
X216562Y145729D01*
X216515Y145687D01*
X216471Y145642D01*
X216430Y145595D01*
X216391Y145546D01*
X216355Y145494D01*
X216322Y145440D01*
X216293Y145385D01*
X216267Y145328D01*
X216244Y145269D01*
X216224Y145210D01*
X216208Y145149D01*
X216195Y145088D01*
X216186Y145025D01*
X216181Y144963D01*
X216179Y144900D01*
X216715Y145838D02*
X218190Y146643D01*
X213556Y143828D02*
X211948Y143828D01*
X211883Y143830D01*
X211819Y143836D01*
X211755Y143846D01*
X211691Y143859D01*
X211629Y143877D01*
X211568Y143898D01*
X211508Y143922D01*
X211450Y143951D01*
X211393Y143983D01*
X211339Y144018D01*
X211287Y144056D01*
X211237Y144098D01*
X211190Y144142D01*
X211146Y144189D01*
X211104Y144239D01*
X211066Y144291D01*
X211031Y144345D01*
X210999Y144402D01*
X210970Y144460D01*
X210946Y144520D01*
X210925Y144581D01*
X210907Y144643D01*
X210894Y144707D01*
X210884Y144771D01*
X210878Y144835D01*
X210876Y144900D01*
X210875Y144900D02*
X210875Y145436D01*
X210876Y145436D02*
X210878Y145501D01*
X210884Y145565D01*
X210894Y145629D01*
X210907Y145693D01*
X210925Y145755D01*
X210946Y145816D01*
X210970Y145876D01*
X210999Y145934D01*
X211031Y145991D01*
X211066Y146045D01*
X211104Y146097D01*
X211146Y146147D01*
X211190Y146194D01*
X211237Y146238D01*
X211287Y146280D01*
X211339Y146318D01*
X211393Y146353D01*
X211450Y146385D01*
X211508Y146414D01*
X211568Y146438D01*
X211629Y146459D01*
X211691Y146477D01*
X211755Y146490D01*
X211819Y146500D01*
X211883Y146506D01*
X211948Y146508D01*
X211948Y146509D02*
X213556Y146509D01*
X213556Y148654D01*
X210875Y148654D01*
D12*
X116523Y139605D02*
X116523Y122333D01*
X98743Y119793D02*
X98643Y119795D01*
X98544Y119801D01*
X98444Y119811D01*
X98346Y119824D01*
X98247Y119842D01*
X98150Y119863D01*
X98054Y119888D01*
X97958Y119917D01*
X97864Y119950D01*
X97771Y119986D01*
X97680Y120026D01*
X97590Y120070D01*
X97502Y120117D01*
X97416Y120167D01*
X97332Y120221D01*
X97250Y120278D01*
X97171Y120338D01*
X97093Y120402D01*
X97019Y120468D01*
X96947Y120537D01*
X96878Y120609D01*
X96812Y120683D01*
X96748Y120761D01*
X96688Y120840D01*
X96631Y120922D01*
X96577Y121006D01*
X96527Y121092D01*
X96480Y121180D01*
X96436Y121270D01*
X96396Y121361D01*
X96360Y121454D01*
X96327Y121548D01*
X96298Y121644D01*
X96273Y121740D01*
X96252Y121837D01*
X96234Y121936D01*
X96221Y122034D01*
X96211Y122134D01*
X96205Y122233D01*
X96203Y122333D01*
X96203Y139605D02*
X96205Y139705D01*
X96211Y139804D01*
X96221Y139904D01*
X96234Y140002D01*
X96252Y140101D01*
X96273Y140198D01*
X96298Y140294D01*
X96327Y140390D01*
X96360Y140484D01*
X96396Y140577D01*
X96436Y140668D01*
X96480Y140758D01*
X96527Y140846D01*
X96577Y140932D01*
X96631Y141016D01*
X96688Y141098D01*
X96748Y141177D01*
X96812Y141255D01*
X96878Y141329D01*
X96947Y141401D01*
X97019Y141470D01*
X97093Y141536D01*
X97171Y141600D01*
X97250Y141660D01*
X97332Y141717D01*
X97416Y141771D01*
X97502Y141821D01*
X97590Y141868D01*
X97680Y141912D01*
X97771Y141952D01*
X97864Y141988D01*
X97958Y142021D01*
X98054Y142050D01*
X98150Y142075D01*
X98247Y142096D01*
X98346Y142114D01*
X98444Y142127D01*
X98544Y142137D01*
X98643Y142143D01*
X98743Y142145D01*
X113983Y142145D02*
X114083Y142143D01*
X114182Y142137D01*
X114282Y142127D01*
X114380Y142114D01*
X114479Y142096D01*
X114576Y142075D01*
X114672Y142050D01*
X114768Y142021D01*
X114862Y141988D01*
X114955Y141952D01*
X115046Y141912D01*
X115136Y141868D01*
X115224Y141821D01*
X115310Y141771D01*
X115394Y141717D01*
X115476Y141660D01*
X115555Y141600D01*
X115633Y141536D01*
X115707Y141470D01*
X115779Y141401D01*
X115848Y141329D01*
X115914Y141255D01*
X115978Y141177D01*
X116038Y141098D01*
X116095Y141016D01*
X116149Y140932D01*
X116199Y140846D01*
X116246Y140758D01*
X116290Y140668D01*
X116330Y140577D01*
X116366Y140484D01*
X116399Y140390D01*
X116428Y140294D01*
X116453Y140198D01*
X116474Y140101D01*
X116492Y140002D01*
X116505Y139904D01*
X116515Y139804D01*
X116521Y139705D01*
X116523Y139605D01*
X116523Y122333D02*
X116521Y122233D01*
X116515Y122134D01*
X116505Y122034D01*
X116492Y121936D01*
X116474Y121837D01*
X116453Y121740D01*
X116428Y121644D01*
X116399Y121548D01*
X116366Y121454D01*
X116330Y121361D01*
X116290Y121270D01*
X116246Y121180D01*
X116199Y121092D01*
X116149Y121006D01*
X116095Y120922D01*
X116038Y120840D01*
X115978Y120761D01*
X115914Y120683D01*
X115848Y120609D01*
X115779Y120537D01*
X115707Y120468D01*
X115633Y120402D01*
X115555Y120338D01*
X115476Y120278D01*
X115394Y120221D01*
X115310Y120167D01*
X115224Y120117D01*
X115136Y120070D01*
X115046Y120026D01*
X114955Y119986D01*
X114862Y119950D01*
X114768Y119917D01*
X114672Y119888D01*
X114576Y119863D01*
X114479Y119842D01*
X114380Y119824D01*
X114282Y119811D01*
X114182Y119801D01*
X114083Y119795D01*
X113983Y119793D01*
X98743Y119793D01*
X98743Y142145D02*
X113983Y142145D01*
X96203Y139605D02*
X96203Y122333D01*
D11*
X112975Y143828D02*
X112975Y148654D01*
X111634Y148654D01*
X111563Y148652D01*
X111491Y148646D01*
X111421Y148637D01*
X111351Y148624D01*
X111281Y148607D01*
X111213Y148586D01*
X111146Y148562D01*
X111080Y148534D01*
X111016Y148503D01*
X110953Y148468D01*
X110893Y148430D01*
X110834Y148389D01*
X110778Y148345D01*
X110724Y148298D01*
X110673Y148249D01*
X110625Y148196D01*
X110579Y148141D01*
X110537Y148084D01*
X110497Y148024D01*
X110461Y147963D01*
X110428Y147899D01*
X110399Y147834D01*
X110373Y147768D01*
X110350Y147700D01*
X110331Y147631D01*
X110316Y147561D01*
X110305Y147491D01*
X110297Y147420D01*
X110293Y147349D01*
X110293Y147277D01*
X110297Y147206D01*
X110305Y147135D01*
X110316Y147065D01*
X110331Y146995D01*
X110350Y146926D01*
X110373Y146858D01*
X110399Y146792D01*
X110428Y146727D01*
X110461Y146663D01*
X110497Y146602D01*
X110537Y146542D01*
X110579Y146485D01*
X110625Y146430D01*
X110673Y146377D01*
X110724Y146328D01*
X110778Y146281D01*
X110834Y146237D01*
X110893Y146196D01*
X110953Y146158D01*
X111016Y146123D01*
X111080Y146092D01*
X111146Y146064D01*
X111213Y146040D01*
X111281Y146019D01*
X111351Y146002D01*
X111421Y145989D01*
X111491Y145980D01*
X111563Y145974D01*
X111634Y145972D01*
X112975Y145972D01*
X111366Y145972D02*
X110294Y143828D01*
X106126Y143828D02*
X106061Y143830D01*
X105997Y143836D01*
X105933Y143846D01*
X105869Y143859D01*
X105807Y143877D01*
X105746Y143898D01*
X105686Y143922D01*
X105628Y143951D01*
X105571Y143983D01*
X105517Y144018D01*
X105465Y144056D01*
X105415Y144098D01*
X105368Y144142D01*
X105324Y144189D01*
X105282Y144239D01*
X105244Y144291D01*
X105209Y144345D01*
X105177Y144402D01*
X105148Y144460D01*
X105124Y144520D01*
X105103Y144581D01*
X105085Y144643D01*
X105072Y144707D01*
X105062Y144771D01*
X105056Y144835D01*
X105054Y144900D01*
X106126Y143827D02*
X106220Y143829D01*
X106314Y143835D01*
X106408Y143845D01*
X106501Y143858D01*
X106593Y143876D01*
X106685Y143897D01*
X106776Y143922D01*
X106866Y143951D01*
X106954Y143984D01*
X107041Y144020D01*
X107126Y144060D01*
X107210Y144103D01*
X107291Y144150D01*
X107371Y144200D01*
X107449Y144253D01*
X107524Y144310D01*
X107597Y144369D01*
X107667Y144432D01*
X107735Y144497D01*
X107600Y147581D02*
X107598Y147646D01*
X107592Y147710D01*
X107582Y147774D01*
X107569Y147838D01*
X107551Y147900D01*
X107530Y147961D01*
X107506Y148021D01*
X107477Y148079D01*
X107445Y148136D01*
X107410Y148190D01*
X107372Y148242D01*
X107330Y148292D01*
X107286Y148339D01*
X107239Y148383D01*
X107189Y148425D01*
X107137Y148463D01*
X107083Y148498D01*
X107026Y148530D01*
X106968Y148559D01*
X106908Y148583D01*
X106847Y148604D01*
X106785Y148622D01*
X106721Y148635D01*
X106657Y148645D01*
X106593Y148651D01*
X106528Y148653D01*
X106528Y148654D02*
X106442Y148652D01*
X106356Y148647D01*
X106270Y148637D01*
X106185Y148624D01*
X106100Y148608D01*
X106016Y148588D01*
X105933Y148564D01*
X105851Y148537D01*
X105771Y148506D01*
X105691Y148472D01*
X105614Y148434D01*
X105538Y148393D01*
X105464Y148349D01*
X105391Y148302D01*
X105321Y148252D01*
X107065Y146643D02*
X107118Y146676D01*
X107169Y146713D01*
X107218Y146752D01*
X107265Y146794D01*
X107309Y146839D01*
X107350Y146886D01*
X107389Y146935D01*
X107425Y146987D01*
X107458Y147041D01*
X107487Y147096D01*
X107513Y147153D01*
X107536Y147212D01*
X107556Y147271D01*
X107572Y147332D01*
X107585Y147393D01*
X107594Y147456D01*
X107599Y147518D01*
X107601Y147581D01*
X105590Y145838D02*
X105537Y145805D01*
X105486Y145768D01*
X105437Y145729D01*
X105390Y145687D01*
X105346Y145642D01*
X105305Y145595D01*
X105266Y145546D01*
X105230Y145494D01*
X105197Y145440D01*
X105168Y145385D01*
X105142Y145328D01*
X105119Y145269D01*
X105099Y145210D01*
X105083Y145149D01*
X105070Y145088D01*
X105061Y145025D01*
X105056Y144963D01*
X105054Y144900D01*
X105590Y145838D02*
X107065Y146643D01*
X102431Y147581D02*
X101091Y148654D01*
X101091Y143828D01*
X102431Y143828D02*
X99750Y143828D01*
D10*
X173990Y188436D02*
X173990Y203676D01*
X189738Y208248D02*
X189871Y208246D01*
X190004Y208240D01*
X190136Y208231D01*
X190269Y208217D01*
X190401Y208200D01*
X190532Y208179D01*
X190663Y208154D01*
X190792Y208125D01*
X190921Y208092D01*
X191049Y208056D01*
X191176Y208016D01*
X191302Y207972D01*
X191426Y207925D01*
X191549Y207874D01*
X191670Y207820D01*
X191790Y207762D01*
X191908Y207700D01*
X192024Y207635D01*
X192138Y207567D01*
X192250Y207496D01*
X192360Y207421D01*
X192468Y207343D01*
X192574Y207262D01*
X192677Y207178D01*
X192777Y207091D01*
X192875Y207002D01*
X192971Y206909D01*
X193064Y206813D01*
X193153Y206715D01*
X193240Y206615D01*
X193324Y206512D01*
X193405Y206406D01*
X193483Y206298D01*
X193558Y206188D01*
X193629Y206076D01*
X193697Y205962D01*
X193762Y205846D01*
X193824Y205728D01*
X193882Y205608D01*
X193936Y205487D01*
X193987Y205364D01*
X194034Y205240D01*
X194078Y205114D01*
X194118Y204987D01*
X194154Y204859D01*
X194187Y204730D01*
X194216Y204601D01*
X194241Y204470D01*
X194262Y204339D01*
X194279Y204207D01*
X194293Y204074D01*
X194302Y203942D01*
X194308Y203809D01*
X194310Y203676D01*
X194310Y188436D02*
X194308Y188303D01*
X194302Y188170D01*
X194293Y188038D01*
X194279Y187905D01*
X194262Y187773D01*
X194241Y187642D01*
X194216Y187511D01*
X194187Y187382D01*
X194154Y187253D01*
X194118Y187125D01*
X194078Y186998D01*
X194034Y186872D01*
X193987Y186748D01*
X193936Y186625D01*
X193882Y186504D01*
X193824Y186384D01*
X193762Y186266D01*
X193697Y186150D01*
X193629Y186036D01*
X193558Y185924D01*
X193483Y185814D01*
X193405Y185706D01*
X193324Y185600D01*
X193240Y185497D01*
X193153Y185397D01*
X193064Y185299D01*
X192971Y185203D01*
X192875Y185110D01*
X192777Y185021D01*
X192677Y184934D01*
X192574Y184850D01*
X192468Y184769D01*
X192360Y184691D01*
X192250Y184616D01*
X192138Y184545D01*
X192024Y184477D01*
X191908Y184412D01*
X191790Y184350D01*
X191670Y184292D01*
X191549Y184238D01*
X191426Y184187D01*
X191302Y184140D01*
X191176Y184096D01*
X191049Y184056D01*
X190921Y184020D01*
X190792Y183987D01*
X190663Y183958D01*
X190532Y183933D01*
X190401Y183912D01*
X190269Y183895D01*
X190136Y183881D01*
X190004Y183872D01*
X189871Y183866D01*
X189738Y183864D01*
X178562Y183864D02*
X178429Y183866D01*
X178296Y183872D01*
X178164Y183881D01*
X178031Y183895D01*
X177899Y183912D01*
X177768Y183933D01*
X177637Y183958D01*
X177508Y183987D01*
X177379Y184020D01*
X177251Y184056D01*
X177124Y184096D01*
X176998Y184140D01*
X176874Y184187D01*
X176751Y184238D01*
X176630Y184292D01*
X176510Y184350D01*
X176392Y184412D01*
X176276Y184477D01*
X176162Y184545D01*
X176050Y184616D01*
X175940Y184691D01*
X175832Y184769D01*
X175726Y184850D01*
X175623Y184934D01*
X175523Y185021D01*
X175425Y185110D01*
X175329Y185203D01*
X175236Y185299D01*
X175147Y185397D01*
X175060Y185497D01*
X174976Y185600D01*
X174895Y185706D01*
X174817Y185814D01*
X174742Y185924D01*
X174671Y186036D01*
X174603Y186150D01*
X174538Y186266D01*
X174476Y186384D01*
X174418Y186504D01*
X174364Y186625D01*
X174313Y186748D01*
X174266Y186872D01*
X174222Y186998D01*
X174182Y187125D01*
X174146Y187253D01*
X174113Y187382D01*
X174084Y187511D01*
X174059Y187642D01*
X174038Y187773D01*
X174021Y187905D01*
X174007Y188038D01*
X173998Y188170D01*
X173992Y188303D01*
X173990Y188436D01*
X173990Y203676D02*
X173992Y203809D01*
X173998Y203942D01*
X174007Y204074D01*
X174021Y204207D01*
X174038Y204339D01*
X174059Y204470D01*
X174084Y204601D01*
X174113Y204730D01*
X174146Y204859D01*
X174182Y204987D01*
X174222Y205114D01*
X174266Y205240D01*
X174313Y205364D01*
X174364Y205487D01*
X174418Y205608D01*
X174476Y205728D01*
X174538Y205846D01*
X174603Y205962D01*
X174671Y206076D01*
X174742Y206188D01*
X174817Y206298D01*
X174895Y206406D01*
X174976Y206512D01*
X175060Y206615D01*
X175147Y206715D01*
X175236Y206813D01*
X175329Y206909D01*
X175425Y207002D01*
X175523Y207091D01*
X175623Y207178D01*
X175726Y207262D01*
X175832Y207343D01*
X175940Y207421D01*
X176050Y207496D01*
X176162Y207567D01*
X176276Y207635D01*
X176392Y207700D01*
X176510Y207762D01*
X176630Y207820D01*
X176751Y207874D01*
X176874Y207925D01*
X176998Y207972D01*
X177124Y208016D01*
X177251Y208056D01*
X177379Y208092D01*
X177508Y208125D01*
X177637Y208154D01*
X177768Y208179D01*
X177899Y208200D01*
X178031Y208217D01*
X178164Y208231D01*
X178296Y208240D01*
X178429Y208246D01*
X178562Y208248D01*
X189738Y208248D01*
X189738Y183864D02*
X178562Y183864D01*
X194310Y188436D02*
X194310Y203676D01*
D11*
X196215Y193362D02*
X201041Y193362D01*
X201041Y194702D02*
X201041Y192021D01*
X196215Y196874D02*
X201041Y200091D01*
X201041Y196874D02*
X196215Y200091D01*
D10*
X126048Y178276D02*
X126048Y163036D01*
X110300Y158464D02*
X110167Y158466D01*
X110034Y158472D01*
X109902Y158481D01*
X109769Y158495D01*
X109637Y158512D01*
X109506Y158533D01*
X109375Y158558D01*
X109246Y158587D01*
X109117Y158620D01*
X108989Y158656D01*
X108862Y158696D01*
X108736Y158740D01*
X108612Y158787D01*
X108489Y158838D01*
X108368Y158892D01*
X108248Y158950D01*
X108130Y159012D01*
X108014Y159077D01*
X107900Y159145D01*
X107788Y159216D01*
X107678Y159291D01*
X107570Y159369D01*
X107464Y159450D01*
X107361Y159534D01*
X107261Y159621D01*
X107163Y159710D01*
X107067Y159803D01*
X106974Y159899D01*
X106885Y159997D01*
X106798Y160097D01*
X106714Y160200D01*
X106633Y160306D01*
X106555Y160414D01*
X106480Y160524D01*
X106409Y160636D01*
X106341Y160750D01*
X106276Y160866D01*
X106214Y160984D01*
X106156Y161104D01*
X106102Y161225D01*
X106051Y161348D01*
X106004Y161472D01*
X105960Y161598D01*
X105920Y161725D01*
X105884Y161853D01*
X105851Y161982D01*
X105822Y162111D01*
X105797Y162242D01*
X105776Y162373D01*
X105759Y162505D01*
X105745Y162638D01*
X105736Y162770D01*
X105730Y162903D01*
X105728Y163036D01*
X105728Y178276D02*
X105730Y178409D01*
X105736Y178542D01*
X105745Y178674D01*
X105759Y178807D01*
X105776Y178939D01*
X105797Y179070D01*
X105822Y179201D01*
X105851Y179330D01*
X105884Y179459D01*
X105920Y179587D01*
X105960Y179714D01*
X106004Y179840D01*
X106051Y179964D01*
X106102Y180087D01*
X106156Y180208D01*
X106214Y180328D01*
X106276Y180446D01*
X106341Y180562D01*
X106409Y180676D01*
X106480Y180788D01*
X106555Y180898D01*
X106633Y181006D01*
X106714Y181112D01*
X106798Y181215D01*
X106885Y181315D01*
X106974Y181413D01*
X107067Y181509D01*
X107163Y181602D01*
X107261Y181691D01*
X107361Y181778D01*
X107464Y181862D01*
X107570Y181943D01*
X107678Y182021D01*
X107788Y182096D01*
X107900Y182167D01*
X108014Y182235D01*
X108130Y182300D01*
X108248Y182362D01*
X108368Y182420D01*
X108489Y182474D01*
X108612Y182525D01*
X108736Y182572D01*
X108862Y182616D01*
X108989Y182656D01*
X109117Y182692D01*
X109246Y182725D01*
X109375Y182754D01*
X109506Y182779D01*
X109637Y182800D01*
X109769Y182817D01*
X109902Y182831D01*
X110034Y182840D01*
X110167Y182846D01*
X110300Y182848D01*
X121476Y182848D02*
X121609Y182846D01*
X121742Y182840D01*
X121874Y182831D01*
X122007Y182817D01*
X122139Y182800D01*
X122270Y182779D01*
X122401Y182754D01*
X122530Y182725D01*
X122659Y182692D01*
X122787Y182656D01*
X122914Y182616D01*
X123040Y182572D01*
X123164Y182525D01*
X123287Y182474D01*
X123408Y182420D01*
X123528Y182362D01*
X123646Y182300D01*
X123762Y182235D01*
X123876Y182167D01*
X123988Y182096D01*
X124098Y182021D01*
X124206Y181943D01*
X124312Y181862D01*
X124415Y181778D01*
X124515Y181691D01*
X124613Y181602D01*
X124709Y181509D01*
X124802Y181413D01*
X124891Y181315D01*
X124978Y181215D01*
X125062Y181112D01*
X125143Y181006D01*
X125221Y180898D01*
X125296Y180788D01*
X125367Y180676D01*
X125435Y180562D01*
X125500Y180446D01*
X125562Y180328D01*
X125620Y180208D01*
X125674Y180087D01*
X125725Y179964D01*
X125772Y179840D01*
X125816Y179714D01*
X125856Y179587D01*
X125892Y179459D01*
X125925Y179330D01*
X125954Y179201D01*
X125979Y179070D01*
X126000Y178939D01*
X126017Y178807D01*
X126031Y178674D01*
X126040Y178542D01*
X126046Y178409D01*
X126048Y178276D01*
X126048Y163036D02*
X126046Y162903D01*
X126040Y162770D01*
X126031Y162638D01*
X126017Y162505D01*
X126000Y162373D01*
X125979Y162242D01*
X125954Y162111D01*
X125925Y161982D01*
X125892Y161853D01*
X125856Y161725D01*
X125816Y161598D01*
X125772Y161472D01*
X125725Y161348D01*
X125674Y161225D01*
X125620Y161104D01*
X125562Y160984D01*
X125500Y160866D01*
X125435Y160750D01*
X125367Y160636D01*
X125296Y160524D01*
X125221Y160414D01*
X125143Y160306D01*
X125062Y160200D01*
X124978Y160097D01*
X124891Y159997D01*
X124802Y159899D01*
X124709Y159803D01*
X124613Y159710D01*
X124515Y159621D01*
X124415Y159534D01*
X124312Y159450D01*
X124206Y159369D01*
X124098Y159291D01*
X123988Y159216D01*
X123876Y159145D01*
X123762Y159077D01*
X123646Y159012D01*
X123528Y158950D01*
X123408Y158892D01*
X123287Y158838D01*
X123164Y158787D01*
X123040Y158740D01*
X122914Y158696D01*
X122787Y158656D01*
X122659Y158620D01*
X122530Y158587D01*
X122401Y158558D01*
X122270Y158533D01*
X122139Y158512D01*
X122007Y158495D01*
X121874Y158481D01*
X121742Y158472D01*
X121609Y158466D01*
X121476Y158464D01*
X110300Y158464D01*
X110300Y182848D02*
X121476Y182848D01*
X105728Y178276D02*
X105728Y163036D01*
D11*
X103823Y166470D02*
X98997Y166470D01*
X103823Y166470D02*
X103823Y167811D01*
X103821Y167882D01*
X103815Y167954D01*
X103806Y168024D01*
X103793Y168094D01*
X103776Y168164D01*
X103755Y168232D01*
X103731Y168299D01*
X103703Y168365D01*
X103672Y168429D01*
X103637Y168492D01*
X103599Y168552D01*
X103558Y168611D01*
X103514Y168667D01*
X103467Y168721D01*
X103418Y168772D01*
X103365Y168820D01*
X103310Y168866D01*
X103253Y168908D01*
X103193Y168948D01*
X103132Y168984D01*
X103068Y169017D01*
X103003Y169046D01*
X102937Y169072D01*
X102869Y169095D01*
X102800Y169114D01*
X102730Y169129D01*
X102660Y169140D01*
X102589Y169148D01*
X102518Y169152D01*
X102446Y169152D01*
X102375Y169148D01*
X102304Y169140D01*
X102234Y169129D01*
X102164Y169114D01*
X102095Y169095D01*
X102027Y169072D01*
X101961Y169046D01*
X101896Y169017D01*
X101832Y168984D01*
X101771Y168948D01*
X101711Y168908D01*
X101654Y168866D01*
X101599Y168820D01*
X101546Y168772D01*
X101497Y168721D01*
X101450Y168667D01*
X101406Y168611D01*
X101365Y168552D01*
X101327Y168492D01*
X101292Y168429D01*
X101261Y168365D01*
X101233Y168299D01*
X101209Y168232D01*
X101188Y168164D01*
X101171Y168094D01*
X101158Y168024D01*
X101149Y167954D01*
X101143Y167882D01*
X101141Y167811D01*
X101141Y166470D01*
X101141Y168079D02*
X98997Y169151D01*
X98997Y171625D02*
X103823Y174842D01*
X103823Y171625D02*
X98997Y174842D01*
M02*
