G04 EAGLE Gerber RS-274X export*
G75*
%MOMM*%
%FSLAX34Y34*%
%LPD*%
%INSoldermask Top*%
%IPPOS*%
%AMOC8*
5,1,8,0,0,1.08239X$1,22.5*%
G01*
G04 Define Apertures*
%ADD10R,1.763200X1.763200*%
%ADD11C,1.763200*%
%ADD12C,4.389200*%
%ADD13R,1.103200X0.903200*%
%ADD14P,1.8695X8X292.5*%
%ADD15R,0.903200X1.103200*%
%ADD16R,2.703200X4.503200*%
%ADD17R,1.003200X1.003200*%
%ADD18R,0.803200X0.903200*%
%ADD19R,1.703200X0.603200*%
%ADD20C,1.653200*%
%ADD21C,1.711200*%
%ADD22R,1.711200X1.711200*%
%ADD23C,0.959600*%
D10*
X107156Y109538D03*
D11*
X134556Y109538D03*
X161956Y109538D03*
X189356Y109538D03*
X216756Y109538D03*
X120856Y81138D03*
X148256Y81138D03*
X175656Y81138D03*
X203056Y81138D03*
D12*
X286956Y95338D03*
X37056Y95338D03*
D13*
X287338Y145900D03*
X287338Y158900D03*
X287338Y176063D03*
X287338Y189063D03*
X303213Y166538D03*
X303213Y179538D03*
D14*
X137319Y208756D03*
X162719Y208756D03*
X137319Y183356D03*
X162719Y183356D03*
X137319Y157956D03*
X162719Y157956D03*
D15*
X210988Y135731D03*
X223988Y135731D03*
D16*
X57944Y232000D03*
X57944Y149000D03*
D17*
X244913Y211138D03*
X259913Y211138D03*
X234513Y211138D03*
X219513Y211138D03*
D18*
X269638Y211138D03*
X279638Y211138D03*
X209788Y211138D03*
X199788Y211138D03*
D19*
X268713Y198963D03*
X268713Y192463D03*
X268713Y185963D03*
X268713Y179463D03*
X268713Y172963D03*
X268713Y166463D03*
X268713Y159963D03*
X268713Y153463D03*
X210713Y198963D03*
X210713Y192463D03*
X210713Y185963D03*
X210713Y179463D03*
X210713Y172963D03*
X210713Y166463D03*
X210713Y159963D03*
X210713Y153463D03*
D20*
X57944Y215900D03*
X57944Y165100D03*
D21*
X220863Y265600D03*
X245863Y265600D03*
X195863Y265600D03*
D22*
X170863Y265600D03*
D21*
X270863Y265600D03*
X295863Y265600D03*
D23*
X239713Y169863D03*
X287338Y218281D03*
X255588Y160338D03*
X303213Y155575D03*
X255588Y185738D03*
X303213Y188913D03*
X261938Y230981D03*
M02*
