G04 EAGLE Gerber RS-274X export*
G75*
%MOMM*%
%FSLAX34Y34*%
%LPD*%
%INSoldermask Bottom*%
%IPPOS*%
%AMOC8*
5,1,8,0,0,1.08239X$1,22.5*%
G01*
G04 Define Apertures*
%ADD10C,0.279400*%
%ADD11R,1.763200X1.763200*%
%ADD12C,1.763200*%
%ADD13C,4.389200*%
%ADD14P,1.8695X8X292.5*%
%ADD15C,1.653200*%
%ADD16R,1.473200X0.863600*%
%ADD17R,1.473200X0.838200*%
%ADD18C,1.711200*%
%ADD19R,1.711200X1.711200*%
%ADD20C,0.959600*%
G36*
X113983Y168116D02*
X113983Y173196D01*
X117793Y173196D01*
X117793Y168116D01*
X113983Y168116D01*
G37*
G36*
X126683Y128429D02*
X126683Y133509D01*
X130493Y133509D01*
X130493Y128429D01*
X126683Y128429D01*
G37*
G36*
X171133Y128429D02*
X171133Y133509D01*
X174943Y133509D01*
X174943Y128429D01*
X171133Y128429D01*
G37*
G36*
X186055Y198596D02*
X186055Y193516D01*
X182245Y193516D01*
X182245Y198596D01*
X186055Y198596D01*
G37*
G36*
X215583Y128429D02*
X215583Y133509D01*
X219393Y133509D01*
X219393Y128429D01*
X215583Y128429D01*
G37*
D10*
X227203Y47117D02*
X227203Y62103D01*
X223040Y62103D01*
X222912Y62101D01*
X222784Y62095D01*
X222656Y62085D01*
X222528Y62071D01*
X222401Y62054D01*
X222275Y62032D01*
X222149Y62007D01*
X222025Y61977D01*
X221901Y61944D01*
X221778Y61907D01*
X221656Y61866D01*
X221536Y61822D01*
X221417Y61774D01*
X221300Y61722D01*
X221184Y61667D01*
X221071Y61608D01*
X220959Y61545D01*
X220848Y61479D01*
X220741Y61410D01*
X220635Y61338D01*
X220531Y61262D01*
X220430Y61183D01*
X220331Y61101D01*
X220235Y61016D01*
X220142Y60929D01*
X220051Y60838D01*
X219964Y60745D01*
X219879Y60649D01*
X219797Y60550D01*
X219718Y60449D01*
X219642Y60345D01*
X219570Y60239D01*
X219501Y60132D01*
X219435Y60022D01*
X219372Y59909D01*
X219313Y59796D01*
X219258Y59680D01*
X219206Y59563D01*
X219158Y59444D01*
X219114Y59324D01*
X219073Y59202D01*
X219036Y59079D01*
X219003Y58955D01*
X218973Y58831D01*
X218948Y58705D01*
X218926Y58579D01*
X218909Y58452D01*
X218895Y58324D01*
X218885Y58196D01*
X218879Y58068D01*
X218877Y57940D01*
X218879Y57812D01*
X218885Y57684D01*
X218895Y57556D01*
X218909Y57428D01*
X218926Y57301D01*
X218948Y57175D01*
X218973Y57049D01*
X219003Y56925D01*
X219036Y56801D01*
X219073Y56678D01*
X219114Y56556D01*
X219158Y56436D01*
X219206Y56317D01*
X219258Y56200D01*
X219313Y56084D01*
X219372Y55971D01*
X219435Y55859D01*
X219501Y55748D01*
X219570Y55641D01*
X219642Y55535D01*
X219718Y55431D01*
X219797Y55330D01*
X219879Y55231D01*
X219964Y55135D01*
X220051Y55042D01*
X220142Y54951D01*
X220235Y54864D01*
X220331Y54779D01*
X220430Y54697D01*
X220531Y54618D01*
X220635Y54542D01*
X220741Y54470D01*
X220848Y54401D01*
X220958Y54335D01*
X221071Y54272D01*
X221184Y54213D01*
X221300Y54158D01*
X221417Y54106D01*
X221536Y54058D01*
X221656Y54014D01*
X221778Y53973D01*
X221901Y53936D01*
X222025Y53903D01*
X222149Y53873D01*
X222275Y53848D01*
X222401Y53826D01*
X222528Y53809D01*
X222656Y53795D01*
X222784Y53785D01*
X222912Y53779D01*
X223040Y53777D01*
X227203Y53777D01*
X222208Y53777D02*
X218877Y47117D01*
X207236Y47117D02*
X207122Y47119D01*
X207009Y47125D01*
X206895Y47134D01*
X206783Y47148D01*
X206670Y47165D01*
X206558Y47187D01*
X206448Y47212D01*
X206338Y47240D01*
X206229Y47273D01*
X206121Y47309D01*
X206014Y47349D01*
X205909Y47393D01*
X205806Y47440D01*
X205704Y47490D01*
X205604Y47544D01*
X205506Y47602D01*
X205410Y47663D01*
X205316Y47726D01*
X205224Y47794D01*
X205134Y47864D01*
X205048Y47937D01*
X204963Y48013D01*
X204881Y48092D01*
X204802Y48174D01*
X204726Y48259D01*
X204653Y48345D01*
X204583Y48435D01*
X204515Y48527D01*
X204452Y48621D01*
X204391Y48717D01*
X204333Y48815D01*
X204279Y48915D01*
X204229Y49017D01*
X204182Y49120D01*
X204138Y49225D01*
X204098Y49332D01*
X204062Y49440D01*
X204029Y49549D01*
X204001Y49659D01*
X203976Y49769D01*
X203954Y49881D01*
X203937Y49994D01*
X203923Y50106D01*
X203914Y50220D01*
X203908Y50333D01*
X203906Y50447D01*
X207236Y47117D02*
X207404Y47119D01*
X207573Y47125D01*
X207741Y47135D01*
X207908Y47149D01*
X208076Y47167D01*
X208242Y47189D01*
X208409Y47215D01*
X208574Y47245D01*
X208739Y47279D01*
X208903Y47317D01*
X209066Y47359D01*
X209228Y47405D01*
X209389Y47455D01*
X209549Y47508D01*
X209707Y47565D01*
X209864Y47626D01*
X210019Y47691D01*
X210173Y47759D01*
X210325Y47832D01*
X210475Y47907D01*
X210624Y47987D01*
X210770Y48069D01*
X210915Y48156D01*
X211057Y48245D01*
X211198Y48338D01*
X211336Y48435D01*
X211471Y48535D01*
X211604Y48638D01*
X211735Y48744D01*
X211863Y48853D01*
X211989Y48965D01*
X212111Y49080D01*
X212231Y49198D01*
X211814Y58773D02*
X211812Y58887D01*
X211806Y59000D01*
X211797Y59114D01*
X211783Y59226D01*
X211766Y59339D01*
X211744Y59451D01*
X211719Y59561D01*
X211691Y59671D01*
X211658Y59780D01*
X211622Y59888D01*
X211582Y59995D01*
X211538Y60100D01*
X211491Y60203D01*
X211441Y60305D01*
X211387Y60405D01*
X211329Y60503D01*
X211268Y60599D01*
X211205Y60693D01*
X211137Y60785D01*
X211067Y60875D01*
X210994Y60961D01*
X210918Y61046D01*
X210839Y61128D01*
X210757Y61207D01*
X210672Y61283D01*
X210586Y61356D01*
X210496Y61426D01*
X210404Y61494D01*
X210310Y61557D01*
X210214Y61618D01*
X210116Y61676D01*
X210016Y61730D01*
X209914Y61780D01*
X209811Y61827D01*
X209706Y61871D01*
X209599Y61911D01*
X209491Y61947D01*
X209382Y61980D01*
X209272Y62008D01*
X209162Y62033D01*
X209050Y62055D01*
X208937Y62072D01*
X208825Y62086D01*
X208711Y62095D01*
X208598Y62101D01*
X208484Y62103D01*
X208329Y62101D01*
X208175Y62095D01*
X208021Y62086D01*
X207867Y62072D01*
X207713Y62055D01*
X207560Y62034D01*
X207408Y62010D01*
X207256Y61981D01*
X207105Y61949D01*
X206954Y61913D01*
X206805Y61873D01*
X206657Y61830D01*
X206509Y61783D01*
X206363Y61732D01*
X206219Y61678D01*
X206075Y61620D01*
X205934Y61558D01*
X205793Y61494D01*
X205655Y61425D01*
X205518Y61354D01*
X205383Y61278D01*
X205250Y61200D01*
X205118Y61118D01*
X204989Y61033D01*
X204862Y60945D01*
X204738Y60854D01*
X210149Y55859D02*
X210246Y55918D01*
X210340Y55981D01*
X210433Y56046D01*
X210523Y56115D01*
X210611Y56186D01*
X210696Y56261D01*
X210779Y56338D01*
X210859Y56418D01*
X210937Y56500D01*
X211011Y56586D01*
X211083Y56673D01*
X211152Y56763D01*
X211218Y56855D01*
X211280Y56950D01*
X211340Y57046D01*
X211396Y57144D01*
X211449Y57245D01*
X211498Y57347D01*
X211544Y57450D01*
X211587Y57555D01*
X211626Y57661D01*
X211662Y57769D01*
X211693Y57878D01*
X211721Y57987D01*
X211746Y58098D01*
X211767Y58209D01*
X211784Y58321D01*
X211797Y58434D01*
X211806Y58547D01*
X211812Y58660D01*
X211814Y58773D01*
X205571Y53361D02*
X205474Y53302D01*
X205380Y53239D01*
X205287Y53174D01*
X205197Y53105D01*
X205109Y53034D01*
X205024Y52959D01*
X204941Y52882D01*
X204861Y52802D01*
X204783Y52720D01*
X204709Y52634D01*
X204637Y52547D01*
X204568Y52457D01*
X204502Y52365D01*
X204440Y52270D01*
X204380Y52174D01*
X204324Y52076D01*
X204271Y51975D01*
X204222Y51873D01*
X204176Y51770D01*
X204133Y51665D01*
X204094Y51559D01*
X204058Y51451D01*
X204027Y51342D01*
X203999Y51233D01*
X203974Y51122D01*
X203953Y51011D01*
X203936Y50899D01*
X203923Y50786D01*
X203914Y50673D01*
X203908Y50560D01*
X203906Y50447D01*
X205570Y53361D02*
X210150Y55859D01*
X192542Y62104D02*
X192422Y62102D01*
X192302Y62096D01*
X192182Y62087D01*
X192063Y62073D01*
X191944Y62056D01*
X191826Y62035D01*
X191708Y62010D01*
X191592Y61981D01*
X191476Y61949D01*
X191361Y61913D01*
X191248Y61873D01*
X191136Y61830D01*
X191025Y61783D01*
X190916Y61733D01*
X190809Y61679D01*
X190703Y61622D01*
X190600Y61561D01*
X190498Y61497D01*
X190398Y61430D01*
X190301Y61360D01*
X190206Y61287D01*
X190113Y61210D01*
X190023Y61131D01*
X189935Y61049D01*
X189850Y60964D01*
X189768Y60876D01*
X189689Y60786D01*
X189612Y60693D01*
X189539Y60598D01*
X189469Y60501D01*
X189402Y60401D01*
X189338Y60299D01*
X189277Y60196D01*
X189220Y60090D01*
X189166Y59983D01*
X189116Y59874D01*
X189069Y59763D01*
X189026Y59651D01*
X188986Y59538D01*
X188950Y59423D01*
X188918Y59307D01*
X188889Y59191D01*
X188864Y59073D01*
X188843Y58955D01*
X188826Y58836D01*
X188812Y58717D01*
X188803Y58597D01*
X188797Y58477D01*
X188795Y58357D01*
X192542Y62103D02*
X192680Y62101D01*
X192817Y62095D01*
X192954Y62085D01*
X193091Y62072D01*
X193227Y62054D01*
X193363Y62032D01*
X193499Y62007D01*
X193633Y61978D01*
X193766Y61945D01*
X193899Y61908D01*
X194030Y61867D01*
X194161Y61823D01*
X194289Y61775D01*
X194417Y61723D01*
X194543Y61667D01*
X194667Y61608D01*
X194790Y61546D01*
X194910Y61480D01*
X195029Y61411D01*
X195146Y61338D01*
X195261Y61262D01*
X195373Y61182D01*
X195483Y61100D01*
X195591Y61014D01*
X195696Y60926D01*
X195798Y60834D01*
X195898Y60740D01*
X195996Y60642D01*
X196090Y60542D01*
X196182Y60439D01*
X196270Y60334D01*
X196355Y60226D01*
X196438Y60116D01*
X196517Y60004D01*
X196593Y59889D01*
X196666Y59772D01*
X196735Y59653D01*
X196801Y59533D01*
X196863Y59410D01*
X196922Y59286D01*
X196977Y59160D01*
X197029Y59032D01*
X197077Y58903D01*
X197121Y58773D01*
X190044Y55443D02*
X189954Y55531D01*
X189868Y55622D01*
X189784Y55715D01*
X189703Y55811D01*
X189625Y55909D01*
X189551Y56009D01*
X189479Y56112D01*
X189411Y56217D01*
X189346Y56325D01*
X189284Y56434D01*
X189226Y56545D01*
X189171Y56658D01*
X189120Y56772D01*
X189073Y56888D01*
X189029Y57005D01*
X188989Y57124D01*
X188952Y57244D01*
X188919Y57365D01*
X188890Y57487D01*
X188865Y57609D01*
X188844Y57733D01*
X188826Y57857D01*
X188813Y57982D01*
X188803Y58107D01*
X188797Y58232D01*
X188795Y58357D01*
X190044Y55443D02*
X197121Y47117D01*
X188795Y47117D01*
X181489Y47117D02*
X177327Y47117D01*
X177199Y47119D01*
X177071Y47125D01*
X176943Y47135D01*
X176815Y47149D01*
X176688Y47166D01*
X176562Y47188D01*
X176436Y47213D01*
X176312Y47243D01*
X176188Y47276D01*
X176065Y47313D01*
X175943Y47354D01*
X175823Y47398D01*
X175704Y47446D01*
X175587Y47498D01*
X175471Y47553D01*
X175358Y47612D01*
X175245Y47675D01*
X175135Y47741D01*
X175028Y47810D01*
X174922Y47882D01*
X174818Y47958D01*
X174717Y48037D01*
X174618Y48119D01*
X174522Y48204D01*
X174429Y48291D01*
X174338Y48382D01*
X174251Y48475D01*
X174166Y48571D01*
X174084Y48670D01*
X174005Y48771D01*
X173929Y48875D01*
X173857Y48981D01*
X173788Y49088D01*
X173722Y49199D01*
X173659Y49311D01*
X173600Y49424D01*
X173545Y49540D01*
X173493Y49657D01*
X173445Y49776D01*
X173401Y49896D01*
X173360Y50018D01*
X173323Y50141D01*
X173290Y50265D01*
X173260Y50389D01*
X173235Y50515D01*
X173213Y50641D01*
X173196Y50768D01*
X173182Y50896D01*
X173172Y51024D01*
X173166Y51152D01*
X173164Y51280D01*
X173166Y51408D01*
X173172Y51536D01*
X173182Y51664D01*
X173196Y51792D01*
X173213Y51919D01*
X173235Y52045D01*
X173260Y52171D01*
X173290Y52295D01*
X173323Y52419D01*
X173360Y52542D01*
X173401Y52664D01*
X173445Y52784D01*
X173493Y52903D01*
X173545Y53020D01*
X173600Y53136D01*
X173659Y53249D01*
X173722Y53362D01*
X173788Y53472D01*
X173857Y53579D01*
X173929Y53685D01*
X174005Y53789D01*
X174084Y53890D01*
X174166Y53989D01*
X174251Y54085D01*
X174338Y54178D01*
X174429Y54269D01*
X174522Y54356D01*
X174618Y54441D01*
X174717Y54523D01*
X174818Y54602D01*
X174922Y54678D01*
X175028Y54750D01*
X175135Y54819D01*
X175246Y54885D01*
X175358Y54948D01*
X175471Y55007D01*
X175587Y55062D01*
X175704Y55114D01*
X175823Y55162D01*
X175943Y55206D01*
X176065Y55247D01*
X176188Y55284D01*
X176312Y55317D01*
X176436Y55347D01*
X176562Y55372D01*
X176688Y55394D01*
X176815Y55411D01*
X176943Y55425D01*
X177071Y55435D01*
X177199Y55441D01*
X177327Y55443D01*
X176494Y62103D02*
X181489Y62103D01*
X176494Y62103D02*
X176380Y62101D01*
X176267Y62095D01*
X176153Y62086D01*
X176041Y62072D01*
X175928Y62055D01*
X175816Y62033D01*
X175706Y62008D01*
X175596Y61980D01*
X175487Y61947D01*
X175379Y61911D01*
X175272Y61871D01*
X175167Y61827D01*
X175064Y61780D01*
X174962Y61730D01*
X174862Y61676D01*
X174764Y61618D01*
X174668Y61557D01*
X174574Y61494D01*
X174482Y61426D01*
X174392Y61356D01*
X174306Y61283D01*
X174221Y61207D01*
X174139Y61128D01*
X174060Y61046D01*
X173984Y60961D01*
X173911Y60875D01*
X173841Y60785D01*
X173773Y60693D01*
X173710Y60599D01*
X173649Y60503D01*
X173591Y60405D01*
X173537Y60305D01*
X173487Y60203D01*
X173440Y60100D01*
X173396Y59995D01*
X173356Y59888D01*
X173320Y59780D01*
X173287Y59671D01*
X173259Y59561D01*
X173234Y59451D01*
X173212Y59339D01*
X173195Y59226D01*
X173181Y59114D01*
X173172Y59000D01*
X173166Y58887D01*
X173164Y58773D01*
X173166Y58659D01*
X173172Y58546D01*
X173181Y58432D01*
X173195Y58320D01*
X173212Y58207D01*
X173234Y58095D01*
X173259Y57985D01*
X173287Y57875D01*
X173320Y57766D01*
X173356Y57658D01*
X173396Y57551D01*
X173440Y57446D01*
X173487Y57343D01*
X173537Y57241D01*
X173591Y57141D01*
X173649Y57043D01*
X173710Y56947D01*
X173773Y56853D01*
X173841Y56761D01*
X173911Y56671D01*
X173984Y56585D01*
X174060Y56500D01*
X174139Y56418D01*
X174221Y56339D01*
X174306Y56263D01*
X174392Y56190D01*
X174482Y56120D01*
X174574Y56052D01*
X174668Y55989D01*
X174764Y55928D01*
X174862Y55870D01*
X174962Y55816D01*
X175064Y55766D01*
X175167Y55719D01*
X175272Y55675D01*
X175379Y55635D01*
X175487Y55599D01*
X175596Y55566D01*
X175706Y55538D01*
X175816Y55513D01*
X175928Y55491D01*
X176041Y55474D01*
X176153Y55460D01*
X176267Y55451D01*
X176380Y55445D01*
X176494Y55443D01*
X179824Y55443D01*
X161279Y62104D02*
X161159Y62102D01*
X161039Y62096D01*
X160919Y62087D01*
X160800Y62073D01*
X160681Y62056D01*
X160563Y62035D01*
X160445Y62010D01*
X160329Y61981D01*
X160213Y61949D01*
X160098Y61913D01*
X159985Y61873D01*
X159873Y61830D01*
X159762Y61783D01*
X159653Y61733D01*
X159546Y61679D01*
X159440Y61622D01*
X159337Y61561D01*
X159235Y61497D01*
X159135Y61430D01*
X159038Y61360D01*
X158943Y61287D01*
X158850Y61210D01*
X158760Y61131D01*
X158672Y61049D01*
X158587Y60964D01*
X158505Y60876D01*
X158426Y60786D01*
X158349Y60693D01*
X158276Y60598D01*
X158206Y60501D01*
X158139Y60401D01*
X158075Y60299D01*
X158014Y60196D01*
X157957Y60090D01*
X157903Y59983D01*
X157853Y59874D01*
X157806Y59763D01*
X157763Y59651D01*
X157723Y59538D01*
X157687Y59423D01*
X157655Y59307D01*
X157626Y59191D01*
X157601Y59073D01*
X157580Y58955D01*
X157563Y58836D01*
X157549Y58717D01*
X157540Y58597D01*
X157534Y58477D01*
X157532Y58357D01*
X161279Y62103D02*
X161417Y62101D01*
X161554Y62095D01*
X161691Y62085D01*
X161828Y62072D01*
X161964Y62054D01*
X162100Y62032D01*
X162236Y62007D01*
X162370Y61978D01*
X162503Y61945D01*
X162636Y61908D01*
X162767Y61867D01*
X162898Y61823D01*
X163026Y61775D01*
X163154Y61723D01*
X163280Y61667D01*
X163404Y61608D01*
X163527Y61546D01*
X163647Y61480D01*
X163766Y61411D01*
X163883Y61338D01*
X163998Y61262D01*
X164110Y61182D01*
X164220Y61100D01*
X164328Y61014D01*
X164433Y60926D01*
X164535Y60834D01*
X164635Y60740D01*
X164733Y60642D01*
X164827Y60542D01*
X164919Y60439D01*
X165007Y60334D01*
X165092Y60226D01*
X165175Y60116D01*
X165254Y60004D01*
X165330Y59889D01*
X165403Y59772D01*
X165472Y59653D01*
X165538Y59533D01*
X165600Y59410D01*
X165659Y59286D01*
X165714Y59160D01*
X165766Y59032D01*
X165814Y58903D01*
X165858Y58773D01*
X158782Y55443D02*
X158692Y55531D01*
X158606Y55622D01*
X158522Y55715D01*
X158441Y55811D01*
X158363Y55909D01*
X158289Y56009D01*
X158217Y56112D01*
X158149Y56217D01*
X158084Y56325D01*
X158022Y56434D01*
X157964Y56545D01*
X157909Y56658D01*
X157858Y56772D01*
X157811Y56888D01*
X157767Y57005D01*
X157727Y57124D01*
X157690Y57244D01*
X157657Y57365D01*
X157628Y57487D01*
X157603Y57609D01*
X157582Y57733D01*
X157564Y57857D01*
X157551Y57982D01*
X157541Y58107D01*
X157535Y58232D01*
X157533Y58357D01*
X158782Y55443D02*
X165858Y47117D01*
X157533Y47117D01*
X150018Y52945D02*
X140027Y52945D01*
X129391Y47117D02*
X129391Y62103D01*
X133554Y62103D02*
X125228Y62103D01*
X115844Y62103D02*
X115844Y47117D01*
X120007Y62103D02*
X111681Y62103D01*
X104851Y62103D02*
X104851Y47117D01*
X98191Y47117D01*
X221375Y24610D02*
X225538Y26275D01*
X225538Y26274D02*
X225623Y26310D01*
X225706Y26350D01*
X225787Y26393D01*
X225867Y26440D01*
X225944Y26490D01*
X226020Y26543D01*
X226093Y26599D01*
X226163Y26659D01*
X226231Y26721D01*
X226296Y26786D01*
X226358Y26854D01*
X226418Y26925D01*
X226474Y26998D01*
X226527Y27073D01*
X226577Y27151D01*
X226623Y27230D01*
X226666Y27312D01*
X226706Y27395D01*
X226742Y27480D01*
X226774Y27566D01*
X226803Y27654D01*
X226827Y27743D01*
X226848Y27833D01*
X226865Y27923D01*
X226879Y28014D01*
X226888Y28106D01*
X226893Y28198D01*
X226895Y28290D01*
X226893Y28382D01*
X226886Y28474D01*
X226876Y28566D01*
X226862Y28657D01*
X226844Y28748D01*
X226822Y28837D01*
X226796Y28926D01*
X226766Y29013D01*
X226733Y29099D01*
X226696Y29183D01*
X226656Y29266D01*
X226612Y29347D01*
X226565Y29426D01*
X226514Y29503D01*
X226460Y29578D01*
X226403Y29651D01*
X226343Y29721D01*
X226280Y29788D01*
X226214Y29852D01*
X226146Y29914D01*
X226075Y29973D01*
X226001Y30028D01*
X225925Y30081D01*
X225847Y30130D01*
X225767Y30176D01*
X225686Y30218D01*
X225602Y30257D01*
X225517Y30292D01*
X225430Y30323D01*
X225342Y30351D01*
X225253Y30375D01*
X225163Y30395D01*
X225073Y30412D01*
X224981Y30424D01*
X224889Y30433D01*
X224797Y30437D01*
X224705Y30438D01*
X224478Y30432D01*
X224251Y30421D01*
X224024Y30404D01*
X223798Y30381D01*
X223572Y30354D01*
X223347Y30320D01*
X223123Y30282D01*
X222900Y30238D01*
X222678Y30189D01*
X222457Y30134D01*
X222238Y30074D01*
X222020Y30009D01*
X221804Y29938D01*
X221590Y29863D01*
X221377Y29782D01*
X221167Y29696D01*
X220958Y29605D01*
X221375Y24610D02*
X221290Y24574D01*
X221207Y24534D01*
X221126Y24491D01*
X221046Y24444D01*
X220969Y24394D01*
X220893Y24341D01*
X220820Y24285D01*
X220750Y24225D01*
X220682Y24163D01*
X220617Y24098D01*
X220555Y24030D01*
X220495Y23959D01*
X220439Y23886D01*
X220386Y23811D01*
X220336Y23733D01*
X220290Y23654D01*
X220247Y23572D01*
X220207Y23489D01*
X220171Y23404D01*
X220139Y23318D01*
X220110Y23230D01*
X220086Y23141D01*
X220065Y23051D01*
X220048Y22961D01*
X220034Y22870D01*
X220025Y22778D01*
X220020Y22686D01*
X220018Y22594D01*
X220020Y22502D01*
X220027Y22410D01*
X220037Y22318D01*
X220051Y22227D01*
X220069Y22136D01*
X220091Y22047D01*
X220117Y21958D01*
X220147Y21871D01*
X220180Y21785D01*
X220217Y21701D01*
X220257Y21618D01*
X220301Y21537D01*
X220348Y21458D01*
X220399Y21381D01*
X220453Y21306D01*
X220510Y21233D01*
X220570Y21163D01*
X220633Y21096D01*
X220699Y21032D01*
X220767Y20970D01*
X220838Y20911D01*
X220912Y20856D01*
X220988Y20803D01*
X221066Y20754D01*
X221146Y20708D01*
X221227Y20666D01*
X221311Y20627D01*
X221396Y20592D01*
X221483Y20561D01*
X221571Y20533D01*
X221660Y20509D01*
X221750Y20489D01*
X221840Y20472D01*
X221932Y20460D01*
X222024Y20451D01*
X222116Y20447D01*
X222208Y20446D01*
X222208Y20447D02*
X222542Y20456D01*
X222875Y20473D01*
X223208Y20497D01*
X223541Y20530D01*
X223872Y20570D01*
X224203Y20618D01*
X224532Y20674D01*
X224860Y20737D01*
X225186Y20809D01*
X225510Y20888D01*
X225833Y20974D01*
X226153Y21069D01*
X226471Y21171D01*
X226787Y21280D01*
X214666Y30438D02*
X209671Y30438D01*
X213001Y35433D02*
X213001Y22945D01*
X213002Y22945D02*
X213000Y22847D01*
X212994Y22749D01*
X212985Y22651D01*
X212971Y22554D01*
X212954Y22458D01*
X212933Y22362D01*
X212908Y22267D01*
X212880Y22173D01*
X212848Y22080D01*
X212812Y21989D01*
X212773Y21899D01*
X212730Y21811D01*
X212683Y21724D01*
X212634Y21640D01*
X212581Y21557D01*
X212525Y21477D01*
X212466Y21399D01*
X212404Y21323D01*
X212338Y21249D01*
X212270Y21179D01*
X212200Y21111D01*
X212126Y21046D01*
X212051Y20983D01*
X211972Y20924D01*
X211892Y20868D01*
X211809Y20815D01*
X211725Y20766D01*
X211638Y20719D01*
X211550Y20676D01*
X211460Y20637D01*
X211369Y20601D01*
X211276Y20569D01*
X211182Y20541D01*
X211087Y20516D01*
X210991Y20495D01*
X210895Y20478D01*
X210798Y20464D01*
X210700Y20455D01*
X210602Y20449D01*
X210504Y20447D01*
X209671Y20447D01*
X202691Y20447D02*
X202691Y30438D01*
X197696Y30438D01*
X197696Y28773D01*
X189900Y20447D02*
X185738Y20447D01*
X189900Y20447D02*
X189998Y20449D01*
X190096Y20455D01*
X190194Y20464D01*
X190291Y20478D01*
X190387Y20495D01*
X190483Y20516D01*
X190578Y20541D01*
X190672Y20569D01*
X190765Y20601D01*
X190856Y20637D01*
X190946Y20676D01*
X191034Y20719D01*
X191121Y20766D01*
X191205Y20815D01*
X191288Y20868D01*
X191368Y20924D01*
X191447Y20983D01*
X191522Y21046D01*
X191596Y21111D01*
X191666Y21179D01*
X191734Y21249D01*
X191800Y21323D01*
X191862Y21399D01*
X191921Y21477D01*
X191977Y21557D01*
X192030Y21640D01*
X192080Y21724D01*
X192126Y21811D01*
X192169Y21899D01*
X192208Y21989D01*
X192244Y22080D01*
X192276Y22173D01*
X192304Y22267D01*
X192329Y22362D01*
X192350Y22458D01*
X192367Y22554D01*
X192381Y22651D01*
X192390Y22749D01*
X192396Y22847D01*
X192398Y22945D01*
X192398Y27107D01*
X192396Y27221D01*
X192390Y27334D01*
X192381Y27448D01*
X192367Y27560D01*
X192350Y27673D01*
X192328Y27785D01*
X192303Y27895D01*
X192275Y28005D01*
X192242Y28114D01*
X192206Y28222D01*
X192166Y28329D01*
X192122Y28434D01*
X192075Y28537D01*
X192025Y28639D01*
X191971Y28739D01*
X191913Y28837D01*
X191852Y28933D01*
X191789Y29027D01*
X191721Y29119D01*
X191651Y29209D01*
X191578Y29295D01*
X191502Y29380D01*
X191423Y29462D01*
X191341Y29541D01*
X191256Y29617D01*
X191170Y29690D01*
X191080Y29760D01*
X190988Y29828D01*
X190894Y29891D01*
X190798Y29952D01*
X190700Y30010D01*
X190600Y30064D01*
X190498Y30114D01*
X190395Y30161D01*
X190290Y30205D01*
X190183Y30245D01*
X190075Y30281D01*
X189966Y30314D01*
X189856Y30342D01*
X189746Y30367D01*
X189634Y30389D01*
X189521Y30406D01*
X189409Y30420D01*
X189295Y30429D01*
X189182Y30435D01*
X189068Y30437D01*
X188954Y30435D01*
X188841Y30429D01*
X188727Y30420D01*
X188615Y30406D01*
X188502Y30389D01*
X188390Y30367D01*
X188280Y30342D01*
X188170Y30314D01*
X188061Y30281D01*
X187953Y30245D01*
X187846Y30205D01*
X187741Y30161D01*
X187638Y30114D01*
X187536Y30064D01*
X187436Y30010D01*
X187338Y29952D01*
X187242Y29891D01*
X187148Y29828D01*
X187056Y29760D01*
X186966Y29690D01*
X186880Y29617D01*
X186795Y29541D01*
X186713Y29462D01*
X186634Y29380D01*
X186558Y29295D01*
X186485Y29209D01*
X186415Y29119D01*
X186347Y29027D01*
X186284Y28933D01*
X186223Y28837D01*
X186165Y28739D01*
X186111Y28639D01*
X186061Y28537D01*
X186014Y28434D01*
X185970Y28329D01*
X185930Y28222D01*
X185894Y28114D01*
X185861Y28005D01*
X185833Y27895D01*
X185808Y27785D01*
X185786Y27673D01*
X185769Y27560D01*
X185755Y27448D01*
X185746Y27334D01*
X185740Y27221D01*
X185738Y27107D01*
X185738Y25442D01*
X192398Y25442D01*
X178330Y20447D02*
X178330Y30438D01*
X174167Y30438D01*
X174069Y30436D01*
X173971Y30430D01*
X173873Y30421D01*
X173776Y30407D01*
X173680Y30390D01*
X173584Y30369D01*
X173489Y30344D01*
X173395Y30316D01*
X173302Y30284D01*
X173211Y30248D01*
X173121Y30209D01*
X173033Y30166D01*
X172946Y30120D01*
X172862Y30070D01*
X172779Y30017D01*
X172699Y29961D01*
X172621Y29902D01*
X172545Y29840D01*
X172471Y29774D01*
X172401Y29706D01*
X172333Y29636D01*
X172268Y29562D01*
X172205Y29487D01*
X172146Y29408D01*
X172090Y29328D01*
X172037Y29245D01*
X171988Y29161D01*
X171941Y29074D01*
X171898Y28986D01*
X171859Y28896D01*
X171823Y28805D01*
X171791Y28712D01*
X171763Y28618D01*
X171738Y28523D01*
X171717Y28427D01*
X171700Y28331D01*
X171686Y28234D01*
X171677Y28136D01*
X171671Y28038D01*
X171669Y27940D01*
X171669Y20447D01*
X163741Y22945D02*
X163741Y30438D01*
X163741Y22945D02*
X163739Y22847D01*
X163733Y22749D01*
X163724Y22651D01*
X163710Y22554D01*
X163693Y22458D01*
X163672Y22362D01*
X163647Y22267D01*
X163619Y22173D01*
X163587Y22080D01*
X163551Y21989D01*
X163512Y21899D01*
X163469Y21811D01*
X163422Y21724D01*
X163373Y21640D01*
X163320Y21557D01*
X163264Y21477D01*
X163205Y21399D01*
X163143Y21323D01*
X163077Y21249D01*
X163009Y21179D01*
X162939Y21111D01*
X162865Y21046D01*
X162790Y20983D01*
X162711Y20924D01*
X162631Y20868D01*
X162548Y20815D01*
X162464Y20766D01*
X162377Y20719D01*
X162289Y20676D01*
X162199Y20637D01*
X162108Y20601D01*
X162015Y20569D01*
X161921Y20541D01*
X161826Y20516D01*
X161730Y20495D01*
X161634Y20478D01*
X161537Y20464D01*
X161439Y20455D01*
X161341Y20449D01*
X161243Y20447D01*
X157080Y20447D01*
X157080Y30438D01*
X149673Y27107D02*
X149673Y23777D01*
X149672Y27107D02*
X149670Y27221D01*
X149664Y27334D01*
X149655Y27448D01*
X149641Y27560D01*
X149624Y27673D01*
X149602Y27785D01*
X149577Y27895D01*
X149549Y28005D01*
X149516Y28114D01*
X149480Y28222D01*
X149440Y28329D01*
X149396Y28434D01*
X149349Y28537D01*
X149299Y28639D01*
X149245Y28739D01*
X149187Y28837D01*
X149126Y28933D01*
X149063Y29027D01*
X148995Y29119D01*
X148925Y29209D01*
X148852Y29295D01*
X148776Y29380D01*
X148697Y29462D01*
X148615Y29541D01*
X148530Y29617D01*
X148444Y29690D01*
X148354Y29760D01*
X148262Y29828D01*
X148168Y29891D01*
X148072Y29952D01*
X147974Y30010D01*
X147874Y30064D01*
X147772Y30114D01*
X147669Y30161D01*
X147564Y30205D01*
X147457Y30245D01*
X147349Y30281D01*
X147240Y30314D01*
X147130Y30342D01*
X147020Y30367D01*
X146908Y30389D01*
X146795Y30406D01*
X146683Y30420D01*
X146569Y30429D01*
X146456Y30435D01*
X146342Y30437D01*
X146228Y30435D01*
X146115Y30429D01*
X146001Y30420D01*
X145889Y30406D01*
X145776Y30389D01*
X145664Y30367D01*
X145554Y30342D01*
X145444Y30314D01*
X145335Y30281D01*
X145227Y30245D01*
X145120Y30205D01*
X145015Y30161D01*
X144912Y30114D01*
X144810Y30064D01*
X144710Y30010D01*
X144612Y29952D01*
X144516Y29891D01*
X144422Y29828D01*
X144330Y29760D01*
X144240Y29690D01*
X144154Y29617D01*
X144069Y29541D01*
X143987Y29462D01*
X143908Y29380D01*
X143832Y29295D01*
X143759Y29209D01*
X143689Y29119D01*
X143621Y29027D01*
X143558Y28933D01*
X143497Y28837D01*
X143439Y28739D01*
X143385Y28639D01*
X143335Y28537D01*
X143288Y28434D01*
X143244Y28329D01*
X143204Y28222D01*
X143168Y28114D01*
X143135Y28005D01*
X143107Y27895D01*
X143082Y27785D01*
X143060Y27673D01*
X143043Y27560D01*
X143029Y27448D01*
X143020Y27334D01*
X143014Y27221D01*
X143012Y27107D01*
X143012Y23777D01*
X143014Y23663D01*
X143020Y23550D01*
X143029Y23436D01*
X143043Y23324D01*
X143060Y23211D01*
X143082Y23099D01*
X143107Y22989D01*
X143135Y22879D01*
X143168Y22770D01*
X143204Y22662D01*
X143244Y22555D01*
X143288Y22450D01*
X143335Y22347D01*
X143385Y22245D01*
X143439Y22145D01*
X143497Y22047D01*
X143558Y21951D01*
X143621Y21857D01*
X143689Y21765D01*
X143759Y21675D01*
X143832Y21589D01*
X143908Y21504D01*
X143987Y21422D01*
X144069Y21343D01*
X144154Y21267D01*
X144240Y21194D01*
X144330Y21124D01*
X144422Y21056D01*
X144516Y20993D01*
X144612Y20932D01*
X144710Y20874D01*
X144810Y20820D01*
X144912Y20770D01*
X145015Y20723D01*
X145120Y20679D01*
X145227Y20639D01*
X145335Y20603D01*
X145444Y20570D01*
X145554Y20542D01*
X145664Y20517D01*
X145776Y20495D01*
X145889Y20478D01*
X146001Y20464D01*
X146115Y20455D01*
X146228Y20449D01*
X146342Y20447D01*
X146456Y20449D01*
X146569Y20455D01*
X146683Y20464D01*
X146795Y20478D01*
X146908Y20495D01*
X147020Y20517D01*
X147130Y20542D01*
X147240Y20570D01*
X147349Y20603D01*
X147457Y20639D01*
X147564Y20679D01*
X147669Y20723D01*
X147772Y20770D01*
X147874Y20820D01*
X147974Y20874D01*
X148072Y20932D01*
X148168Y20993D01*
X148262Y21056D01*
X148354Y21124D01*
X148444Y21194D01*
X148530Y21267D01*
X148615Y21343D01*
X148697Y21422D01*
X148776Y21504D01*
X148852Y21589D01*
X148925Y21675D01*
X148995Y21765D01*
X149063Y21857D01*
X149126Y21951D01*
X149187Y22047D01*
X149245Y22145D01*
X149299Y22245D01*
X149349Y22347D01*
X149396Y22450D01*
X149440Y22555D01*
X149480Y22662D01*
X149516Y22770D01*
X149549Y22879D01*
X149577Y22989D01*
X149602Y23099D01*
X149624Y23211D01*
X149641Y23324D01*
X149655Y23436D01*
X149664Y23550D01*
X149670Y23663D01*
X149672Y23777D01*
X135605Y22945D02*
X135605Y30438D01*
X135605Y22945D02*
X135603Y22847D01*
X135597Y22749D01*
X135588Y22651D01*
X135574Y22554D01*
X135557Y22458D01*
X135536Y22362D01*
X135511Y22267D01*
X135483Y22173D01*
X135451Y22080D01*
X135415Y21989D01*
X135376Y21899D01*
X135333Y21811D01*
X135286Y21724D01*
X135237Y21640D01*
X135184Y21557D01*
X135128Y21477D01*
X135069Y21399D01*
X135007Y21323D01*
X134941Y21249D01*
X134873Y21179D01*
X134803Y21111D01*
X134729Y21046D01*
X134654Y20983D01*
X134575Y20924D01*
X134495Y20868D01*
X134412Y20815D01*
X134328Y20766D01*
X134241Y20719D01*
X134153Y20676D01*
X134063Y20637D01*
X133972Y20601D01*
X133879Y20569D01*
X133785Y20541D01*
X133690Y20516D01*
X133594Y20495D01*
X133498Y20478D01*
X133401Y20464D01*
X133303Y20455D01*
X133205Y20449D01*
X133107Y20447D01*
X128944Y20447D01*
X128944Y30438D01*
X120288Y26275D02*
X116125Y24610D01*
X120288Y26274D02*
X120373Y26310D01*
X120456Y26350D01*
X120537Y26393D01*
X120617Y26440D01*
X120694Y26490D01*
X120770Y26543D01*
X120843Y26599D01*
X120913Y26659D01*
X120981Y26721D01*
X121046Y26786D01*
X121108Y26854D01*
X121168Y26925D01*
X121224Y26998D01*
X121277Y27073D01*
X121327Y27151D01*
X121373Y27230D01*
X121416Y27312D01*
X121456Y27395D01*
X121492Y27480D01*
X121524Y27566D01*
X121553Y27654D01*
X121577Y27743D01*
X121598Y27833D01*
X121615Y27923D01*
X121629Y28014D01*
X121638Y28106D01*
X121643Y28198D01*
X121645Y28290D01*
X121643Y28382D01*
X121636Y28474D01*
X121626Y28566D01*
X121612Y28657D01*
X121594Y28748D01*
X121572Y28837D01*
X121546Y28926D01*
X121516Y29013D01*
X121483Y29099D01*
X121446Y29183D01*
X121406Y29266D01*
X121362Y29347D01*
X121315Y29426D01*
X121264Y29503D01*
X121210Y29578D01*
X121153Y29651D01*
X121093Y29721D01*
X121030Y29788D01*
X120964Y29852D01*
X120896Y29914D01*
X120825Y29973D01*
X120751Y30028D01*
X120675Y30081D01*
X120597Y30130D01*
X120517Y30176D01*
X120436Y30218D01*
X120352Y30257D01*
X120267Y30292D01*
X120180Y30323D01*
X120092Y30351D01*
X120003Y30375D01*
X119913Y30395D01*
X119823Y30412D01*
X119731Y30424D01*
X119639Y30433D01*
X119547Y30437D01*
X119455Y30438D01*
X119228Y30432D01*
X119001Y30421D01*
X118774Y30404D01*
X118548Y30381D01*
X118322Y30354D01*
X118097Y30320D01*
X117873Y30282D01*
X117650Y30238D01*
X117428Y30189D01*
X117207Y30134D01*
X116988Y30074D01*
X116770Y30009D01*
X116554Y29938D01*
X116340Y29863D01*
X116127Y29782D01*
X115917Y29696D01*
X115708Y29605D01*
X116125Y24610D02*
X116040Y24574D01*
X115957Y24534D01*
X115876Y24491D01*
X115796Y24444D01*
X115719Y24394D01*
X115643Y24341D01*
X115570Y24285D01*
X115500Y24225D01*
X115432Y24163D01*
X115367Y24098D01*
X115305Y24030D01*
X115245Y23959D01*
X115189Y23886D01*
X115136Y23811D01*
X115086Y23733D01*
X115040Y23654D01*
X114997Y23572D01*
X114957Y23489D01*
X114921Y23404D01*
X114889Y23318D01*
X114860Y23230D01*
X114836Y23141D01*
X114815Y23051D01*
X114798Y22961D01*
X114784Y22870D01*
X114775Y22778D01*
X114770Y22686D01*
X114768Y22594D01*
X114770Y22502D01*
X114777Y22410D01*
X114787Y22318D01*
X114801Y22227D01*
X114819Y22136D01*
X114841Y22047D01*
X114867Y21958D01*
X114897Y21871D01*
X114930Y21785D01*
X114967Y21701D01*
X115007Y21618D01*
X115051Y21537D01*
X115098Y21458D01*
X115149Y21381D01*
X115203Y21306D01*
X115260Y21233D01*
X115320Y21163D01*
X115383Y21096D01*
X115449Y21032D01*
X115517Y20970D01*
X115588Y20911D01*
X115662Y20856D01*
X115738Y20803D01*
X115816Y20754D01*
X115896Y20708D01*
X115977Y20666D01*
X116061Y20627D01*
X116146Y20592D01*
X116233Y20561D01*
X116321Y20533D01*
X116410Y20509D01*
X116500Y20489D01*
X116590Y20472D01*
X116682Y20460D01*
X116774Y20451D01*
X116866Y20447D01*
X116958Y20446D01*
X116958Y20447D02*
X117292Y20456D01*
X117625Y20473D01*
X117958Y20497D01*
X118291Y20530D01*
X118622Y20570D01*
X118953Y20618D01*
X119282Y20674D01*
X119610Y20737D01*
X119936Y20809D01*
X120260Y20888D01*
X120583Y20974D01*
X120903Y21069D01*
X121221Y21171D01*
X121537Y21280D01*
X108723Y21280D02*
X108723Y20447D01*
X108723Y21280D02*
X107890Y21280D01*
X107890Y20447D01*
X108723Y20447D01*
X95187Y20447D02*
X95187Y35433D01*
X95187Y20447D02*
X99350Y20447D01*
X99448Y20449D01*
X99546Y20455D01*
X99644Y20464D01*
X99741Y20478D01*
X99837Y20495D01*
X99933Y20516D01*
X100028Y20541D01*
X100122Y20569D01*
X100215Y20601D01*
X100306Y20637D01*
X100396Y20676D01*
X100484Y20719D01*
X100571Y20766D01*
X100655Y20815D01*
X100738Y20868D01*
X100818Y20924D01*
X100897Y20983D01*
X100972Y21046D01*
X101046Y21111D01*
X101116Y21179D01*
X101184Y21249D01*
X101250Y21323D01*
X101312Y21399D01*
X101371Y21477D01*
X101427Y21557D01*
X101480Y21640D01*
X101530Y21724D01*
X101576Y21811D01*
X101619Y21899D01*
X101658Y21989D01*
X101694Y22080D01*
X101726Y22173D01*
X101754Y22267D01*
X101779Y22362D01*
X101800Y22458D01*
X101817Y22554D01*
X101831Y22651D01*
X101840Y22749D01*
X101846Y22847D01*
X101848Y22945D01*
X101847Y22945D02*
X101847Y27940D01*
X101848Y27940D02*
X101846Y28038D01*
X101840Y28136D01*
X101831Y28234D01*
X101817Y28331D01*
X101800Y28427D01*
X101779Y28523D01*
X101754Y28618D01*
X101726Y28712D01*
X101694Y28805D01*
X101658Y28896D01*
X101619Y28986D01*
X101576Y29074D01*
X101529Y29161D01*
X101480Y29245D01*
X101427Y29328D01*
X101371Y29408D01*
X101312Y29486D01*
X101249Y29562D01*
X101184Y29636D01*
X101116Y29706D01*
X101046Y29774D01*
X100972Y29839D01*
X100896Y29902D01*
X100818Y29961D01*
X100738Y30017D01*
X100655Y30070D01*
X100571Y30119D01*
X100484Y30166D01*
X100396Y30209D01*
X100306Y30248D01*
X100215Y30284D01*
X100122Y30316D01*
X100028Y30344D01*
X99933Y30369D01*
X99837Y30390D01*
X99741Y30407D01*
X99644Y30421D01*
X99546Y30430D01*
X99448Y30436D01*
X99350Y30438D01*
X95187Y30438D01*
X85171Y20447D02*
X81008Y20447D01*
X85171Y20447D02*
X85269Y20449D01*
X85367Y20455D01*
X85465Y20464D01*
X85562Y20478D01*
X85658Y20495D01*
X85754Y20516D01*
X85849Y20541D01*
X85943Y20569D01*
X86036Y20601D01*
X86127Y20637D01*
X86217Y20676D01*
X86305Y20719D01*
X86392Y20766D01*
X86476Y20815D01*
X86559Y20868D01*
X86639Y20924D01*
X86718Y20983D01*
X86793Y21046D01*
X86867Y21111D01*
X86937Y21179D01*
X87005Y21249D01*
X87071Y21323D01*
X87133Y21399D01*
X87192Y21477D01*
X87248Y21557D01*
X87301Y21640D01*
X87351Y21724D01*
X87397Y21811D01*
X87440Y21899D01*
X87479Y21989D01*
X87515Y22080D01*
X87547Y22173D01*
X87575Y22267D01*
X87600Y22362D01*
X87621Y22458D01*
X87638Y22554D01*
X87652Y22651D01*
X87661Y22749D01*
X87667Y22847D01*
X87669Y22945D01*
X87669Y27107D01*
X87667Y27221D01*
X87661Y27334D01*
X87652Y27448D01*
X87638Y27560D01*
X87621Y27673D01*
X87599Y27785D01*
X87574Y27895D01*
X87546Y28005D01*
X87513Y28114D01*
X87477Y28222D01*
X87437Y28329D01*
X87393Y28434D01*
X87346Y28537D01*
X87296Y28639D01*
X87242Y28739D01*
X87184Y28837D01*
X87123Y28933D01*
X87060Y29027D01*
X86992Y29119D01*
X86922Y29209D01*
X86849Y29295D01*
X86773Y29380D01*
X86694Y29462D01*
X86612Y29541D01*
X86527Y29617D01*
X86441Y29690D01*
X86351Y29760D01*
X86259Y29828D01*
X86165Y29891D01*
X86069Y29952D01*
X85971Y30010D01*
X85871Y30064D01*
X85769Y30114D01*
X85666Y30161D01*
X85561Y30205D01*
X85454Y30245D01*
X85346Y30281D01*
X85237Y30314D01*
X85127Y30342D01*
X85017Y30367D01*
X84905Y30389D01*
X84792Y30406D01*
X84680Y30420D01*
X84566Y30429D01*
X84453Y30435D01*
X84339Y30437D01*
X84225Y30435D01*
X84112Y30429D01*
X83998Y30420D01*
X83886Y30406D01*
X83773Y30389D01*
X83661Y30367D01*
X83551Y30342D01*
X83441Y30314D01*
X83332Y30281D01*
X83224Y30245D01*
X83117Y30205D01*
X83012Y30161D01*
X82909Y30114D01*
X82807Y30064D01*
X82707Y30010D01*
X82609Y29952D01*
X82513Y29891D01*
X82419Y29828D01*
X82327Y29760D01*
X82237Y29690D01*
X82151Y29617D01*
X82066Y29541D01*
X81984Y29462D01*
X81905Y29380D01*
X81829Y29295D01*
X81756Y29209D01*
X81686Y29119D01*
X81618Y29027D01*
X81555Y28933D01*
X81494Y28837D01*
X81436Y28739D01*
X81382Y28639D01*
X81332Y28537D01*
X81285Y28434D01*
X81241Y28329D01*
X81201Y28222D01*
X81165Y28114D01*
X81132Y28005D01*
X81104Y27895D01*
X81079Y27785D01*
X81057Y27673D01*
X81040Y27560D01*
X81026Y27448D01*
X81017Y27334D01*
X81011Y27221D01*
X81009Y27107D01*
X81008Y27107D02*
X81008Y25442D01*
X87669Y25442D01*
X74643Y30438D02*
X71313Y20447D01*
X67982Y30438D01*
D11*
X107156Y109538D03*
D12*
X134556Y109538D03*
X161956Y109538D03*
X189356Y109538D03*
X216756Y109538D03*
X120856Y81138D03*
X148256Y81138D03*
X175656Y81138D03*
X203056Y81138D03*
D13*
X286956Y95338D03*
X37056Y95338D03*
D14*
X137319Y208756D03*
X162719Y208756D03*
X137319Y183356D03*
X162719Y183356D03*
X137319Y157956D03*
X162719Y157956D03*
D15*
X57944Y215900D03*
X57944Y165100D03*
D16*
X128588Y136176D03*
X128588Y125762D03*
X173038Y136176D03*
X173038Y125762D03*
D17*
X150813Y135033D03*
X150813Y126905D03*
X195263Y135033D03*
X195263Y126905D03*
D16*
X217488Y136176D03*
X217488Y125762D03*
D17*
X106363Y135033D03*
X106363Y126905D03*
D16*
X184150Y190849D03*
X184150Y201263D03*
X115888Y175863D03*
X115888Y165449D03*
D18*
X220863Y265600D03*
X245863Y265600D03*
X195863Y265600D03*
D19*
X170863Y265600D03*
D18*
X270863Y265600D03*
X295863Y265600D03*
D20*
X239713Y169863D03*
X287338Y218281D03*
X255588Y160338D03*
X303213Y155575D03*
X255588Y185738D03*
X303213Y188913D03*
X261938Y230981D03*
M02*
