M48
;GenerationSoftware,Autodesk,EAGLE,9.7.0*%
;CreationDate,2025-02-18T12:03:50Z*%
FMAT,2
ICI,OFF
METRIC,TZ,000.000
T6C0.350
T5C0.850
T4C1.000
T3C1.016
T2C1.040
T1C3.170
%
G90
M71
T1
X28696Y9534
X3706Y9534
T2
X10716Y10954
X13456Y10954
X16196Y10954
X18936Y10954
X21676Y10954
X12086Y8114
X14826Y8114
X17566Y8114
X20306Y8114
T3
X13732Y20876
X16272Y20876
X13732Y18336
X16272Y18336
X13732Y15796
X16272Y15796
T4
X22086Y26560
X24586Y26560
X19586Y26560
X17086Y26560
X27086Y26560
X29586Y26560
T5
X5794Y21590
X5794Y16510
T6
X23971Y16986
X28734Y21828
X25559Y16034
X30321Y15557
X25559Y18574
X30321Y18891
X26194Y23098
M30